<svg width="1440" height="800" viewBox="0 0 1440 800" fill="none" xmlns="http://www.w3.org/2000/svg">
<rect x="880.197" y="370.042" width="17.5689" height="84.9162" rx="5.85629" fill="#2B2B2B" stroke="url(#paint0_linear_1258_12943)" stroke-width="1.97479" stroke-linecap="round" stroke-linejoin="round"/>
<rect x="902.158" y="416.892" width="17.5689" height="54.1707" rx="5.85629" fill="#2B2B2B" stroke="url(#paint1_linear_1258_12943)" stroke-width="1.97479" stroke-linecap="round" stroke-linejoin="round"/>
<rect x="924.119" y="409.572" width="17.5689" height="61.491" rx="5.85629" fill="#2B2B2B" stroke="url(#paint2_linear_1258_12943)" stroke-width="1.97479" stroke-linecap="round" stroke-linejoin="round"/>
<rect x="946.081" y="235.347" width="17.5689" height="213.754" rx="5.85629" fill="#2B2B2B" stroke="url(#paint3_linear_1258_12943)" stroke-width="1.97479" stroke-linecap="round" stroke-linejoin="round"/>
<rect x="990.002" y="377.362" width="17.5689" height="77.5958" rx="5.85629" fill="#2B2B2B" stroke="url(#paint4_linear_1258_12943)" stroke-width="1.97479" stroke-linecap="round" stroke-linejoin="round"/>
<rect x="836.275" y="441.781" width="17.5689" height="77.5958" rx="5.85629" fill="#2B2B2B" stroke="url(#paint5_linear_1258_12943)" stroke-width="1.97479" stroke-linecap="round" stroke-linejoin="round"/>
<rect x="1011.96" y="331.976" width="17.5689" height="77.5958" rx="5.85629" fill="#2B2B2B" stroke="url(#paint6_linear_1258_12943)" stroke-width="1.97479" stroke-linecap="round" stroke-linejoin="round"/>
<rect x="858.237" y="396.395" width="17.5689" height="77.5958" rx="5.85629" fill="#2B2B2B" stroke="url(#paint7_linear_1258_12943)" stroke-width="1.97479" stroke-linecap="round" stroke-linejoin="round"/>
<rect x="1055.89" y="312.943" width="17.5689" height="73.2036" rx="5.85629" fill="#2B2B2B" stroke="url(#paint8_linear_1258_12943)" stroke-width="1.97479" stroke-linecap="round" stroke-linejoin="round"/>
<rect x="1077.85" y="226.563" width="17.5689" height="115.662" rx="5.85629" fill="#2B2B2B" stroke="url(#paint9_linear_1258_12943)" stroke-width="1.97479" stroke-linecap="round" stroke-linejoin="round"/>
<rect x="1033.92" y="353.937" width="17.5689" height="32.2096" rx="5.85629" fill="#2B2B2B" stroke="url(#paint10_linear_1258_12943)" stroke-width="1.97479" stroke-linecap="round" stroke-linejoin="round"/>
<rect x="1099.81" y="184.105" width="17.5689" height="42.4581" rx="5.85629" fill="#2B2B2B" stroke="url(#paint11_linear_1258_12943)" stroke-width="1.97479" stroke-linecap="round" stroke-linejoin="round"/>
<rect x="1121.77" y="213.386" width="17.5689" height="42.4581" rx="5.85629" fill="#2B2B2B" stroke="url(#paint12_linear_1258_12943)" stroke-width="1.97479" stroke-linecap="round" stroke-linejoin="round"/>
<rect x="1143.73" y="235.347" width="17.5689" height="80.5239" rx="5.85629" fill="#2B2B2B" stroke="url(#paint13_linear_1258_12943)" stroke-width="1.97479" stroke-linecap="round" stroke-linejoin="round"/>
<rect x="1165.69" y="266.093" width="17.5689" height="29.2814" rx="5.85629" fill="#2B2B2B" stroke="url(#paint14_linear_1258_12943)" stroke-width="1.97479" stroke-linecap="round" stroke-linejoin="round"/>
<rect x="1187.65" y="235.347" width="17.5689" height="60.0269" rx="5.85629" fill="#2B2B2B" stroke="url(#paint15_linear_1258_12943)" stroke-width="1.97479" stroke-linecap="round" stroke-linejoin="round"/>
<rect x="1209.61" y="260.237" width="17.5689" height="86.3802" rx="5.85629" fill="#2B2B2B" stroke="url(#paint16_linear_1258_12943)" stroke-width="1.97479" stroke-linecap="round" stroke-linejoin="round"/>
<rect x="1253.54" y="304.159" width="17.5689" height="36.6018" rx="5.85629" fill="#2B2B2B" stroke="url(#paint17_linear_1258_12943)" stroke-width="1.97479" stroke-linecap="round" stroke-linejoin="round"/>
<rect x="1275.5" y="244.132" width="17.5689" height="83.4521" rx="5.85629" fill="#2B2B2B" stroke="url(#paint18_linear_1258_12943)" stroke-width="1.97479" stroke-linecap="round" stroke-linejoin="round"/>
<rect x="1297.46" y="315.871" width="17.5689" height="61.491" rx="5.85629" fill="#2B2B2B" stroke="url(#paint19_linear_1258_12943)" stroke-width="1.97479" stroke-linecap="round" stroke-linejoin="round"/>
<rect x="1319.42" y="289.518" width="17.5689" height="27.8174" rx="5.85629" fill="#2B2B2B" stroke="url(#paint20_linear_1258_12943)" stroke-width="1.97479" stroke-linecap="round" stroke-linejoin="round"/>
<rect x="1341.38" y="249.988" width="17.5689" height="67.3473" rx="5.85629" fill="#2B2B2B" stroke="url(#paint21_linear_1258_12943)" stroke-width="1.97479" stroke-linecap="round" stroke-linejoin="round"/>
<rect x="1231.57" y="168" width="17.5689" height="159.584" rx="5.85629" fill="#2B2B2B" stroke="url(#paint22_linear_1258_12943)" stroke-width="1.97479" stroke-linecap="round" stroke-linejoin="round"/>
<rect x="968.042" y="286.59" width="17.5689" height="106.877" rx="5.85629" fill="#2B2B2B" stroke="url(#paint23_linear_1258_12943)" stroke-width="1.97479" stroke-linecap="round" stroke-linejoin="round"/>
<rect x="814.314" y="351.009" width="17.5689" height="106.877" rx="5.85629" fill="#2B2B2B" stroke="url(#paint24_linear_1258_12943)" stroke-width="1.97479" stroke-linecap="round" stroke-linejoin="round"/>
<rect x="1334.79" y="527.43" width="16.1048" height="52.7066" rx="5.12425" transform="rotate(-180 1334.79 527.43)" stroke="#909090" stroke-width="1.46407"/>
<rect x="1312.83" y="498.148" width="16.1048" height="33.6736" rx="5.12425" transform="rotate(-180 1312.83 498.148)" stroke="#909090" stroke-width="1.46407"/>
<rect x="1290.87" y="502.54" width="16.1048" height="38.0659" rx="5.12425" transform="rotate(-180 1290.87 502.54)" stroke="#909090" stroke-width="1.46407"/>
<rect x="1268.91" y="613.81" width="16.1048" height="134.695" rx="5.12425" transform="rotate(-180 1268.91 613.81)" stroke="#909090" stroke-width="1.46407"/>
<rect x="1224.99" y="523.037" width="16.1048" height="48.3144" rx="5.12425" transform="rotate(-180 1224.99 523.037)" stroke="#909090" stroke-width="1.46407"/>
<rect x="1203.03" y="552.319" width="16.1048" height="48.3144" rx="5.12425" transform="rotate(-180 1203.03 552.319)" stroke="#909090" stroke-width="1.46407"/>
<rect x="1159.1" y="564.031" width="16.1048" height="45.3862" rx="5.12425" transform="rotate(-180 1159.1 564.031)" stroke="#909090" stroke-width="1.46407"/>
<rect x="1137.14" y="618.202" width="16.1048" height="71.7395" rx="5.12425" transform="rotate(-180 1137.14 618.202)" stroke="#909090" stroke-width="1.46407"/>
<rect x="1181.06" y="537.678" width="16.1048" height="19.0329" rx="5.12425" transform="rotate(-180 1181.06 537.678)" stroke="#909090" stroke-width="1.46407"/>
<rect x="1115.18" y="646.019" width="16.1048" height="26.3533" rx="5.12425" transform="rotate(-180 1115.18 646.019)" stroke="#909090" stroke-width="1.46407"/>
<rect x="1093.22" y="626.987" width="16.1048" height="24.8892" rx="5.12425" transform="rotate(-180 1093.22 626.987)" stroke="#909090" stroke-width="1.46407"/>
<rect x="1071.26" y="613.81" width="16.1048" height="49.7784" rx="5.12425" transform="rotate(-180 1071.26 613.81)" stroke="#909090" stroke-width="1.46407"/>
<rect x="1049.3" y="593.313" width="16.1048" height="16.1048" rx="5.12425" transform="rotate(-180 1049.3 593.313)" stroke="#909090" stroke-width="1.46407"/>
<rect x="1027.34" y="613.81" width="16.1048" height="36.6018" rx="5.12425" transform="rotate(-180 1027.34 613.81)" stroke="#909090" stroke-width="1.46407"/>
<rect x="1005.38" y="597.705" width="16.1048" height="54.1707" rx="5.12425" transform="rotate(-180 1005.38 597.705)" stroke="#909090" stroke-width="1.46407"/>
<rect x="961.454" y="569.888" width="16.1048" height="21.9611" rx="5.12425" transform="rotate(-180 961.454 569.888)" stroke="#909090" stroke-width="1.46407"/>
<rect x="939.493" y="607.954" width="16.1048" height="52.7066" rx="5.12425" transform="rotate(-180 939.493 607.954)" stroke="#909090" stroke-width="1.46407"/>
<rect x="917.532" y="562.567" width="16.1048" height="38.0659" rx="5.12425" transform="rotate(-180 917.532 562.567)" stroke="#909090" stroke-width="1.46407"/>
<rect x="895.571" y="578.672" width="16.1048" height="16.1048" rx="5.12425" transform="rotate(-180 895.571 578.672)" stroke="#909090" stroke-width="1.46407"/>
<rect x="873.609" y="603.561" width="16.1048" height="40.994" rx="5.12425" transform="rotate(-180 873.609 603.561)" stroke="#909090" stroke-width="1.46407"/>
<rect x="983.415" y="656.268" width="16.1048" height="101.021" rx="5.12425" transform="rotate(-180 983.415 656.268)" stroke="#909090" stroke-width="1.46407"/>
<rect x="1246.95" y="580.136" width="16.1048" height="65.8832" rx="5.12425" transform="rotate(-180 1246.95 580.136)" stroke="#909090" stroke-width="1.46407"/>
<path d="M685.476 610.717C692.037 607.306 758.203 500.609 793.2 524.969C828.196 549.329 938.654 675.514 993.883 589.28C1049.11 503.045 1096.14 331.551 1143.71 386.604C1191.29 441.658 1220.81 561.022 1261.28 538.123C1301.74 515.225 1343.3 429.478 1362.44 460.171C1381.58 490.865 1394.16 589.28 1450.48 589.28C1506.8 589.28 1618.35 470.89 1638.59 368.578" stroke="url(#paint25_linear_1258_12943)" stroke-width="2.92365"/>
<circle cx="1121.77" cy="375.898" r="16.8368" fill="#46DA93" fill-opacity="0.49" stroke="url(#paint26_linear_1258_12943)" stroke-width="1.46407"/>
<circle cx="1353.09" cy="453.494" r="16.8368" fill="#46DA93" fill-opacity="0.49" stroke="url(#paint27_linear_1258_12943)" stroke-width="1.46407"/>
<circle cx="689.868" cy="608.686" r="16.8368" fill="#46DA93" fill-opacity="0.49" stroke="url(#paint28_linear_1258_12943)" stroke-width="1.46407"/>
<g style="mix-blend-mode:screen" opacity="0.5" filter="url(#filter0_f_1258_12943)">
<rect x="880.197" y="370.042" width="17.5689" height="84.9162" rx="5.85629" fill="#2B2B2B" stroke="url(#paint29_linear_1258_12943)" stroke-width="1.97479" stroke-linecap="round" stroke-linejoin="round"/>
<rect x="902.158" y="416.892" width="17.5689" height="54.1707" rx="5.85629" fill="#2B2B2B" stroke="url(#paint30_linear_1258_12943)" stroke-width="1.97479" stroke-linecap="round" stroke-linejoin="round"/>
<rect x="924.119" y="409.572" width="17.5689" height="61.491" rx="5.85629" fill="#2B2B2B" stroke="url(#paint31_linear_1258_12943)" stroke-width="1.97479" stroke-linecap="round" stroke-linejoin="round"/>
<rect x="946.081" y="235.347" width="17.5689" height="213.754" rx="5.85629" fill="#2B2B2B" stroke="url(#paint32_linear_1258_12943)" stroke-width="1.97479" stroke-linecap="round" stroke-linejoin="round"/>
<rect x="990.002" y="377.362" width="17.5689" height="77.5958" rx="5.85629" fill="#2B2B2B" stroke="url(#paint33_linear_1258_12943)" stroke-width="1.97479" stroke-linecap="round" stroke-linejoin="round"/>
<rect x="836.275" y="441.781" width="17.5689" height="77.5958" rx="5.85629" fill="#2B2B2B" stroke="url(#paint34_linear_1258_12943)" stroke-width="1.97479" stroke-linecap="round" stroke-linejoin="round"/>
<rect x="1011.96" y="331.976" width="17.5689" height="77.5958" rx="5.85629" fill="#2B2B2B" stroke="url(#paint35_linear_1258_12943)" stroke-width="1.97479" stroke-linecap="round" stroke-linejoin="round"/>
<rect x="858.237" y="396.395" width="17.5689" height="77.5958" rx="5.85629" fill="#2B2B2B" stroke="url(#paint36_linear_1258_12943)" stroke-width="1.97479" stroke-linecap="round" stroke-linejoin="round"/>
<rect x="1055.89" y="312.943" width="17.5689" height="73.2036" rx="5.85629" fill="#2B2B2B" stroke="url(#paint37_linear_1258_12943)" stroke-width="1.97479" stroke-linecap="round" stroke-linejoin="round"/>
<rect x="1077.85" y="226.563" width="17.5689" height="115.662" rx="5.85629" fill="#2B2B2B" stroke="url(#paint38_linear_1258_12943)" stroke-width="1.97479" stroke-linecap="round" stroke-linejoin="round"/>
<rect x="1033.92" y="353.937" width="17.5689" height="32.2096" rx="5.85629" fill="#2B2B2B" stroke="url(#paint39_linear_1258_12943)" stroke-width="1.97479" stroke-linecap="round" stroke-linejoin="round"/>
<rect x="1099.81" y="184.105" width="17.5689" height="42.4581" rx="5.85629" fill="#2B2B2B" stroke="url(#paint40_linear_1258_12943)" stroke-width="1.97479" stroke-linecap="round" stroke-linejoin="round"/>
<rect x="1121.77" y="213.386" width="17.5689" height="42.4581" rx="5.85629" fill="#2B2B2B" stroke="url(#paint41_linear_1258_12943)" stroke-width="1.97479" stroke-linecap="round" stroke-linejoin="round"/>
<rect x="1143.73" y="235.347" width="17.5689" height="80.5239" rx="5.85629" fill="#2B2B2B" stroke="url(#paint42_linear_1258_12943)" stroke-width="1.97479" stroke-linecap="round" stroke-linejoin="round"/>
<rect x="1165.69" y="266.093" width="17.5689" height="29.2814" rx="5.85629" fill="#2B2B2B" stroke="url(#paint43_linear_1258_12943)" stroke-width="1.97479" stroke-linecap="round" stroke-linejoin="round"/>
<rect x="1187.65" y="235.347" width="17.5689" height="60.0269" rx="5.85629" fill="#2B2B2B" stroke="url(#paint44_linear_1258_12943)" stroke-width="1.97479" stroke-linecap="round" stroke-linejoin="round"/>
<rect x="1209.61" y="260.237" width="17.5689" height="86.3802" rx="5.85629" fill="#2B2B2B" stroke="url(#paint45_linear_1258_12943)" stroke-width="1.97479" stroke-linecap="round" stroke-linejoin="round"/>
<rect x="1253.54" y="304.159" width="17.5689" height="36.6018" rx="5.85629" fill="#2B2B2B" stroke="url(#paint46_linear_1258_12943)" stroke-width="1.97479" stroke-linecap="round" stroke-linejoin="round"/>
<rect x="1275.5" y="244.132" width="17.5689" height="83.4521" rx="5.85629" fill="#2B2B2B" stroke="url(#paint47_linear_1258_12943)" stroke-width="1.97479" stroke-linecap="round" stroke-linejoin="round"/>
<rect x="1297.46" y="315.871" width="17.5689" height="61.491" rx="5.85629" fill="#2B2B2B" stroke="url(#paint48_linear_1258_12943)" stroke-width="1.97479" stroke-linecap="round" stroke-linejoin="round"/>
<rect x="1319.42" y="289.518" width="17.5689" height="27.8174" rx="5.85629" fill="#2B2B2B" stroke="url(#paint49_linear_1258_12943)" stroke-width="1.97479" stroke-linecap="round" stroke-linejoin="round"/>
<rect x="1341.38" y="249.988" width="17.5689" height="67.3473" rx="5.85629" fill="#2B2B2B" stroke="url(#paint50_linear_1258_12943)" stroke-width="1.97479" stroke-linecap="round" stroke-linejoin="round"/>
<rect x="1231.57" y="168" width="17.5689" height="159.584" rx="5.85629" fill="#2B2B2B" stroke="url(#paint51_linear_1258_12943)" stroke-width="1.97479" stroke-linecap="round" stroke-linejoin="round"/>
<rect x="968.042" y="286.59" width="17.5689" height="106.877" rx="5.85629" fill="#2B2B2B" stroke="url(#paint52_linear_1258_12943)" stroke-width="1.97479" stroke-linecap="round" stroke-linejoin="round"/>
<rect x="814.314" y="351.009" width="17.5689" height="106.877" rx="5.85629" fill="#2B2B2B" stroke="url(#paint53_linear_1258_12943)" stroke-width="1.97479" stroke-linecap="round" stroke-linejoin="round"/>
<rect x="1334.79" y="527.43" width="16.1048" height="52.7066" rx="5.12425" transform="rotate(-180 1334.79 527.43)" stroke="#909090" stroke-width="1.46407"/>
<rect x="1312.83" y="498.148" width="16.1048" height="33.6736" rx="5.12425" transform="rotate(-180 1312.83 498.148)" stroke="#909090" stroke-width="1.46407"/>
<rect x="1290.87" y="502.54" width="16.1048" height="38.0659" rx="5.12425" transform="rotate(-180 1290.87 502.54)" stroke="#909090" stroke-width="1.46407"/>
<rect x="1268.91" y="613.81" width="16.1048" height="134.695" rx="5.12425" transform="rotate(-180 1268.91 613.81)" stroke="#909090" stroke-width="1.46407"/>
<rect x="1224.99" y="523.037" width="16.1048" height="48.3144" rx="5.12425" transform="rotate(-180 1224.99 523.037)" stroke="#909090" stroke-width="1.46407"/>
<rect x="1203.03" y="552.319" width="16.1048" height="48.3144" rx="5.12425" transform="rotate(-180 1203.03 552.319)" stroke="#909090" stroke-width="1.46407"/>
<rect x="1159.1" y="564.031" width="16.1048" height="45.3862" rx="5.12425" transform="rotate(-180 1159.1 564.031)" stroke="#909090" stroke-width="1.46407"/>
<rect x="1137.14" y="618.202" width="16.1048" height="71.7395" rx="5.12425" transform="rotate(-180 1137.14 618.202)" stroke="#909090" stroke-width="1.46407"/>
<rect x="1181.06" y="537.678" width="16.1048" height="19.0329" rx="5.12425" transform="rotate(-180 1181.06 537.678)" stroke="#909090" stroke-width="1.46407"/>
<rect x="1115.18" y="646.019" width="16.1048" height="26.3533" rx="5.12425" transform="rotate(-180 1115.18 646.019)" stroke="#909090" stroke-width="1.46407"/>
<rect x="1093.22" y="626.987" width="16.1048" height="24.8892" rx="5.12425" transform="rotate(-180 1093.22 626.987)" stroke="#909090" stroke-width="1.46407"/>
<rect x="1071.26" y="613.81" width="16.1048" height="49.7784" rx="5.12425" transform="rotate(-180 1071.26 613.81)" stroke="#909090" stroke-width="1.46407"/>
<rect x="1049.3" y="593.313" width="16.1048" height="16.1048" rx="5.12425" transform="rotate(-180 1049.3 593.313)" stroke="#909090" stroke-width="1.46407"/>
<rect x="1027.34" y="613.81" width="16.1048" height="36.6018" rx="5.12425" transform="rotate(-180 1027.34 613.81)" stroke="#909090" stroke-width="1.46407"/>
<rect x="1005.38" y="597.705" width="16.1048" height="54.1707" rx="5.12425" transform="rotate(-180 1005.38 597.705)" stroke="#909090" stroke-width="1.46407"/>
<rect x="961.454" y="569.888" width="16.1048" height="21.9611" rx="5.12425" transform="rotate(-180 961.454 569.888)" stroke="#909090" stroke-width="1.46407"/>
<rect x="939.493" y="607.954" width="16.1048" height="52.7066" rx="5.12425" transform="rotate(-180 939.493 607.954)" stroke="#909090" stroke-width="1.46407"/>
<rect x="917.532" y="562.567" width="16.1048" height="38.0659" rx="5.12425" transform="rotate(-180 917.532 562.567)" stroke="#909090" stroke-width="1.46407"/>
<rect x="895.571" y="578.672" width="16.1048" height="16.1048" rx="5.12425" transform="rotate(-180 895.571 578.672)" stroke="#909090" stroke-width="1.46407"/>
<rect x="873.609" y="603.561" width="16.1048" height="40.994" rx="5.12425" transform="rotate(-180 873.609 603.561)" stroke="#909090" stroke-width="1.46407"/>
<rect x="983.415" y="656.268" width="16.1048" height="101.021" rx="5.12425" transform="rotate(-180 983.415 656.268)" stroke="#909090" stroke-width="1.46407"/>
<rect x="1246.95" y="580.136" width="16.1048" height="65.8832" rx="5.12425" transform="rotate(-180 1246.95 580.136)" stroke="#909090" stroke-width="1.46407"/>
<path d="M685.476 610.717C692.037 607.306 758.203 500.609 793.2 524.969C828.196 549.329 938.654 675.514 993.883 589.28C1049.11 503.045 1096.14 331.551 1143.71 386.604C1191.29 441.658 1220.81 561.022 1261.28 538.123C1301.74 515.225 1343.3 429.478 1362.44 460.171C1381.58 490.865 1394.16 589.28 1450.48 589.28C1506.8 589.28 1618.35 470.89 1638.59 368.578" stroke="url(#paint54_linear_1258_12943)" stroke-width="2.92365"/>
<circle cx="1121.77" cy="375.898" r="16.8368" fill="#46DA93" fill-opacity="0.49" stroke="url(#paint55_linear_1258_12943)" stroke-width="1.46407"/>
<circle cx="1353.09" cy="453.494" r="16.8368" fill="#46DA93" fill-opacity="0.49" stroke="url(#paint56_linear_1258_12943)" stroke-width="1.46407"/>
<circle cx="689.868" cy="608.686" r="16.8368" fill="#46DA93" fill-opacity="0.49" stroke="url(#paint57_linear_1258_12943)" stroke-width="1.46407"/>
</g>
<g filter="url(#filter1_b_1258_12943)">
<rect x="539" y="86" width="398" height="600" fill="url(#paint58_linear_1258_12943)"/>
</g>
<rect width="909" height="410" transform="matrix(1 0 0 -1 527 687)" fill="url(#paint59_linear_1258_12943)"/>
<rect width="1441" height="800" fill="url(#paint60_radial_1258_12943)"/>
<defs>
<filter id="filter0_f_1258_12943" x="649.377" y="144.091" width="1029.7" height="535.831" filterUnits="userSpaceOnUse" color-interpolation-filters="sRGB">
<feFlood flood-opacity="0" result="BackgroundImageFix"/>
<feBlend mode="normal" in="SourceGraphic" in2="BackgroundImageFix" result="shape"/>
<feGaussianBlur stdDeviation="11.4609" result="effect1_foregroundBlur_1258_12943"/>
</filter>
<filter id="filter1_b_1258_12943" x="533" y="80" width="410" height="612" filterUnits="userSpaceOnUse" color-interpolation-filters="sRGB">
<feFlood flood-opacity="0" result="BackgroundImageFix"/>
<feGaussianBlur in="BackgroundImageFix" stdDeviation="3"/>
<feComposite in2="SourceAlpha" operator="in" result="effect1_backgroundBlur_1258_12943"/>
<feBlend mode="normal" in="SourceGraphic" in2="effect1_backgroundBlur_1258_12943" result="shape"/>
</filter>
<linearGradient id="paint0_linear_1258_12943" x1="888.981" y1="370.042" x2="888.981" y2="460.712" gradientUnits="userSpaceOnUse">
<stop stop-color="#5F5F5F"/>
<stop offset="1" stop-color="#2F2F2F"/>
</linearGradient>
<linearGradient id="paint1_linear_1258_12943" x1="910.943" y1="416.892" x2="910.943" y2="474.734" gradientUnits="userSpaceOnUse">
<stop stop-color="#5F5F5F"/>
<stop offset="1" stop-color="#2F2F2F"/>
</linearGradient>
<linearGradient id="paint2_linear_1258_12943" x1="932.904" y1="409.572" x2="932.904" y2="475.23" gradientUnits="userSpaceOnUse">
<stop stop-color="#5F5F5F"/>
<stop offset="1" stop-color="#2F2F2F"/>
</linearGradient>
<linearGradient id="paint3_linear_1258_12943" x1="954.865" y1="235.347" x2="954.865" y2="463.587" gradientUnits="userSpaceOnUse">
<stop stop-color="#5F5F5F"/>
<stop offset="1" stop-color="#2F2F2F"/>
</linearGradient>
<linearGradient id="paint4_linear_1258_12943" x1="998.787" y1="377.362" x2="998.787" y2="460.216" gradientUnits="userSpaceOnUse">
<stop stop-color="#5F5F5F"/>
<stop offset="1" stop-color="#2F2F2F"/>
</linearGradient>
<linearGradient id="paint5_linear_1258_12943" x1="845.06" y1="441.781" x2="845.06" y2="524.635" gradientUnits="userSpaceOnUse">
<stop stop-color="#5F5F5F"/>
<stop offset="1" stop-color="#2F2F2F"/>
</linearGradient>
<linearGradient id="paint6_linear_1258_12943" x1="1020.75" y1="331.976" x2="1020.75" y2="414.83" gradientUnits="userSpaceOnUse">
<stop stop-color="#5F5F5F"/>
<stop offset="1" stop-color="#2F2F2F"/>
</linearGradient>
<linearGradient id="paint7_linear_1258_12943" x1="867.021" y1="396.395" x2="867.021" y2="479.249" gradientUnits="userSpaceOnUse">
<stop stop-color="#5F5F5F"/>
<stop offset="1" stop-color="#2F2F2F"/>
</linearGradient>
<linearGradient id="paint8_linear_1258_12943" x1="1064.67" y1="312.943" x2="1064.67" y2="391.107" gradientUnits="userSpaceOnUse">
<stop stop-color="#5F5F5F"/>
<stop offset="1" stop-color="#2F2F2F"/>
</linearGradient>
<linearGradient id="paint9_linear_1258_12943" x1="1086.63" y1="226.563" x2="1086.63" y2="350.062" gradientUnits="userSpaceOnUse">
<stop stop-color="#5F5F5F"/>
<stop offset="1" stop-color="#2F2F2F"/>
</linearGradient>
<linearGradient id="paint10_linear_1258_12943" x1="1042.71" y1="353.937" x2="1042.71" y2="388.329" gradientUnits="userSpaceOnUse">
<stop stop-color="#5F5F5F"/>
<stop offset="1" stop-color="#2F2F2F"/>
</linearGradient>
<linearGradient id="paint11_linear_1258_12943" x1="1108.59" y1="184.105" x2="1108.59" y2="229.44" gradientUnits="userSpaceOnUse">
<stop stop-color="#5F5F5F"/>
<stop offset="1" stop-color="#2F2F2F"/>
</linearGradient>
<linearGradient id="paint12_linear_1258_12943" x1="1130.55" y1="213.386" x2="1130.55" y2="258.721" gradientUnits="userSpaceOnUse">
<stop stop-color="#5F5F5F"/>
<stop offset="1" stop-color="#2F2F2F"/>
</linearGradient>
<linearGradient id="paint13_linear_1258_12943" x1="1152.51" y1="235.347" x2="1152.51" y2="321.328" gradientUnits="userSpaceOnUse">
<stop stop-color="#5F5F5F"/>
<stop offset="1" stop-color="#2F2F2F"/>
</linearGradient>
<linearGradient id="paint14_linear_1258_12943" x1="1174.48" y1="266.093" x2="1174.48" y2="297.359" gradientUnits="userSpaceOnUse">
<stop stop-color="#5F5F5F"/>
<stop offset="1" stop-color="#2F2F2F"/>
</linearGradient>
<linearGradient id="paint15_linear_1258_12943" x1="1196.44" y1="235.347" x2="1196.44" y2="299.442" gradientUnits="userSpaceOnUse">
<stop stop-color="#5F5F5F"/>
<stop offset="1" stop-color="#2F2F2F"/>
</linearGradient>
<linearGradient id="paint16_linear_1258_12943" x1="1218.4" y1="260.237" x2="1218.4" y2="352.47" gradientUnits="userSpaceOnUse">
<stop stop-color="#5F5F5F"/>
<stop offset="1" stop-color="#2F2F2F"/>
</linearGradient>
<linearGradient id="paint17_linear_1258_12943" x1="1262.32" y1="304.159" x2="1262.32" y2="343.241" gradientUnits="userSpaceOnUse">
<stop stop-color="#5F5F5F"/>
<stop offset="1" stop-color="#2F2F2F"/>
</linearGradient>
<linearGradient id="paint18_linear_1258_12943" x1="1284.28" y1="244.132" x2="1284.28" y2="333.239" gradientUnits="userSpaceOnUse">
<stop stop-color="#5F5F5F"/>
<stop offset="1" stop-color="#2F2F2F"/>
</linearGradient>
<linearGradient id="paint19_linear_1258_12943" x1="1306.24" y1="315.871" x2="1306.24" y2="381.529" gradientUnits="userSpaceOnUse">
<stop stop-color="#5F5F5F"/>
<stop offset="1" stop-color="#2F2F2F"/>
</linearGradient>
<linearGradient id="paint20_linear_1258_12943" x1="1328.2" y1="289.518" x2="1328.2" y2="319.22" gradientUnits="userSpaceOnUse">
<stop stop-color="#5F5F5F"/>
<stop offset="1" stop-color="#2F2F2F"/>
</linearGradient>
<linearGradient id="paint21_linear_1258_12943" x1="1350.16" y1="249.988" x2="1350.16" y2="321.899" gradientUnits="userSpaceOnUse">
<stop stop-color="#5F5F5F"/>
<stop offset="1" stop-color="#2F2F2F"/>
</linearGradient>
<linearGradient id="paint22_linear_1258_12943" x1="1240.36" y1="168" x2="1240.36" y2="338.398" gradientUnits="userSpaceOnUse">
<stop stop-color="#5F5F5F"/>
<stop offset="1" stop-color="#2F2F2F"/>
</linearGradient>
<linearGradient id="paint23_linear_1258_12943" x1="976.826" y1="286.59" x2="976.826" y2="400.71" gradientUnits="userSpaceOnUse">
<stop stop-color="#5F5F5F"/>
<stop offset="1" stop-color="#2F2F2F"/>
</linearGradient>
<linearGradient id="paint24_linear_1258_12943" x1="823.098" y1="351.009" x2="823.098" y2="465.129" gradientUnits="userSpaceOnUse">
<stop stop-color="#5F5F5F"/>
<stop offset="1" stop-color="#2F2F2F"/>
</linearGradient>
<linearGradient id="paint25_linear_1258_12943" x1="1312.83" y1="270.485" x2="1271.84" y2="618.934" gradientUnits="userSpaceOnUse">
<stop stop-color="white"/>
<stop offset="1" stop-color="white" stop-opacity="0"/>
</linearGradient>
<linearGradient id="paint26_linear_1258_12943" x1="1135.26" y1="360.208" x2="1127.08" y2="399.933" gradientUnits="userSpaceOnUse">
<stop stop-color="#46DA93"/>
<stop offset="1" stop-color="#46DA93" stop-opacity="0"/>
</linearGradient>
<linearGradient id="paint27_linear_1258_12943" x1="1366.58" y1="437.804" x2="1358.41" y2="477.529" gradientUnits="userSpaceOnUse">
<stop stop-color="#46DA93"/>
<stop offset="1" stop-color="#46DA93" stop-opacity="0"/>
</linearGradient>
<linearGradient id="paint28_linear_1258_12943" x1="703.358" y1="592.995" x2="695.181" y2="632.721" gradientUnits="userSpaceOnUse">
<stop stop-color="#46DA93"/>
<stop offset="1" stop-color="#46DA93" stop-opacity="0"/>
</linearGradient>
<linearGradient id="paint29_linear_1258_12943" x1="888.981" y1="370.042" x2="888.981" y2="460.712" gradientUnits="userSpaceOnUse">
<stop stop-color="#5F5F5F"/>
<stop offset="1" stop-color="#2F2F2F"/>
</linearGradient>
<linearGradient id="paint30_linear_1258_12943" x1="910.943" y1="416.892" x2="910.943" y2="474.734" gradientUnits="userSpaceOnUse">
<stop stop-color="#5F5F5F"/>
<stop offset="1" stop-color="#2F2F2F"/>
</linearGradient>
<linearGradient id="paint31_linear_1258_12943" x1="932.904" y1="409.572" x2="932.904" y2="475.23" gradientUnits="userSpaceOnUse">
<stop stop-color="#5F5F5F"/>
<stop offset="1" stop-color="#2F2F2F"/>
</linearGradient>
<linearGradient id="paint32_linear_1258_12943" x1="954.865" y1="235.347" x2="954.865" y2="463.587" gradientUnits="userSpaceOnUse">
<stop stop-color="#5F5F5F"/>
<stop offset="1" stop-color="#2F2F2F"/>
</linearGradient>
<linearGradient id="paint33_linear_1258_12943" x1="998.787" y1="377.362" x2="998.787" y2="460.216" gradientUnits="userSpaceOnUse">
<stop stop-color="#5F5F5F"/>
<stop offset="1" stop-color="#2F2F2F"/>
</linearGradient>
<linearGradient id="paint34_linear_1258_12943" x1="845.06" y1="441.781" x2="845.06" y2="524.635" gradientUnits="userSpaceOnUse">
<stop stop-color="#5F5F5F"/>
<stop offset="1" stop-color="#2F2F2F"/>
</linearGradient>
<linearGradient id="paint35_linear_1258_12943" x1="1020.75" y1="331.976" x2="1020.75" y2="414.83" gradientUnits="userSpaceOnUse">
<stop stop-color="#5F5F5F"/>
<stop offset="1" stop-color="#2F2F2F"/>
</linearGradient>
<linearGradient id="paint36_linear_1258_12943" x1="867.021" y1="396.395" x2="867.021" y2="479.249" gradientUnits="userSpaceOnUse">
<stop stop-color="#5F5F5F"/>
<stop offset="1" stop-color="#2F2F2F"/>
</linearGradient>
<linearGradient id="paint37_linear_1258_12943" x1="1064.67" y1="312.943" x2="1064.67" y2="391.107" gradientUnits="userSpaceOnUse">
<stop stop-color="#5F5F5F"/>
<stop offset="1" stop-color="#2F2F2F"/>
</linearGradient>
<linearGradient id="paint38_linear_1258_12943" x1="1086.63" y1="226.563" x2="1086.63" y2="350.062" gradientUnits="userSpaceOnUse">
<stop stop-color="#5F5F5F"/>
<stop offset="1" stop-color="#2F2F2F"/>
</linearGradient>
<linearGradient id="paint39_linear_1258_12943" x1="1042.71" y1="353.937" x2="1042.71" y2="388.329" gradientUnits="userSpaceOnUse">
<stop stop-color="#5F5F5F"/>
<stop offset="1" stop-color="#2F2F2F"/>
</linearGradient>
<linearGradient id="paint40_linear_1258_12943" x1="1108.59" y1="184.105" x2="1108.59" y2="229.44" gradientUnits="userSpaceOnUse">
<stop stop-color="#5F5F5F"/>
<stop offset="1" stop-color="#2F2F2F"/>
</linearGradient>
<linearGradient id="paint41_linear_1258_12943" x1="1130.55" y1="213.386" x2="1130.55" y2="258.721" gradientUnits="userSpaceOnUse">
<stop stop-color="#5F5F5F"/>
<stop offset="1" stop-color="#2F2F2F"/>
</linearGradient>
<linearGradient id="paint42_linear_1258_12943" x1="1152.51" y1="235.347" x2="1152.51" y2="321.328" gradientUnits="userSpaceOnUse">
<stop stop-color="#5F5F5F"/>
<stop offset="1" stop-color="#2F2F2F"/>
</linearGradient>
<linearGradient id="paint43_linear_1258_12943" x1="1174.48" y1="266.093" x2="1174.48" y2="297.359" gradientUnits="userSpaceOnUse">
<stop stop-color="#5F5F5F"/>
<stop offset="1" stop-color="#2F2F2F"/>
</linearGradient>
<linearGradient id="paint44_linear_1258_12943" x1="1196.44" y1="235.347" x2="1196.44" y2="299.442" gradientUnits="userSpaceOnUse">
<stop stop-color="#5F5F5F"/>
<stop offset="1" stop-color="#2F2F2F"/>
</linearGradient>
<linearGradient id="paint45_linear_1258_12943" x1="1218.4" y1="260.237" x2="1218.4" y2="352.47" gradientUnits="userSpaceOnUse">
<stop stop-color="#5F5F5F"/>
<stop offset="1" stop-color="#2F2F2F"/>
</linearGradient>
<linearGradient id="paint46_linear_1258_12943" x1="1262.32" y1="304.159" x2="1262.32" y2="343.241" gradientUnits="userSpaceOnUse">
<stop stop-color="#5F5F5F"/>
<stop offset="1" stop-color="#2F2F2F"/>
</linearGradient>
<linearGradient id="paint47_linear_1258_12943" x1="1284.28" y1="244.132" x2="1284.28" y2="333.239" gradientUnits="userSpaceOnUse">
<stop stop-color="#5F5F5F"/>
<stop offset="1" stop-color="#2F2F2F"/>
</linearGradient>
<linearGradient id="paint48_linear_1258_12943" x1="1306.24" y1="315.871" x2="1306.24" y2="381.529" gradientUnits="userSpaceOnUse">
<stop stop-color="#5F5F5F"/>
<stop offset="1" stop-color="#2F2F2F"/>
</linearGradient>
<linearGradient id="paint49_linear_1258_12943" x1="1328.2" y1="289.518" x2="1328.2" y2="319.22" gradientUnits="userSpaceOnUse">
<stop stop-color="#5F5F5F"/>
<stop offset="1" stop-color="#2F2F2F"/>
</linearGradient>
<linearGradient id="paint50_linear_1258_12943" x1="1350.16" y1="249.988" x2="1350.16" y2="321.899" gradientUnits="userSpaceOnUse">
<stop stop-color="#5F5F5F"/>
<stop offset="1" stop-color="#2F2F2F"/>
</linearGradient>
<linearGradient id="paint51_linear_1258_12943" x1="1240.36" y1="168" x2="1240.36" y2="338.398" gradientUnits="userSpaceOnUse">
<stop stop-color="#5F5F5F"/>
<stop offset="1" stop-color="#2F2F2F"/>
</linearGradient>
<linearGradient id="paint52_linear_1258_12943" x1="976.826" y1="286.59" x2="976.826" y2="400.71" gradientUnits="userSpaceOnUse">
<stop stop-color="#5F5F5F"/>
<stop offset="1" stop-color="#2F2F2F"/>
</linearGradient>
<linearGradient id="paint53_linear_1258_12943" x1="823.098" y1="351.009" x2="823.098" y2="465.129" gradientUnits="userSpaceOnUse">
<stop stop-color="#5F5F5F"/>
<stop offset="1" stop-color="#2F2F2F"/>
</linearGradient>
<linearGradient id="paint54_linear_1258_12943" x1="1312.83" y1="270.485" x2="1271.84" y2="618.934" gradientUnits="userSpaceOnUse">
<stop stop-color="white"/>
<stop offset="1" stop-color="white" stop-opacity="0"/>
</linearGradient>
<linearGradient id="paint55_linear_1258_12943" x1="1135.26" y1="360.208" x2="1127.08" y2="399.933" gradientUnits="userSpaceOnUse">
<stop stop-color="#46DA93"/>
<stop offset="1" stop-color="#46DA93" stop-opacity="0"/>
</linearGradient>
<linearGradient id="paint56_linear_1258_12943" x1="1366.58" y1="437.804" x2="1358.41" y2="477.529" gradientUnits="userSpaceOnUse">
<stop stop-color="#46DA93"/>
<stop offset="1" stop-color="#46DA93" stop-opacity="0"/>
</linearGradient>
<linearGradient id="paint57_linear_1258_12943" x1="703.358" y1="592.995" x2="695.181" y2="632.721" gradientUnits="userSpaceOnUse">
<stop stop-color="#46DA93"/>
<stop offset="1" stop-color="#46DA93" stop-opacity="0"/>
</linearGradient>
<linearGradient id="paint58_linear_1258_12943" x1="570.285" y1="392.09" x2="913.636" y2="420.595" gradientUnits="userSpaceOnUse">
<stop/>
<stop offset="1" stop-opacity="0"/>
</linearGradient>
<linearGradient id="paint59_linear_1258_12943" x1="454.5" y1="0" x2="454.5" y2="410" gradientUnits="userSpaceOnUse">
<stop/>
<stop offset="1" stop-opacity="0"/>
</linearGradient>
<radialGradient id="paint60_radial_1258_12943" cx="0" cy="0" r="1" gradientUnits="userSpaceOnUse" gradientTransform="translate(594.369 453.418) rotate(1.6198) scale(787.404 783.34)">
<stop offset="0.401042" stop-opacity="0"/>
<stop offset="1"/>
</radialGradient>
</defs>
</svg>
