<svg width="800" height="800" viewBox="0 0 800 800" fill="none" xmlns="http://www.w3.org/2000/svg">
    <g clip-path="url(#clip0_2403_17561)">
        <mask id="mask0_2403_17561" style="mask-type:alpha" maskUnits="userSpaceOnUse" x="-449" y="-140" width="1294" height="992">
            <rect x="-449" y="-140" width="1294" height="992" fill="url(#paint0_radial_2403_17561)"/>
        </mask>
        <g mask="url(#mask0_2403_17561)">
            <path opacity="0.2" d="M347.46 83.4402L-3.49457 241.17C-3.49457 241.17 -39.8003 787.16 347.46 787.16C734.721 787.16 698.415 241.17 698.415 241.17L347.46 83.4402Z" fill="#2B2B2B" stroke="url(#paint1_linear_2403_17561)" stroke-opacity="0.75" stroke-width="7.64913" stroke-linecap="round" stroke-linejoin="round"/>
            <path opacity="0.3" d="M347.459 159.932L72.7994 283.373C72.7994 283.373 44.3862 710.669 347.459 710.669C650.533 710.669 622.12 283.373 622.12 283.373L347.459 159.932Z" fill="#424242" stroke="url(#paint2_linear_2403_17561)" stroke-opacity="0.75" stroke-width="7.64913" stroke-linecap="round" stroke-linejoin="round"/>
            <path opacity="0.5" d="M347.436 236.582L148.718 325.662C148.718 325.662 128.161 634.018 347.436 634.018C566.711 634.018 546.154 325.662 546.154 325.662L347.436 236.582Z" fill="#424242" stroke="url(#paint3_linear_2403_17561)" stroke-width="7.64913" stroke-linecap="round" stroke-linejoin="round"/>
            <g opacity="0.6">
                <g filter="url(#filter0_i_2403_17561)">
                    <path d="M347.451 319.766L231.917 371.557C231.917 371.557 219.965 550.834 347.451 550.834C474.936 550.834 462.984 371.557 462.984 371.557L347.451 319.766Z" fill="#BDBDBD"/>
                    <path fill-rule="evenodd" clip-rule="evenodd" d="M342.562 308.86C345.672 307.466 349.229 307.466 352.34 308.86L467.873 360.651C471.909 362.46 474.615 366.35 474.91 370.762L462.984 371.557C474.91 370.762 474.91 370.767 474.91 370.773L474.914 370.828L474.922 370.959L474.948 371.413C474.97 371.799 474.998 372.351 475.028 373.058C475.089 374.471 475.158 376.505 475.199 379.071C475.281 384.2 475.247 391.476 474.796 400.188C473.896 417.544 471.319 440.931 464.507 464.513C457.718 488.011 446.489 512.521 427.737 531.273C408.674 550.336 382.472 562.786 347.451 562.786C312.43 562.786 286.227 550.336 267.164 531.273C248.412 512.521 237.183 488.011 230.395 464.513C223.582 440.931 221.006 417.544 220.106 400.188C219.654 391.476 219.621 384.2 219.702 379.071C219.743 376.505 219.812 374.471 219.873 373.058C219.904 372.351 219.932 371.799 219.953 371.413L219.979 370.959L219.987 370.828L219.99 370.787L219.991 370.773C219.991 370.767 219.992 370.762 231.917 371.557L219.992 370.762C220.286 366.35 222.993 362.46 227.028 360.651L342.562 308.86ZM243.603 379.416C243.603 379.428 243.603 379.439 243.603 379.45C243.529 384.126 243.558 390.856 243.977 398.95C244.82 415.209 247.224 436.641 253.359 457.878C259.518 479.199 269.205 499.508 284.067 514.371C298.618 528.922 318.729 538.882 347.451 538.882C376.172 538.882 396.283 528.922 410.834 514.371C425.697 499.508 435.383 479.199 441.542 457.878C447.678 436.641 450.081 415.209 450.924 398.95C451.344 390.856 451.373 384.126 451.299 379.45C451.298 379.439 451.298 379.428 451.298 379.416L347.451 332.864L243.603 379.416Z" fill="#BDBDBD"/>
                </g>
            </g>
            <g style="mix-blend-mode:screen" filter="url(#filter1_f_2403_17561)">
                <path opacity="0.4" d="M347.46 83.4402L-3.49457 241.17C-3.49457 241.17 -39.8003 787.16 347.46 787.16C734.721 787.16 698.415 241.17 698.415 241.17L347.46 83.4402Z" fill="#2B2B2B" stroke="url(#paint4_linear_2403_17561)" stroke-opacity="0.75" stroke-width="7.64913" stroke-linecap="round" stroke-linejoin="round"/>
                <path opacity="0.5" d="M347.459 159.932L72.7994 283.373C72.7994 283.373 44.3862 710.669 347.459 710.669C650.533 710.669 622.12 283.373 622.12 283.373L347.459 159.932Z" fill="#424242" stroke="url(#paint5_linear_2403_17561)" stroke-opacity="0.75" stroke-width="7.64913" stroke-linecap="round" stroke-linejoin="round"/>
                <path d="M347.436 236.582L148.718 325.662C148.718 325.662 128.161 634.018 347.436 634.018C566.711 634.018 546.154 325.662 546.154 325.662L347.436 236.582Z" fill="#424242" stroke="url(#paint6_linear_2403_17561)" stroke-width="7.64913" stroke-linecap="round" stroke-linejoin="round"/>
                <g filter="url(#filter2_i_2403_17561)">
                    <path d="M347.451 319.766L231.917 371.557C231.917 371.557 219.965 550.834 347.451 550.834C474.936 550.834 462.984 371.557 462.984 371.557L347.451 319.766Z" fill="#BDBDBD"/>
                    <path fill-rule="evenodd" clip-rule="evenodd" d="M342.562 308.86C345.672 307.466 349.229 307.466 352.34 308.86L467.873 360.651C471.909 362.46 474.615 366.35 474.91 370.762L462.984 371.557C474.91 370.762 474.91 370.767 474.91 370.773L474.914 370.828L474.922 370.959L474.948 371.413C474.97 371.799 474.998 372.351 475.028 373.058C475.089 374.471 475.158 376.505 475.199 379.071C475.281 384.2 475.247 391.476 474.796 400.188C473.896 417.544 471.319 440.931 464.507 464.513C457.718 488.011 446.489 512.521 427.737 531.273C408.674 550.336 382.472 562.786 347.451 562.786C312.43 562.786 286.227 550.336 267.164 531.273C248.412 512.521 237.183 488.011 230.395 464.513C223.582 440.931 221.006 417.544 220.106 400.188C219.654 391.476 219.621 384.2 219.702 379.071C219.743 376.505 219.812 374.471 219.873 373.058C219.904 372.351 219.932 371.799 219.953 371.413L219.979 370.959L219.987 370.828L219.99 370.787L219.991 370.773C219.991 370.767 219.992 370.762 231.917 371.557L219.992 370.762C220.286 366.35 222.993 362.46 227.028 360.651L342.562 308.86ZM243.603 379.416C243.603 379.428 243.603 379.439 243.603 379.45C243.529 384.126 243.558 390.856 243.977 398.95C244.82 415.209 247.224 436.641 253.359 457.878C259.518 479.199 269.205 499.508 284.067 514.371C298.618 528.922 318.729 538.882 347.451 538.882C376.172 538.882 396.283 528.922 410.834 514.371C425.697 499.508 435.383 479.199 441.542 457.878C447.678 436.641 450.081 415.209 450.924 398.95C451.344 390.856 451.373 384.126 451.299 379.45C451.298 379.439 451.298 379.428 451.298 379.416L347.451 332.864L243.603 379.416Z" fill="#BDBDBD"/>
                </g>
            </g>
            <g opacity="0.42" filter="url(#filter3_f_2403_17561)">
                <path d="M561.837 346.794C662.899 353.531 869.618 283.706 880.949 290.444C853.999 101.488 231.393 -46.7375 220.368 -62.3562C209.343 -77.975 -211.444 -10.6 -190.926 290.444C-170.407 591.488 179.637 245.731 267.53 290.444C355.424 335.156 460.774 340.056 561.837 346.794Z" fill="url(#paint7_linear_2403_17561)"/>
            </g>
        </g>
        <mask id="mask1_2403_17561" style="mask-type:alpha" maskUnits="userSpaceOnUse" x="256" y="385" width="190" height="114">
            <g clip-path="url(#clip1_2403_17561)">
                <path d="M324.704 495.694L309.392 487.349L305.692 498.388L324.675 495.701C324.617 495.701 324.588 495.701 324.704 495.694Z" fill="#F0F4F7"/>
                <path d="M324.703 495.694L324.674 495.701C324.746 495.701 324.867 495.694 324.703 495.694Z" fill="#F0F4F7"/>
                <path d="M377.412 490.321L389.738 486.692L394.368 472.081L382.987 472.86L377.412 490.321Z" fill="#F0F4F7"/>
                <path d="M406.744 396.712L397.325 390.603L392.052 407.372L402.417 410.487L406.744 396.712Z" fill="#F0F4F7"/>
                <path d="M343.188 392.796C343.188 392.796 349.571 394.754 352.089 395.469L361.162 398.155L361.32 385.688L345.367 388.86L343.188 392.796Z" fill="#F0F4F7"/>
                <path d="M279.849 439.365L291.05 439.394L295.039 426.884L284.855 424.183C283.773 427.62 280.953 435.929 279.849 439.365Z" fill="#F0F4F7"/>
                <path d="M259.005 427.741L267.386 436.472L272.211 420.982L261.926 418.253L259.005 427.741Z" fill="#F0F4F7"/>
                <path d="M436.518 477.732C436.345 473.345 435.126 471.909 432.537 469.216L419.035 470.116C422.8 472.481 425.108 475.41 425.584 479.34C426.11 483.655 421.422 488.642 416.886 488.642C414.354 488.642 413.092 486.656 413.092 484.377C413.164 482.676 413.763 480.469 414.657 478.997H414.585H403.204C402.309 481.283 401.566 483.862 401.566 486.292C401.566 494.615 408.93 496.751 415.919 496.751C423.204 496.751 429.233 495.351 433.027 488.642C434.736 485.613 436.662 481.269 436.518 477.732Z" fill="#F0F4F7"/>
                <path d="M294.044 386.816L258.941 386.845L256.2 395.469L269.067 395.454L262.706 415.502L272.998 418.231L280.145 395.447L291.303 395.433L294.044 386.816Z" fill="#F0F4F7"/>
                <path d="M297.874 417.681C299.136 417.603 300.405 417.603 301.667 417.603C303.752 417.596 306.875 417.746 306.875 420.618C306.882 422.604 306.139 425.112 305.548 427.027C304.437 430.935 303.103 434.836 302.879 438.815L314.405 438.801C314.102 432.392 318.112 426.791 318.105 420.453C318.105 416.181 314.83 414.488 311.036 413.823L312.147 413.673C320.405 412.559 325.007 406.15 325 398.119C324.992 389.217 317.477 386.716 309.817 386.724L296.583 386.738C292.818 398.312 289.248 409.951 285.591 421.575L295.768 424.269L297.874 417.681ZM304.992 394.904L308.714 394.897C311.469 394.897 314.217 395.554 314.224 398.798C314.231 402.778 311.332 409.486 306.572 409.486L300.47 409.494L304.992 394.904Z" fill="#F0F4F7"/>
                <path d="M329.059 438.944L334.995 427.812L349.203 427.798L348.771 438.994L359.928 438.987L360.816 400.87L351.23 397.991C350.357 405.142 349.867 412.373 349.867 419.546H349.795L339.084 419.553C342.936 412.337 346.629 405.064 349.954 397.605L342.272 395.297L317.454 438.951L329.059 438.944Z" fill="#F0F4F7"/>
                <path d="M408.05 438.872L410.87 430.391L395.918 430.413L401.458 413.08L391.093 409.965L381.869 438.894L408.05 438.872Z" fill="#F0F4F7"/>
                <path d="M338.796 442.209H324.148L310.394 484.834L327.898 494.279C338.378 493.886 345.72 486.206 345.72 475.66C345.72 471.609 343.189 468.444 339.251 467.337C346.99 465.572 351.966 460.635 351.966 452.533C351.959 444.638 345.785 442.209 338.796 442.209ZM332.774 483.098C330.689 486.192 328.461 486.413 324.963 486.413H320.426L325.41 471.095C329.052 471.238 335.522 470.359 335.522 475.66C335.522 478.011 334.115 481.183 332.774 483.098ZM331.88 463.643H327.711L332.096 450.161C335.37 450.311 341.544 449.282 341.544 454.291C341.623 460.185 337.83 463.643 331.88 463.643Z" fill="#F0F4F7"/>
                <path d="M374.275 404.971L363.16 441.781L353.344 471.638L365.129 470.738L373.64 444.174H373.654L385.151 408.193C383.55 407.75 377.174 405.721 374.275 404.971Z" fill="#F0F4F7"/>
                <path d="M379.785 442.288L377.03 450.897H389.904L383.882 470.066L395.119 469.302L400.982 450.897H412.133L414.888 442.288H379.785Z" fill="#F0F4F7"/>
                <path d="M430.806 441.766C419.28 441.766 412.436 449.718 412.436 460.771C412.45 462.378 413.9 466.337 416.864 467.658L430.727 466.729C428.368 464.758 424.199 460.106 424.199 457.634C424.199 454.241 426.111 449.804 430.056 449.804C432.732 449.804 434.369 450.54 434.369 453.412C434.369 455.255 433.474 456.949 432.955 458.72H443.665C444.336 457.17 445.375 453.633 445.375 452.011C445.382 443.974 437.499 441.766 430.806 441.766Z" fill="#F0F4F7"/>
                <path d="M303.716 442.516C298.472 442.516 297.722 446.353 296.424 450.425C295.991 451.89 295.169 453.676 295.169 455.212C295.169 458.17 297.816 458.735 300.276 458.735C303.283 458.756 304.884 457.756 305.952 454.955C306.68 453.041 308.577 447.775 308.577 445.924C308.577 443.302 305.908 442.516 303.716 442.516ZM305.18 446.282C305.18 446.939 304.43 449.082 304.177 449.833L303.016 453.419C302.562 454.777 302.014 456.334 300.283 456.334C299.302 456.334 298.667 455.77 298.667 454.755C298.667 453.441 299.691 451.004 300.124 449.647C300.557 448.296 301.127 445.603 302.634 445.081C302.973 444.967 303.341 444.924 303.709 444.924C304.394 444.924 305.216 445.531 305.216 446.26L305.18 446.282Z" fill="#F0F4F7"/>
                <path d="M317.058 451.661L317.851 449.061H313.293L314.526 445.181H319.315L320.159 442.58H311.858L306.867 458.527H310.358L312.521 451.661H317.058Z" fill="#F0F4F7"/>
            </g>
        </mask>
        <g mask="url(#mask1_2403_17561)">
            <rect x="254.013" y="376.5" width="198.45" height="128.625" fill="url(#paint8_radial_2403_17561)"/>
        </g>
        <g style="mix-blend-mode:screen" filter="url(#filter4_f_2403_17561)">
            <path d="M324.704 495.694L309.392 487.349L305.692 498.388L324.675 495.701C324.617 495.701 324.588 495.701 324.704 495.694Z" fill="#F0F4F7"/>
            <path d="M324.703 495.694L324.674 495.701C324.746 495.701 324.867 495.694 324.703 495.694Z" fill="#F0F4F7"/>
            <path d="M377.412 490.321L389.738 486.692L394.368 472.081L382.987 472.86L377.412 490.321Z" fill="#F0F4F7"/>
            <path d="M406.744 396.712L397.325 390.603L392.052 407.372L402.417 410.487L406.744 396.712Z" fill="#F0F4F7"/>
            <path d="M343.188 392.796C343.188 392.796 349.572 394.754 352.089 395.469L361.162 398.155L361.32 385.688L345.367 388.86L343.188 392.796Z" fill="#F0F4F7"/>
            <path d="M279.849 439.365L291.05 439.394L295.039 426.884L284.855 424.183C283.773 427.619 280.953 435.929 279.849 439.365Z" fill="#F0F4F7"/>
            <path d="M259.005 427.741L267.386 436.472L272.211 420.982L261.926 418.253L259.005 427.741Z" fill="#F0F4F7"/>
            <path d="M436.518 477.732C436.345 473.345 435.126 471.909 432.537 469.216L419.035 470.116C422.8 472.481 425.108 475.41 425.584 479.34C426.11 483.655 421.422 488.642 416.886 488.642C414.354 488.642 413.092 486.656 413.092 484.377C413.164 482.676 413.763 480.469 414.657 478.997H414.585H403.204C402.309 481.283 401.566 483.862 401.566 486.291C401.566 494.615 408.93 496.751 415.919 496.751C423.204 496.751 429.233 495.351 433.027 488.642C434.736 485.613 436.662 481.269 436.518 477.732Z" fill="#F0F4F7"/>
            <path d="M294.044 386.816L258.941 386.845L256.2 395.469L269.067 395.454L262.706 415.502L272.998 418.231L280.145 395.447L291.303 395.433L294.044 386.816Z" fill="#F0F4F7"/>
            <path d="M297.874 417.681C299.136 417.603 300.405 417.603 301.667 417.603C303.752 417.596 306.875 417.746 306.875 420.618C306.882 422.604 306.139 425.112 305.548 427.027C304.437 430.935 303.103 434.836 302.879 438.815L314.405 438.801C314.102 432.392 318.112 426.791 318.105 420.453C318.105 416.181 314.83 414.488 311.036 413.823L312.147 413.673C320.405 412.559 325.007 406.15 325 398.119C324.992 389.217 317.477 386.716 309.817 386.723L296.583 386.738C292.818 398.312 289.248 409.951 285.591 421.575L295.768 424.269L297.874 417.681ZM304.992 394.904L308.714 394.897C311.469 394.897 314.217 395.554 314.224 398.798C314.231 402.778 311.332 409.486 306.572 409.486L300.47 409.494L304.992 394.904Z" fill="#F0F4F7"/>
            <path d="M329.059 438.944L334.995 427.812L349.203 427.798L348.771 438.994L359.928 438.987L360.816 400.87L351.23 397.991C350.357 405.142 349.867 412.373 349.867 419.546H349.795L339.084 419.553C342.936 412.337 346.629 405.064 349.954 397.605L342.272 395.297L317.454 438.951L329.059 438.944Z" fill="#F0F4F7"/>
            <path d="M408.05 438.872L410.87 430.391L395.918 430.413L401.458 413.08L391.093 409.965L381.869 438.894L408.05 438.872Z" fill="#F0F4F7"/>
            <path d="M338.796 442.209H324.148L310.394 484.834L327.898 494.279C338.378 493.886 345.72 486.206 345.72 475.66C345.72 471.609 343.189 468.444 339.251 467.337C346.99 465.572 351.966 460.635 351.966 452.533C351.959 444.638 345.785 442.209 338.796 442.209ZM332.774 483.098C330.689 486.192 328.461 486.413 324.963 486.413H320.426L325.41 471.095C329.052 471.238 335.522 470.359 335.522 475.66C335.522 478.011 334.115 481.183 332.774 483.098ZM331.88 463.643H327.711L332.096 450.161C335.37 450.311 341.544 449.282 341.544 454.291C341.623 460.185 337.83 463.643 331.88 463.643Z" fill="#F0F4F7"/>
            <path d="M374.275 404.971L363.161 441.78L353.344 471.638L365.13 470.738L373.64 444.174H373.655L385.151 408.193C383.55 407.75 377.174 405.721 374.275 404.971Z" fill="#F0F4F7"/>
            <path d="M379.785 442.288L377.03 450.897H389.904L383.882 470.066L395.119 469.302L400.982 450.897H412.133L414.888 442.288H379.785Z" fill="#F0F4F7"/>
            <path d="M430.806 441.766C419.28 441.766 412.436 449.718 412.436 460.771C412.45 462.378 413.9 466.337 416.864 467.658L430.727 466.729C428.368 464.758 424.199 460.106 424.199 457.634C424.199 454.241 426.111 449.804 430.056 449.804C432.732 449.804 434.369 450.54 434.369 453.412C434.369 455.255 433.474 456.949 432.955 458.72H443.665C444.336 457.17 445.375 453.633 445.375 452.011C445.382 443.974 437.499 441.766 430.806 441.766Z" fill="#F0F4F7"/>
            <path d="M303.716 442.516C298.472 442.516 297.722 446.353 296.424 450.425C295.991 451.89 295.169 453.676 295.169 455.212C295.169 458.17 297.816 458.735 300.276 458.735C303.283 458.756 304.884 457.756 305.952 454.955C306.68 453.04 308.577 447.775 308.577 445.924C308.577 443.302 305.908 442.516 303.716 442.516ZM305.18 446.282C305.18 446.939 304.43 449.082 304.177 449.833L303.016 453.419C302.562 454.777 302.014 456.334 300.283 456.334C299.302 456.334 298.667 455.77 298.667 454.755C298.667 453.441 299.691 451.004 300.124 449.647C300.557 448.296 301.127 445.603 302.634 445.081C302.973 444.967 303.341 444.924 303.709 444.924C304.394 444.924 305.216 445.531 305.216 446.26L305.18 446.282Z" fill="#F0F4F7"/>
            <path d="M317.058 451.661L317.851 449.061H313.293L314.526 445.181H319.315L320.159 442.58H311.858L306.867 458.527H310.358L312.521 451.661H317.058Z" fill="#F0F4F7"/>
        </g>
        <rect x="-109" width="909" height="410" fill="url(#paint9_linear_2403_17561)"/>
    </g>
    <defs>
        <filter id="filter0_i_2403_17561" x="212.018" y="307.815" width="263.216" height="262.62" filterUnits="userSpaceOnUse" color-interpolation-filters="sRGB">
            <feFlood flood-opacity="0" result="BackgroundImageFix"/>
            <feBlend mode="normal" in="SourceGraphic" in2="BackgroundImageFix" result="shape"/>
            <feColorMatrix in="SourceAlpha" type="matrix" values="0 0 0 0 0 0 0 0 0 0 0 0 0 0 0 0 0 0 127 0" result="hardAlpha"/>
            <feOffset dx="-7.64913" dy="11.4737"/>
            <feGaussianBlur stdDeviation="3.82456"/>
            <feComposite in2="hardAlpha" operator="arithmetic" k2="-1" k3="1"/>
            <feColorMatrix type="matrix" values="0 0 0 0 1 0 0 0 0 1 0 0 0 0 1 0 0 0 1 0"/>
            <feBlend mode="normal" in2="shape" result="effect1_innerShadow_2403_17561"/>
        </filter>
        <filter id="filter1_f_2403_17561" x="-80.1177" y="7.72215" width="855.156" height="855.156" filterUnits="userSpaceOnUse" color-interpolation-filters="sRGB">
            <feFlood flood-opacity="0" result="BackgroundImageFix"/>
            <feBlend mode="normal" in="SourceGraphic" in2="BackgroundImageFix" result="shape"/>
            <feGaussianBlur stdDeviation="35.9467" result="effect1_foregroundBlur_2403_17561"/>
        </filter>
        <filter id="filter2_i_2403_17561" x="212.018" y="307.815" width="263.216" height="262.62" filterUnits="userSpaceOnUse" color-interpolation-filters="sRGB">
            <feFlood flood-opacity="0" result="BackgroundImageFix"/>
            <feBlend mode="normal" in="SourceGraphic" in2="BackgroundImageFix" result="shape"/>
            <feColorMatrix in="SourceAlpha" type="matrix" values="0 0 0 0 0 0 0 0 0 0 0 0 0 0 0 0 0 0 127 0" result="hardAlpha"/>
            <feOffset dx="-7.64913" dy="11.4737"/>
            <feGaussianBlur stdDeviation="3.82456"/>
            <feComposite in2="hardAlpha" operator="arithmetic" k2="-1" k3="1"/>
            <feColorMatrix type="matrix" values="0 0 0 0 1 0 0 0 0 1 0 0 0 0 1 0 0 0 1 0"/>
            <feBlend mode="normal" in2="shape" result="effect1_innerShadow_2403_17561"/>
        </filter>
        <filter id="filter3_f_2403_17561" x="-396.227" y="-269.024" width="1481.75" height="888.443" filterUnits="userSpaceOnUse" color-interpolation-filters="sRGB">
            <feFlood flood-opacity="0" result="BackgroundImageFix"/>
            <feBlend mode="normal" in="SourceGraphic" in2="BackgroundImageFix" result="shape"/>
            <feGaussianBlur stdDeviation="102.287" result="effect1_foregroundBlur_2403_17561"/>
        </filter>
        <filter id="filter4_f_2403_17561" x="90.2125" y="219.7" width="521.15" height="444.675" filterUnits="userSpaceOnUse" color-interpolation-filters="sRGB">
            <feFlood flood-opacity="0" result="BackgroundImageFix"/>
            <feBlend mode="normal" in="SourceGraphic" in2="BackgroundImageFix" result="shape"/>
            <feGaussianBlur stdDeviation="82.9938" result="effect1_foregroundBlur_2403_17561"/>
        </filter>
        <radialGradient id="paint0_radial_2403_17561" cx="0" cy="0" r="1" gradientUnits="userSpaceOnUse" gradientTransform="translate(578.606 446.594) rotate(141.132) scale(488.836 837.998)">
            <stop stop-color="#D9D9D9"/>
            <stop offset="1" stop-color="#D9D9D9" stop-opacity="0"/>
        </radialGradient>
        <linearGradient id="paint1_linear_2403_17561" x1="347.46" y1="83.4402" x2="347.46" y2="834.847" gradientUnits="userSpaceOnUse">
            <stop stop-color="#5F5F5F"/>
            <stop offset="1" stop-color="#2F2F2F"/>
        </linearGradient>
        <linearGradient id="paint2_linear_2403_17561" x1="347.46" y1="159.932" x2="347.46" y2="747.989" gradientUnits="userSpaceOnUse">
            <stop stop-color="#5F5F5F"/>
            <stop offset="1" stop-color="#2F2F2F"/>
        </linearGradient>
        <linearGradient id="paint3_linear_2403_17561" x1="347.436" y1="236.582" x2="347.436" y2="660.95" gradientUnits="userSpaceOnUse">
            <stop stop-color="#5F5F5F"/>
            <stop offset="1" stop-color="#2F2F2F"/>
        </linearGradient>
        <linearGradient id="paint4_linear_2403_17561" x1="347.46" y1="83.4402" x2="347.46" y2="834.847" gradientUnits="userSpaceOnUse">
            <stop stop-color="#5F5F5F"/>
            <stop offset="1" stop-color="#2F2F2F"/>
        </linearGradient>
        <linearGradient id="paint5_linear_2403_17561" x1="347.46" y1="159.932" x2="347.46" y2="747.989" gradientUnits="userSpaceOnUse">
            <stop stop-color="#5F5F5F"/>
            <stop offset="1" stop-color="#2F2F2F"/>
        </linearGradient>
        <linearGradient id="paint6_linear_2403_17561" x1="347.436" y1="236.582" x2="347.436" y2="660.95" gradientUnits="userSpaceOnUse">
            <stop stop-color="#5F5F5F"/>
            <stop offset="1" stop-color="#2F2F2F"/>
        </linearGradient>
        <linearGradient id="paint7_linear_2403_17561" x1="-116.813" y1="286.156" x2="835.931" y2="308.513" gradientUnits="userSpaceOnUse">
            <stop stop-color="white"/>
            <stop offset="0.317708" stop-color="white" stop-opacity="0"/>
            <stop offset="0.708333" stop-color="white"/>
            <stop offset="1" stop-color="white" stop-opacity="0"/>
        </linearGradient>
        <radialGradient id="paint8_radial_2403_17561" cx="0" cy="0" r="1" gradientUnits="userSpaceOnUse" gradientTransform="translate(299.031 376.5) rotate(49.7475) scale(191.004 294.692)">
            <stop stop-color="white"/>
            <stop offset="1" stop-color="white" stop-opacity="0.6"/>
        </radialGradient>
        <linearGradient id="paint9_linear_2403_17561" x1="345.5" y1="0" x2="345.5" y2="410" gradientUnits="userSpaceOnUse">
            <stop/>
            <stop offset="1" stop-opacity="0"/>
        </linearGradient>
        <clipPath id="clip0_2403_17561">
            <rect width="800" height="800" fill="white"/>
        </clipPath>
        <clipPath id="clip1_2403_17561">
            <rect width="189.175" height="112.7" fill="white" transform="translate(256.2 385.688)"/>
        </clipPath>
    </defs>
</svg>
