<svg width="1440" height="656" viewBox="0 0 1440 656" fill="none" xmlns="http://www.w3.org/2000/svg">
<mask id="mask0_195_7695" style="mask-type:alpha" maskUnits="userSpaceOnUse" x="0" y="-3" width="1444" height="659">
<g clip-path="url(#clip0_195_7695)">
<g clip-path="url(#clip1_195_7695)">
<g clip-path="url(#clip2_195_7695)">
<g opacity="0.1">
<path d="M0.000732422 -3H1443.17V-2.49575H0.000732422V-3Z" fill="white"/>
<path d="M0.000732422 31.7934H1443.17V32.2977H0.000732422V31.7934Z" fill="white"/>
<path d="M0.000732422 66.5868H1443.17V67.0911H0.000732422V66.5868Z" fill="white"/>
<path d="M0.000732422 101.38H1443.17V101.884H0.000732422V101.38Z" fill="white"/>
<path d="M0.000732422 136.174H1443.17V136.678H0.000732422V136.174Z" fill="white"/>
<path d="M0.000732422 170.967H1443.17V171.471H0.000732422V170.967Z" fill="white"/>
<path d="M0.000732422 205.76H1443.17V206.265H0.000732422V205.76Z" fill="white"/>
<path d="M0.000732422 240.554H1443.17V241.058H0.000732422V240.554Z" fill="white"/>
<path d="M0.000732422 275.347H1443.17V275.852H0.000732422V275.347Z" fill="white"/>
<path d="M0.000732422 310.141H1443.17V310.645H0.000732422V310.141Z" fill="white"/>
<path d="M0.000732422 344.934H1443.17V345.438H0.000732422V344.934Z" fill="white"/>
<path d="M0.000732422 379.727H1443.17V380.232H0.000732422V379.727Z" fill="white"/>
<path d="M0.000732422 414.521H1443.17V415.025H0.000732422V414.521Z" fill="white"/>
<path d="M0.000732422 449.314H1443.17V449.819H0.000732422V449.314Z" fill="white"/>
<path d="M0.000732422 484.108H1443.17V484.612H0.000732422V484.108Z" fill="white"/>
<path d="M0.000732422 518.901H1443.17V519.405H0.000732422V518.901Z" fill="white"/>
<path d="M0.000732422 553.695H1443.17V554.199H0.000732422V553.695Z" fill="white"/>
<path d="M0.000732422 588.488H1443.17V588.992H0.000732422V588.488Z" fill="white"/>
<path d="M0.000732422 623.281H1443.17V623.786H0.000732422V623.281Z" fill="white"/>
<path d="M0.000732422 -3H0.504985V655.553H0.000732422V-3Z" fill="white"/>
<path d="M34.7941 -3H35.2984V655.553H34.7941V-3Z" fill="white"/>
<path d="M69.5875 -3H70.0918V655.553H69.5875V-3Z" fill="white"/>
<path d="M104.381 -3H104.885V655.553H104.381V-3Z" fill="white"/>
<path d="M139.174 -3H139.679V655.553H139.174V-3Z" fill="white"/>
<path d="M173.968 -3H174.472V655.553H173.968V-3Z" fill="white"/>
<path d="M208.761 -3H209.265V655.553H208.761V-3Z" fill="white"/>
<path d="M243.555 -3H244.059V655.553H243.555V-3Z" fill="white"/>
<path d="M278.348 -3H278.852V655.553H278.348V-3Z" fill="white"/>
<path d="M313.141 -3H313.646V655.553H313.141V-3Z" fill="white"/>
<path d="M347.935 -3H348.439V655.553H347.935V-3Z" fill="white"/>
<path d="M382.728 -3H383.232V655.553H382.728V-3Z" fill="white"/>
<path d="M417.522 -3H418.026V655.553H417.522V-3Z" fill="white"/>
<path d="M452.315 -3H452.819V655.553H452.315V-3Z" fill="white"/>
<path d="M487.108 -3H487.613V655.553H487.108V-3Z" fill="white"/>
<path d="M521.902 -3H522.406V655.553H521.902V-3Z" fill="white"/>
<path d="M556.695 -3H557.199V655.553H556.695V-3Z" fill="white"/>
<path d="M591.489 -3H591.993V655.553H591.489V-3Z" fill="white"/>
<path d="M626.282 -3H626.786V655.553H626.282V-3Z" fill="white"/>
<path d="M661.075 -3H661.58V655.553H661.075V-3Z" fill="white"/>
<path d="M695.869 -3H696.373V655.553H695.869V-3Z" fill="white"/>
<path d="M730.662 -3H731.167V655.553H730.662V-3Z" fill="white"/>
<path d="M765.456 -3H765.96V655.553H765.456V-3Z" fill="white"/>
<path d="M800.249 -3H800.753V655.553H800.249V-3Z" fill="white"/>
<path d="M835.042 -3H835.547V655.553H835.042V-3Z" fill="white"/>
<path d="M869.836 -3H870.34V655.553H869.836V-3Z" fill="white"/>
<path d="M904.629 -3H905.134V655.553H904.629V-3Z" fill="white"/>
<path d="M939.423 -3H939.927V655.553H939.423V-3Z" fill="white"/>
<path d="M974.216 -3H974.72V655.553H974.216V-3Z" fill="white"/>
<path d="M1009.01 -3H1009.51V655.553H1009.01V-3Z" fill="white"/>
<path d="M1043.8 -3H1044.31V655.553H1043.8V-3Z" fill="white"/>
<path d="M1078.6 -3H1079.1V655.553H1078.6V-3Z" fill="white"/>
<path d="M1113.39 -3H1113.89V655.553H1113.39V-3Z" fill="white"/>
<path d="M1148.18 -3H1148.69V655.553H1148.18V-3Z" fill="white"/>
<path d="M1182.98 -3H1183.48V655.553H1182.98V-3Z" fill="white"/>
<path d="M1217.77 -3H1218.27V655.553H1217.77V-3Z" fill="white"/>
<path d="M1252.56 -3H1253.07V655.553H1252.56V-3Z" fill="white"/>
<path d="M1287.36 -3H1287.86V655.553H1287.36V-3Z" fill="white"/>
<path d="M1322.15 -3H1322.65V655.553H1322.15V-3Z" fill="white"/>
<path d="M1356.94 -3H1357.45V655.553H1356.94V-3Z" fill="white"/>
<path d="M1391.74 -3H1392.24V655.553H1391.74V-3Z" fill="white"/>
<path d="M1426.53 -3H1427.03V655.553H1426.53V-3Z" fill="white"/>
</g>
</g>
</g>
</g>
</mask>
<g mask="url(#mask0_195_7695)">
<rect x="-2" y="10" width="1448" height="700" fill="url(#paint0_radial_195_7695)"/>
</g>
<defs>
<radialGradient id="paint0_radial_195_7695" cx="0" cy="0" r="1" gradientUnits="userSpaceOnUse" gradientTransform="translate(722 360) rotate(90) scale(470.5 973.263)">
<stop stop-color="white"/>
<stop offset="1" stop-color="white" stop-opacity="0"/>
</radialGradient>
<clipPath id="clip0_195_7695">
<rect width="1443.17" height="658.553" fill="white" transform="translate(0 -3)"/>
</clipPath>
<clipPath id="clip1_195_7695">
<rect width="1443.17" height="658.553" fill="white" transform="translate(0.000244141 -3)"/>
</clipPath>
<clipPath id="clip2_195_7695">
<rect width="1443.17" height="658.553" fill="white" transform="translate(0.000488281 -3)"/>
</clipPath>
</defs>
</svg>
