<svg width="75" height="30" viewBox="0 0 75 30" fill="none" xmlns="http://www.w3.org/2000/svg">
<path d="M53.4554 21.8599V2.58643H57.3295V21.8599H53.4554Z" fill="#F7A600"/>
<path d="M8.30523 27.585H0V8.31152H7.97126C11.8453 8.31152 14.1027 10.4229 14.1027 13.7256C14.1027 15.8634 12.6529 17.245 11.6495 17.705C12.8472 18.2461 14.3804 19.4639 14.3804 22.0368C14.3804 25.6358 11.8453 27.585 8.30523 27.585ZM7.66462 11.6688H3.87405V16.1082H7.66462C9.30871 16.1082 10.2286 15.2147 10.2286 13.8877C10.2286 12.5622 9.30871 11.6688 7.66462 11.6688ZM7.91509 19.4919H3.87405V24.2292H7.91509C9.67146 24.2292 10.5064 23.147 10.5064 21.8466C10.5064 20.5476 9.66991 19.4919 7.91509 19.4919Z" fill="white"/>
<path d="M26.1967 19.6807V27.585H22.35V19.6807L16.3856 8.31152H20.5936L24.3007 16.0801L27.9517 8.31152H32.1597L26.1967 19.6807Z" fill="white"/>
<path d="M43.1429 27.585H34.8376V8.31152H42.8089C46.683 8.31152 48.9403 10.4229 48.9403 13.7256C48.9403 15.8634 47.4906 17.245 46.4871 17.705C47.6849 18.2461 49.2182 19.4639 49.2182 22.0368C49.2182 25.6358 46.683 27.585 43.1429 27.585ZM42.5023 11.6688H38.7117V16.1082H42.5023C44.1464 16.1082 45.0663 15.2147 45.0663 13.8877C45.0663 12.5622 44.1464 11.6688 42.5023 11.6688ZM42.7527 19.4919H38.7117V24.2292H42.7527C44.5091 24.2292 45.344 23.147 45.344 21.8466C45.344 20.5476 44.5091 19.4919 42.7527 19.4919Z" fill="white"/>
<path d="M69.8155 11.6688V27.5864H65.9415V11.6688H60.7573V8.31152H74.9997V11.6688H69.8155Z" fill="white"/>
</svg>
