<svg width="50" height="53" viewBox="0 0 50 53" fill="none" xmlns="http://www.w3.org/2000/svg">
<path d="M48.9837 26.4007V26.3078C48.9373 13.1659 38.3514 2.44067 25.3952 2.44067C12.4391 2.44067 1.80676 13.1659 1.80676 26.4007C1.80676 39.6372 12.391 50.3408 25.3952 50.3408C31.3625 50.3449 37.1015 48.0481 41.4183 43.9282C41.8435 43.5398 42.097 42.9984 42.1229 42.423C42.1489 41.8477 41.9453 41.2856 41.5568 40.8605C41.1684 40.4353 40.627 40.1818 40.0516 40.1559C39.4763 40.1299 38.9142 40.3335 38.4891 40.722L38.4426 40.7684C36.58 42.5391 34.3788 43.9152 31.9711 44.814C29.5635 45.7128 26.999 46.1158 24.4318 45.9988C21.8645 45.8819 19.3473 45.2473 17.0313 44.1333C14.7154 43.0193 12.6484 41.4488 10.9545 39.5161L21.0312 23.357V30.8344C21.0312 34.4073 22.4245 35.57 23.5955 35.8951C24.7666 36.2202 26.5232 35.9847 28.4257 32.9675L33.9542 23.9906C34.1018 23.7285 34.2726 23.4797 34.4617 23.2458V27.799C34.4617 31.1413 35.8086 33.835 38.1291 35.1338C39.2003 35.717 40.4095 35.9993 41.6282 35.9505C42.847 35.9017 44.0297 35.5238 45.0509 34.8568C47.7314 33.1168 49.1711 30.0697 48.9837 26.4007ZM42.8531 31.1031C42.4809 31.3596 42.0469 31.5118 41.596 31.5442C41.1451 31.5766 40.6938 31.4879 40.2888 31.2872C39.3599 30.7316 38.8009 29.4793 38.8009 27.7608V22.4978C38.8009 19.9931 37.8256 18.1801 36.1553 17.719C33.3205 16.8631 31.1874 20.3647 30.3962 21.6651L25.3952 29.6965V19.8073C25.3488 17.5332 24.604 16.1864 23.2107 15.7667C22.2818 15.4897 20.8885 15.6307 19.5433 17.6742L8.35202 35.5966C6.8632 32.7596 6.08297 29.6046 6.07793 26.4007C6.07793 15.5809 14.7596 6.80473 25.3952 6.80473C36.0309 6.80473 44.7125 15.5809 44.7125 26.4007V26.4952C44.8237 28.5819 44.1535 30.2572 42.8548 31.0899L42.8531 31.1031Z" fill="white"/>
</svg>
