<svg width="47" height="52" viewBox="0 0 47 52" fill="none" xmlns="http://www.w3.org/2000/svg">
<path d="M28.368 51.1348C30.8636 51.2198 33.3167 50.9504 35.6847 50.241C40.1797 48.8929 43.9513 46.4382 47 42.8772C47 42.8772 47 42.8772 46.986 42.8627C46.149 42.1537 45.3125 41.4582 44.49 40.7631L43.6535 40.0678C43.4975 39.9402 43.3556 39.8124 43.1997 39.6847C42.8739 39.401 42.5476 39.1314 42.2073 38.8618C39.3148 40.7773 36.1385 41.8839 32.6361 42.0258C30.8778 42.0967 29.1337 41.9264 27.4321 41.4582C24.5536 40.6779 21.9729 39.2591 19.9026 37.0316C16.1308 32.9737 14.7979 28.1213 15.7763 22.7013C16.386 19.3529 17.9175 16.5294 20.2571 14.2309C19.7608 14.3303 19.2645 14.4438 18.7824 14.5998C15.0673 15.7632 12.2172 18.0192 10.1611 21.3109C8.53042 23.9357 7.66547 26.7876 7.56622 29.8948C7.5095 31.64 7.62294 33.3284 8.01996 34.9742C9.28198 40.1104 12.0896 44.1542 16.3719 47.1621H16.4144V47.1902C16.5562 47.2896 16.698 47.403 16.8398 47.5024C20.328 49.8293 24.1707 51.0214 28.368 51.1633V51.1348Z" fill="white"/>
<path d="M29.786 36.7331C28.1269 37.4709 26.4112 37.8965 24.6246 38.0384C26.8082 39.2728 29.2046 39.8829 31.8137 39.9396C32.6645 39.9538 33.5153 39.8687 34.4086 39.7268C36.6065 39.3863 38.6483 38.5917 40.5484 37.4283C38.7476 35.9102 36.961 34.4062 35.1601 32.8881C33.6287 34.5197 31.842 35.8251 29.786 36.7331Z" fill="white"/>
<path d="M27.6306 0.0996615C27.4038 0.11385 27.1769 0.142226 26.9642 0.170603C29.1478 0.582066 31.2607 1.29148 33.26 2.3556C37.1453 4.4271 40.1656 7.39245 42.1933 11.3226L43.2851 10.372C44.4055 9.39299 45.5258 8.41403 46.6461 7.43502C43.9942 4.61152 40.8745 2.54005 37.2162 1.2631C34.7772 0.411804 32.2816 -0.013845 29.7151 0.000343324C29.0344 0.000343324 28.3396 0.0570965 27.6306 0.0996615Z" fill="white"/>
<path d="M10.4872 44.4958C7.2117 40.4236 5.42504 35.7698 5.45342 30.4492C5.45342 27.7676 6.00644 25.1854 7.06993 22.7308C8.64387 19.0844 11.1253 16.1616 14.6136 14.1469C17.8891 12.2456 21.4482 11.5078 25.2342 12.0754C29.1195 12.6713 32.3383 14.5299 34.919 17.4385C34.919 17.4385 35.0041 17.5521 35.0466 17.5946C35.4295 17.2541 35.8265 16.9136 36.2094 16.5731L36.6773 16.1616C37.0743 15.8211 37.4714 15.4664 37.8684 15.1259C38.7759 14.3313 39.6692 13.5509 40.5626 12.7564C38.8185 9.16678 36.1952 6.41423 32.7211 4.47045C28.6232 2.17193 24.2133 1.46251 19.5481 2.07261C17.2226 2.38476 14.9964 3.09417 12.8694 4.14409C5.65195 7.71956 0.447952 15.0691 0.0225563 24.1213C-0.0483423 25.611 0.0509161 27.115 0.277793 28.6047C0.844983 32.3079 2.20624 35.6705 4.38993 38.7068C6.0915 41.0479 8.11922 42.9774 10.4731 44.4958H10.4872Z" fill="white"/>
</svg>
