<svg width="48" height="48" viewBox="0 0 48 48" fill="none" xmlns="http://www.w3.org/2000/svg">
<g clip-path="url(#clip0_3465_14990)">
<path d="M48.0001 23.8939C48.0211 28.6406 46.634 33.2869 44.0143 37.2453C41.3946 41.2036 37.6599 44.2963 33.2826 46.1321C28.9052 47.9679 24.0818 48.4645 19.4222 47.5591C14.7627 46.6536 10.4762 44.3867 7.10499 41.0452C3.73374 37.7036 1.42909 33.4374 0.482468 28.786C-0.464155 24.1346 -0.0102294 19.307 1.78684 14.9136C3.58391 10.5202 6.64342 6.75831 10.5785 4.10372C14.5135 1.44913 19.1474 0.0210195 23.8941 -8.61866e-06C27.0458 -0.013971 30.1694 0.592991 33.0866 1.78622C36.0037 2.97945 38.6573 4.73558 40.8958 6.95435C43.1342 9.17311 44.9137 11.811 46.1327 14.7175C47.3517 17.624 47.9862 20.7422 48.0001 23.8939Z" fill="#8DC63F"/>
<path d="M46.2 23.9026C46.2217 28.293 44.9408 32.5911 42.5195 36.2535C40.0981 39.9158 36.6451 42.7778 32.597 44.4776C28.549 46.1773 24.0878 46.6383 19.7777 45.8024C15.4676 44.9665 11.5022 42.8712 8.38306 39.7815C5.26389 36.6918 3.13106 32.7464 2.25433 28.4444C1.3776 24.1424 1.79634 19.6771 3.4576 15.6131C5.11886 11.5491 7.94802 8.06911 11.5872 5.61316C15.2265 3.1572 19.5123 1.83565 23.9026 1.81564C29.7878 1.78975 35.4424 4.10174 39.6235 8.24341C43.8046 12.3851 46.1701 18.0175 46.2 23.9026Z" fill="#F9E988"/>
<path d="M24.4087 3.24545C25.8197 2.99501 27.2638 2.99501 28.6748 3.24545C30.0994 3.47132 31.4765 3.93269 32.7496 4.61067C34.0157 5.30632 35.1096 6.25067 36.1983 7.13589C37.287 8.02111 38.3705 8.92719 39.4018 9.9185C40.4546 10.8943 41.3734 12.0054 42.1339 13.2228C42.9169 14.4307 43.5588 15.7244 44.047 17.0785C44.9739 19.802 45.2957 22.7359 44.8331 25.5342H44.6957C44.2313 22.7602 43.6018 20.1168 42.6087 17.602C42.1426 16.3379 41.5941 15.1057 40.967 13.9133C40.3129 12.7142 39.5917 11.553 38.807 10.435C38.0092 9.30891 37.0315 8.3218 35.9131 7.51328C34.7861 6.7098 33.4905 6.1898 32.2365 5.69589C30.9826 5.20197 29.7392 4.69589 28.4313 4.32024C27.1235 3.94458 25.7948 3.66284 24.407 3.3898L24.4087 3.24545Z" fill="white"/>
<path d="M35.2591 16.068C33.6487 15.6019 31.9791 14.9411 30.2887 14.2732C30.1913 13.8489 29.8157 13.3202 29.0557 12.675C27.9513 11.7167 25.8765 11.7411 24.0835 12.1654C22.1043 11.6993 20.1496 11.5341 18.273 11.9915C2.92522 16.2193 11.6278 26.5341 5.99304 36.9028C6.79478 38.6037 15.4365 48.5271 27.9409 45.8645C27.9409 45.8645 23.6643 35.588 33.3148 30.6558C41.1426 26.6402 46.7983 19.2106 35.2591 16.068Z" fill="#8BC53F"/>
<path d="M37.1548 22.8176C37.1558 23.0016 37.1023 23.1818 37.0009 23.3353C36.8995 23.4889 36.7549 23.609 36.5852 23.6804C36.4156 23.7517 36.2287 23.7712 36.048 23.7363C35.8673 23.7014 35.701 23.6137 35.5702 23.4844C35.4393 23.355 35.3498 23.1897 35.3129 23.0094C35.2759 22.8291 35.2933 22.6419 35.3628 22.4715C35.4323 22.3011 35.5507 22.1551 35.7031 22.052C35.8555 21.949 36.0351 21.8934 36.2191 21.8923C36.4658 21.8914 36.7027 21.9883 36.8781 22.1617C37.0535 22.3351 37.153 22.5709 37.1548 22.8176Z" fill="white"/>
<path d="M24.0835 12.1583C25.2018 12.2383 29.2452 13.5496 30.2887 14.2661C29.4191 11.7444 26.4922 11.4087 24.0835 12.1583Z" fill="#009345"/>
<path d="M25.1478 18.5358C25.1482 19.3847 24.8968 20.2147 24.4254 20.9207C23.9541 21.6267 23.284 22.1771 22.4998 22.5023C21.7156 22.8275 20.8527 22.9129 20.02 22.7476C19.1873 22.5823 18.4224 22.1738 17.8219 21.5738C17.2213 20.9738 16.8122 20.2091 16.6463 19.3766C16.4803 18.5441 16.565 17.681 16.8895 16.8966C17.2141 16.1122 17.7639 15.4416 18.4696 14.9697C19.1753 14.4978 20.005 14.2457 20.8539 14.2454C21.9917 14.2454 23.0829 14.6971 23.8877 15.5013C24.6925 16.3055 25.1452 17.3963 25.1461 18.5341L25.1478 18.5358Z" fill="white"/>
<path d="M23.8748 18.5741C23.8748 19.1712 23.6977 19.7549 23.366 20.2514C23.0342 20.7479 22.5627 21.1349 22.0111 21.3634C21.4594 21.5919 20.8523 21.6517 20.2667 21.5352C19.681 21.4187 19.1431 21.1311 18.7208 20.7089C18.2986 20.2867 18.0111 19.7487 17.8946 19.1631C17.7781 18.5774 17.8379 17.9704 18.0664 17.4187C18.2949 16.867 18.6818 16.3955 19.1783 16.0637C19.6748 15.732 20.2586 15.5549 20.8557 15.5549C21.6564 15.5549 22.4243 15.873 22.9905 16.4392C23.5567 17.0054 23.8748 17.7733 23.8748 18.5741Z" fill="#58595B"/>
<path d="M40.6313 24.7097C37.153 27.1601 33.1983 29.0193 27.5878 29.0193C24.9617 29.0193 24.4296 26.2367 22.6939 27.5967C21.7983 28.3028 18.64 29.8819 16.1339 29.7619C13.6278 29.6419 9.56522 28.1741 8.43305 22.8228C7.98435 28.1741 7.75479 32.1132 5.73914 36.6297C9.73914 43.0349 19.2765 47.9758 27.9339 45.8471C27.0104 39.3514 32.6957 32.9897 35.8852 29.7393C37.1026 28.5062 39.4157 26.4941 40.6313 24.7114V24.7097Z" fill="#8BC53F"/>
<path d="M40.4957 24.8696C39.4157 25.8539 38.1305 26.5826 36.8227 27.2261C35.4986 27.854 34.1187 28.3565 32.7009 28.727C31.2818 29.0939 29.8018 29.3705 28.3027 29.2348C26.8035 29.0992 25.2714 28.5896 24.2783 27.4661L24.3253 27.4122C25.5427 28.2018 26.9479 28.48 28.3461 28.52C29.7634 28.5636 31.1811 28.4469 32.5722 28.1722C33.9774 27.8776 35.3521 27.4526 36.6783 26.9026C38.0053 26.3548 39.3183 25.72 40.4488 24.8157L40.4957 24.8696Z" fill="#58595B"/>
</g>
<defs>
<clipPath id="clip0_3465_14990">
<rect width="48" height="48" fill="white"/>
</clipPath>
</defs>
</svg>
