<svg width="47" height="57" viewBox="0 0 47 57" fill="none" xmlns="http://www.w3.org/2000/svg">
<g clip-path="url(#clip0_3465_14813)">
<path fill-rule="evenodd" clip-rule="evenodd" d="M0 14.5429V41.6701L23.3727 55.2355L46.7402 41.6701V14.5429L23.3727 0.97876L0 14.5429ZM2.0572 40.4807V15.7375L23.3727 3.35994L44.6895 15.7375V40.4807L23.3727 52.8531L2.0572 40.4807Z" fill="#FEFEFE"/>
<path fill-rule="evenodd" clip-rule="evenodd" d="M32.5305 12.6902H14.1656L12.0366 22.1028H34.7441L32.5305 12.6902Z" fill="#FEFEFE"/>
<path fill-rule="evenodd" clip-rule="evenodd" d="M17.4235 35.0563V28.8019L11.9839 25.3254L5.82764 29.9255L14.2192 44.5952H17.5709L21.5355 40.8856V39.0211L17.4235 35.0563Z" fill="#FEFEFE"/>
<path fill-rule="evenodd" clip-rule="evenodd" d="M29.3362 23.5232H17.4441L19.4476 28.7816L18.8374 34.674H23.3697L27.9455 34.6534L27.3752 28.7816L29.3362 23.5232Z" fill="#FEFEFE"/>
<path fill-rule="evenodd" clip-rule="evenodd" d="M34.776 25.2825L29.3991 28.8013V35.0558L25.2886 39.0206V40.885L29.2517 44.5535H32.5612L40.9118 29.9249L34.776 25.2825Z" fill="#FEFEFE"/>
</g>
<defs>
<clipPath id="clip0_3465_14813">
<rect width="47" height="55.5455" fill="white" transform="translate(0 0.727295)"/>
</clipPath>
</defs>
</svg>
