<svg width="50" height="50" viewBox="0 0 50 50" fill="none" xmlns="http://www.w3.org/2000/svg">
<g clip-path="url(#clip0_3465_14967)">
<mask id="mask0_3465_14967" style="mask-type:luminance" maskUnits="userSpaceOnUse" x="0" y="0" width="220" height="50">
<path d="M219.672 0H0V50H219.672V0Z" fill="white"/>
</mask>
<g mask="url(#mask0_3465_14967)">
<mask id="mask1_3465_14967" style="mask-type:luminance" maskUnits="userSpaceOnUse" x="0" y="0" width="220" height="50">
<path d="M219.268 0H0V49.852H219.268V0Z" fill="white"/>
</mask>
<g mask="url(#mask1_3465_14967)">
<path d="M10.3648 23.7352C10.3648 23.4568 10.4198 23.1812 10.5267 22.9242C10.6335 22.6672 10.7901 22.4338 10.9874 22.2375C11.1847 22.0411 11.4188 21.8857 11.6764 21.7801C11.9339 21.6745 12.2098 21.6208 12.4881 21.6221L16.0086 21.6335C16.5699 21.6335 17.1082 21.8565 17.5051 22.2534C17.902 22.6503 18.125 23.1886 18.125 23.7499V37.0614C18.5213 36.9438 19.0303 36.8184 19.5873 36.6872C19.9742 36.5964 20.319 36.3774 20.5658 36.0659C20.8125 35.7544 20.9468 35.3687 20.9467 34.9712V18.459C20.9467 17.8976 21.1697 17.3593 21.5666 16.9623C21.9634 16.5653 22.5018 16.3423 23.0631 16.3421H26.5906C27.1519 16.3423 27.6902 16.5653 28.0871 16.9623C28.484 17.3593 28.707 17.8976 28.707 18.459V33.784C28.707 33.784 29.5902 33.4266 30.4504 33.0635C30.77 32.9283 31.0427 32.7021 31.2345 32.413C31.4263 32.1238 31.5288 31.7846 31.5291 31.4376V13.168C31.5291 12.6067 31.752 12.0685 32.1488 11.6716C32.5456 11.2747 33.0838 11.0517 33.645 11.0516H37.1725C37.7338 11.0516 38.2721 11.2746 38.6691 11.6715C39.0659 12.0683 39.2889 12.6067 39.2889 13.168V28.2126C42.3471 25.9962 45.4463 23.3307 47.9057 20.1253C48.2627 19.6601 48.4988 19.1138 48.593 18.5351C48.6873 17.9565 48.6369 17.3634 48.4463 16.809C47.3078 13.5335 45.4984 10.5317 43.1332 7.99571C40.768 5.45973 37.8995 3.44541 34.7113 2.08167C31.523 0.717935 28.0851 0.0347964 24.6177 0.0759756C21.1502 0.117155 17.7295 0.881747 14.5746 2.32082C11.4196 3.75989 8.59975 5.84174 6.29553 8.43317C3.99132 11.0246 2.25345 14.0685 1.19316 17.3701C0.132872 20.6717 -0.226495 24.1583 0.138054 27.6068C0.502603 31.0553 1.58304 34.3897 3.31023 37.3967C3.61111 37.9153 4.05376 38.3374 4.58619 38.6133C5.11861 38.8892 5.71869 39.0074 6.31598 38.954C6.9832 38.8954 7.81393 38.8122 8.80164 38.6962C9.2316 38.6474 9.62857 38.4422 9.91689 38.1195C10.2052 37.7969 10.3648 37.3794 10.3652 36.9467L10.3648 23.7352Z" fill="white"/>
<path d="M10.2877 45.0857C14.0059 47.7906 18.3999 49.4144 22.9837 49.7771C27.5674 50.1394 32.1621 49.2271 36.2594 47.1402C40.3567 45.0533 43.7967 41.8738 46.1992 37.9533C48.6012 34.0326 49.8721 29.5238 49.8709 24.9258C49.8709 24.352 49.8442 23.7843 49.8061 23.22C40.7 36.8011 23.8865 43.1504 10.2885 45.0836" fill="#8B8B8B"/>
</g>
</g>
</g>
<defs>
<clipPath id="clip0_3465_14967">
<rect width="50" height="50" fill="white"/>
</clipPath>
</defs>
</svg>
