<svg width="46" height="46" viewBox="0 0 46 46" fill="none" xmlns="http://www.w3.org/2000/svg">
<g clip-path="url(#clip0_3465_14801)">
<path d="M23.0001 35.4281C19.7039 35.4281 16.5428 34.1187 14.2121 31.788C11.8814 29.4573 10.572 26.2962 10.572 23.0001C10.572 19.7039 11.8814 16.5428 14.2121 14.2121C16.5428 11.8814 19.7039 10.572 23.0001 10.572V0.403564C18.5309 0.403564 14.1621 1.72882 10.4461 4.21176C6.73015 6.69469 3.8339 10.2238 2.12363 14.3528C0.413353 18.4817 -0.03413 23.0251 0.837761 27.4084C1.70965 31.7917 3.86175 35.818 7.02192 38.9782C10.1821 42.1384 14.2084 44.2905 18.5917 45.1624C22.975 46.0342 27.5184 45.5868 31.6474 43.8765C35.7763 42.1662 39.3054 39.27 41.7884 35.554C44.2713 31.838 45.5966 27.4692 45.5966 23.0001H35.4281C35.4281 26.2962 34.1188 29.4573 31.788 31.788C29.4573 34.1187 26.2962 35.4281 23.0001 35.4281Z" fill="#2354E6"/>
<path d="M35.4281 10.572H23V23.0001H35.4281V10.572Z" fill="#17E6A1"/>
</g>
<defs>
<clipPath id="clip0_3465_14801">
<rect width="46" height="46" fill="white"/>
</clipPath>
</defs>
</svg>
