<svg width="1432" height="659" viewBox="0 0 1432 659" fill="none" xmlns="http://www.w3.org/2000/svg">
<mask id="mask0_3484_22642" style="mask-type:alpha" maskUnits="userSpaceOnUse" x="0" y="0" width="1444" height="659">
<g clip-path="url(#clip0_3484_22642)">
<g clip-path="url(#clip1_3484_22642)">
<g clip-path="url(#clip2_3484_22642)">
<g opacity="0.1">
<path d="M0.000732422 0H1443.17V0.504252H0.000732422V0Z" fill="white"/>
<path d="M0.000732422 34.7934H1443.17V35.2977H0.000732422V34.7934Z" fill="white"/>
<path d="M0.000732422 69.5868H1443.17V70.0911H0.000732422V69.5868Z" fill="white"/>
<path d="M0.000732422 104.38H1443.17V104.884H0.000732422V104.38Z" fill="white"/>
<path d="M0.000732422 139.174H1443.17V139.678H0.000732422V139.174Z" fill="white"/>
<path d="M0.000732422 173.967H1443.17V174.471H0.000732422V173.967Z" fill="white"/>
<path d="M0.000732422 208.76H1443.17V209.265H0.000732422V208.76Z" fill="white"/>
<path d="M0.000732422 243.554H1443.17V244.058H0.000732422V243.554Z" fill="white"/>
<path d="M0.000732422 278.347H1443.17V278.852H0.000732422V278.347Z" fill="white"/>
<path d="M0.000732422 313.141H1443.17V313.645H0.000732422V313.141Z" fill="white"/>
<path d="M0.000732422 347.934H1443.17V348.438H0.000732422V347.934Z" fill="white"/>
<path d="M0.000732422 382.727H1443.17V383.232H0.000732422V382.727Z" fill="white"/>
<path d="M0.000732422 417.521H1443.17V418.025H0.000732422V417.521Z" fill="white"/>
<path d="M0.000732422 452.314H1443.17V452.819H0.000732422V452.314Z" fill="white"/>
<path d="M0.000732422 487.108H1443.17V487.612H0.000732422V487.108Z" fill="white"/>
<path d="M0.000732422 521.901H1443.17V522.405H0.000732422V521.901Z" fill="white"/>
<path d="M0.000732422 556.695H1443.17V557.199H0.000732422V556.695Z" fill="white"/>
<path d="M0.000732422 591.488H1443.17V591.992H0.000732422V591.488Z" fill="white"/>
<path d="M0.000732422 626.281H1443.17V626.786H0.000732422V626.281Z" fill="white"/>
<path d="M0.000732422 0H0.504985V658.553H0.000732422V0Z" fill="white"/>
<path d="M34.7941 0H35.2984V658.553H34.7941V0Z" fill="white"/>
<path d="M69.5875 0H70.0918V658.553H69.5875V0Z" fill="white"/>
<path d="M104.381 0H104.885V658.553H104.381V0Z" fill="white"/>
<path d="M139.174 0H139.679V658.553H139.174V0Z" fill="white"/>
<path d="M173.968 0H174.472V658.553H173.968V0Z" fill="white"/>
<path d="M208.761 0H209.265V658.553H208.761V0Z" fill="white"/>
<path d="M243.555 0H244.059V658.553H243.555V0Z" fill="white"/>
<path d="M278.348 0H278.852V658.553H278.348V0Z" fill="white"/>
<path d="M313.141 0H313.646V658.553H313.141V0Z" fill="white"/>
<path d="M347.935 0H348.439V658.553H347.935V0Z" fill="white"/>
<path d="M382.728 0H383.232V658.553H382.728V0Z" fill="white"/>
<path d="M417.522 0H418.026V658.553H417.522V0Z" fill="white"/>
<path d="M452.315 0H452.819V658.553H452.315V0Z" fill="white"/>
<path d="M487.108 0H487.613V658.553H487.108V0Z" fill="white"/>
<path d="M521.902 0H522.406V658.553H521.902V0Z" fill="white"/>
<path d="M556.695 0H557.199V658.553H556.695V0Z" fill="white"/>
<path d="M591.489 0H591.993V658.553H591.489V0Z" fill="white"/>
<path d="M626.282 0H626.786V658.553H626.282V0Z" fill="white"/>
<path d="M661.075 0H661.58V658.553H661.075V0Z" fill="white"/>
<path d="M695.869 0H696.373V658.553H695.869V0Z" fill="white"/>
<path d="M730.662 0H731.167V658.553H730.662V0Z" fill="white"/>
<path d="M765.456 0H765.96V658.553H765.456V0Z" fill="white"/>
<path d="M800.249 0H800.753V658.553H800.249V0Z" fill="white"/>
<path d="M835.042 0H835.547V658.553H835.042V0Z" fill="white"/>
<path d="M869.836 0H870.34V658.553H869.836V0Z" fill="white"/>
<path d="M904.629 0H905.134V658.553H904.629V0Z" fill="white"/>
<path d="M939.423 0H939.927V658.553H939.423V0Z" fill="white"/>
<path d="M974.216 0H974.72V658.553H974.216V0Z" fill="white"/>
<path d="M1009.01 0H1009.51V658.553H1009.01V0Z" fill="white"/>
<path d="M1043.8 0H1044.31V658.553H1043.8V0Z" fill="white"/>
<path d="M1078.6 0H1079.1V658.553H1078.6V0Z" fill="white"/>
<path d="M1113.39 0H1113.89V658.553H1113.39V0Z" fill="white"/>
<path d="M1148.18 0H1148.69V658.553H1148.18V0Z" fill="white"/>
<path d="M1182.98 0H1183.48V658.553H1182.98V0Z" fill="white"/>
<path d="M1217.77 0H1218.27V658.553H1217.77V0Z" fill="white"/>
<path d="M1252.56 0H1253.07V658.553H1252.56V0Z" fill="white"/>
<path d="M1287.36 0H1287.86V658.553H1287.36V0Z" fill="white"/>
<path d="M1322.15 0H1322.65V658.553H1322.15V0Z" fill="white"/>
<path d="M1356.94 0H1357.45V658.553H1356.94V0Z" fill="white"/>
<path d="M1391.74 0H1392.24V658.553H1391.74V0Z" fill="white"/>
<path d="M1426.53 0H1427.03V658.553H1426.53V0Z" fill="white"/>
</g>
</g>
</g>
</g>
</mask>
<g mask="url(#mask0_3484_22642)">
<rect x="-2" y="13" width="1448" height="700" fill="url(#paint0_radial_3484_22642)"/>
</g>
<defs>
<radialGradient id="paint0_radial_3484_22642" cx="0" cy="0" r="1" gradientUnits="userSpaceOnUse" gradientTransform="translate(722 363) rotate(90) scale(470.5 973.263)">
<stop stop-color="white"/>
<stop offset="1" stop-color="white" stop-opacity="0"/>
</radialGradient>
<clipPath id="clip0_3484_22642">
<rect width="1443.17" height="658.553" fill="white"/>
</clipPath>
<clipPath id="clip1_3484_22642">
<rect width="1443.17" height="658.553" fill="white" transform="translate(0.000244141)"/>
</clipPath>
<clipPath id="clip2_3484_22642">
<rect width="1443.17" height="658.553" fill="white" transform="translate(0.000488281)"/>
</clipPath>
</defs>
</svg>
