<svg width="1095" height="901" viewBox="0 0 1095 901" fill="none" xmlns="http://www.w3.org/2000/svg">
<g clip-path="url(#clip0_1218_1718)">
<g filter="url(#filter0_if_1218_1718)">
<circle cx="848.5" cy="366.5" r="825.5" fill="url(#paint0_radial_1218_1718)"/>
</g>
<g filter="url(#filter1_if_1218_1718)">
<circle cx="848.5" cy="477.926" r="544.219" fill="black"/>
</g>
<g opacity="0.4" filter="url(#filter2_i_1218_1718)">
<circle cx="849.179" cy="367.179" r="354.659" fill="black"/>
</g>
<g filter="url(#filter3_i_1218_1718)">
<circle cx="849.181" cy="414.739" r="237.798" fill="black"/>
</g>
<g filter="url(#filter4_f_1218_1718)">
<path d="M990.384 287H1009.17C1017.25 414.496 969.718 645.416 715 549.128" stroke="black" stroke-width="28"/>
</g>
<g opacity="0.5" filter="url(#filter5_f_1218_1718)">
<path fill-rule="evenodd" clip-rule="evenodd" d="M850 652.212C720.629 652.212 615.753 546.009 615.753 415C615.753 283.991 720.629 177.788 850 177.788C979.371 177.788 1084.25 283.991 1084.25 415C1084.25 546.009 979.371 652.212 850 652.212ZM850 655C719.109 655 613 547.548 613 415C613 282.452 719.109 175 850 175C980.891 175 1087 282.452 1087 415C1087 547.548 980.891 655 850 655Z" fill="url(#paint1_linear_1218_1718)"/>
</g>
<path d="M796.434 352.761V463.39V463.827H796.87H960.604L957.92 466.4L957.919 466.4L946.783 477.038L946.781 477.041L906.324 515.112L906.322 515.114L902.393 518.769L902.392 518.77C884.128 535.819 860.155 545.089 835.529 545.089H713.437V491.989V491.988L713.6 463.394L713.6 463.393L713.928 425.319L713.928 425.318C714.091 397.727 725.298 371.623 745.117 352.761H796.434Z" fill="url(#paint2_linear_1218_1718)"/>
<path d="M796.434 352.761V463.39V463.827H796.87H960.604L957.92 466.4L957.919 466.4L946.783 477.038L946.781 477.041L906.324 515.112L906.322 515.114L902.393 518.769L902.392 518.77C884.128 535.819 860.155 545.089 835.529 545.089H713.437V491.989V491.988L713.6 463.394L713.6 463.393L713.928 425.319L713.928 425.318C714.091 397.727 725.298 371.623 745.117 352.761H796.434Z" stroke="url(#paint3_linear_1218_1718)" stroke-width="0.873159"/>
<path d="M796.434 352.761V463.39V463.827H796.87H960.604L957.92 466.4L957.919 466.4L946.783 477.038L946.781 477.041L906.324 515.112L906.322 515.114L902.393 518.769L902.392 518.77C884.128 535.819 860.155 545.089 835.529 545.089H713.437V491.989V491.988L713.6 463.394L713.6 463.393L713.928 425.319L713.928 425.318C714.091 397.727 725.298 371.623 745.117 352.761H796.434Z" stroke="url(#paint4_linear_1218_1718)" stroke-width="0.873159"/>
<path d="M871.404 270.459H993.005V389.734C993.005 410.924 986.317 431.453 974.248 448.338L974.247 448.34C970.51 453.618 966.285 458.404 961.572 462.863L961.394 462.953H905.913V352.49V352.054H905.476H853.549H801.13H796.543H745.829L789.634 310.744L789.635 310.742L805.851 295.614L805.852 295.612C824.11 278.405 846.605 270.459 871.404 270.459Z" fill="url(#paint5_linear_1218_1718)"/>
<path d="M871.404 270.459H993.005V389.734C993.005 410.924 986.317 431.453 974.248 448.338L974.247 448.34C970.51 453.618 966.285 458.404 961.572 462.863L961.394 462.953H905.913V352.49V352.054H905.476H853.549H801.13H796.543H745.829L789.634 310.744L789.635 310.742L805.851 295.614L805.852 295.612C824.11 278.405 846.605 270.459 871.404 270.459Z" stroke="url(#paint6_linear_1218_1718)" stroke-width="0.873159"/>
<path d="M871.404 270.459H993.005V389.734C993.005 410.924 986.317 431.453 974.248 448.338L974.247 448.34C970.51 453.618 966.285 458.404 961.572 462.863L961.394 462.953H905.913V352.49V352.054H905.476H853.549H801.13H796.543H745.829L789.634 310.744L789.635 310.742L805.851 295.614L805.852 295.612C824.11 278.405 846.605 270.459 871.404 270.459Z" stroke="url(#paint7_linear_1218_1718)" stroke-width="0.873159"/>
<g style="mix-blend-mode:screen" filter="url(#filter6_f_1218_1718)">
<path d="M794.407 354.788V463.39V465.854H796.87H955.557L945.394 475.562L945.381 475.575L904.944 513.628L904.933 513.638L901.012 517.286L901.009 517.288C883.124 533.983 859.647 543.062 835.529 543.062H715.463V491.995V491.988L715.627 463.411L715.627 463.404L715.955 425.336L715.955 425.33C716.113 398.555 726.88 373.221 745.932 354.788H794.407Z" fill="url(#paint8_linear_1218_1718)"/>
<path d="M794.407 354.788V463.39V465.854H796.87H955.557L945.394 475.562L945.381 475.575L904.944 513.628L904.933 513.638L901.012 517.286L901.009 517.288C883.124 533.983 859.647 543.062 835.529 543.062H715.463V491.995V491.988L715.627 463.411L715.627 463.404L715.955 425.336L715.955 425.33C716.113 398.555 726.88 373.221 745.932 354.788H794.407Z" stroke="url(#paint9_linear_1218_1718)" stroke-width="4.92689"/>
<path d="M794.407 354.788V463.39V465.854H796.87H955.557L945.394 475.562L945.381 475.575L904.944 513.628L904.933 513.638L901.012 517.286L901.009 517.288C883.124 533.983 859.647 543.062 835.529 543.062H715.463V491.995V491.988L715.627 463.411L715.627 463.404L715.955 425.336L715.955 425.33C716.113 398.555 726.88 373.221 745.932 354.788H794.407Z" stroke="url(#paint10_linear_1218_1718)" stroke-width="4.92689"/>
<path d="M871.404 272.485H990.978V389.734C990.978 410.499 984.424 430.616 972.599 447.159L972.593 447.168C969.068 452.146 965.095 456.684 960.667 460.926H907.94V352.49V350.027H905.476H853.549H801.13H796.543H750.933L791.016 312.226L791.026 312.217L807.233 297.096L807.233 297.096L807.242 297.087C825.086 280.27 847.067 272.485 871.404 272.485Z" fill="url(#paint11_linear_1218_1718)"/>
<path d="M871.404 272.485H990.978V389.734C990.978 410.499 984.424 430.616 972.599 447.159L972.593 447.168C969.068 452.146 965.095 456.684 960.667 460.926H907.94V352.49V350.027H905.476H853.549H801.13H796.543H750.933L791.016 312.226L791.026 312.217L807.233 297.096L807.233 297.096L807.242 297.087C825.086 280.27 847.067 272.485 871.404 272.485Z" stroke="url(#paint12_linear_1218_1718)" stroke-width="4.92689"/>
<path d="M871.404 272.485H990.978V389.734C990.978 410.499 984.424 430.616 972.599 447.159L972.593 447.168C969.068 452.146 965.095 456.684 960.667 460.926H907.94V352.49V350.027H905.476H853.549H801.13H796.543H750.933L791.016 312.226L791.026 312.217L807.233 297.096L807.233 297.096L807.242 297.087C825.086 280.27 847.067 272.485 871.404 272.485Z" stroke="url(#paint13_linear_1218_1718)" stroke-width="4.92689"/>
</g>
<rect x="21" width="1074" height="1022" fill="url(#paint14_radial_1218_1718)"/>
<rect x="21" width="1074" height="1022" fill="url(#paint15_linear_1218_1718)"/>
<g opacity="0.55" filter="url(#filter7_f_1218_1718)">
<path d="M380.522 520.26C364.458 495.917 368.885 463.444 390.878 444.288L1267.68 -319.415C1294.19 -342.51 1334.98 -337.011 1354.43 -307.717L1538.61 -30.3295C1557.78 -1.4603 1547.64 37.6591 1516.86 53.5869L486.762 586.702C460.316 600.389 427.804 591.915 411.403 567.06L380.522 520.26Z" fill="url(#paint16_linear_1218_1718)"/>
</g>
<g opacity="0.68" filter="url(#filter8_f_1218_1718)">
<path d="M617.282 698.552C619.334 701.573 623.406 702.433 626.504 700.5L1211.66 335.334C1220.74 329.671 1223.4 317.659 1217.56 308.695C1211.73 299.752 1199.71 297.316 1190.86 303.286L619.103 689.098C615.984 691.202 615.168 695.44 617.282 698.552Z" fill="url(#paint17_linear_1218_1718)"/>
</g>
</g>
<defs>
<filter id="filter0_if_1218_1718" x="12" y="-470" width="1720.43" height="1673" filterUnits="userSpaceOnUse" color-interpolation-filters="sRGB">
<feFlood flood-opacity="0" result="BackgroundImageFix"/>
<feBlend mode="normal" in="SourceGraphic" in2="BackgroundImageFix" result="shape"/>
<feColorMatrix in="SourceAlpha" type="matrix" values="0 0 0 0 0 0 0 0 0 0 0 0 0 0 0 0 0 0 127 0" result="hardAlpha"/>
<feOffset dx="58.4305"/>
<feGaussianBlur stdDeviation="67.263"/>
<feComposite in2="hardAlpha" operator="arithmetic" k2="-1" k3="1"/>
<feColorMatrix type="matrix" values="0 0 0 0 0.129167 0 0 0 0 0.129167 0 0 0 0 0.129167 0 0 0 1 0"/>
<feBlend mode="normal" in2="shape" result="effect1_innerShadow_1218_1718"/>
<feGaussianBlur stdDeviation="5.5" result="effect2_foregroundBlur_1218_1718"/>
</filter>
<filter id="filter1_if_1218_1718" x="295.281" y="-75.293" width="1155.87" height="1106.44" filterUnits="userSpaceOnUse" color-interpolation-filters="sRGB">
<feFlood flood-opacity="0" result="BackgroundImageFix"/>
<feBlend mode="normal" in="SourceGraphic" in2="BackgroundImageFix" result="shape"/>
<feColorMatrix in="SourceAlpha" type="matrix" values="0 0 0 0 0 0 0 0 0 0 0 0 0 0 0 0 0 0 127 0" result="hardAlpha"/>
<feOffset dx="58.4305"/>
<feGaussianBlur stdDeviation="67.263"/>
<feComposite in2="hardAlpha" operator="arithmetic" k2="-1" k3="1"/>
<feColorMatrix type="matrix" values="0 0 0 0 0.137691 0 0 0 0 0.320833 0 0 0 0 0.232925 0 0 0 1 0"/>
<feBlend mode="normal" in2="shape" result="effect1_innerShadow_1218_1718"/>
<feGaussianBlur stdDeviation="4.5" result="effect2_foregroundBlur_1218_1718"/>
</filter>
<filter id="filter2_i_1218_1718" x="463.266" y="12.52" width="740.572" height="709.318" filterUnits="userSpaceOnUse" color-interpolation-filters="sRGB">
<feFlood flood-opacity="0" result="BackgroundImageFix"/>
<feBlend mode="normal" in="SourceGraphic" in2="BackgroundImageFix" result="shape"/>
<feColorMatrix in="SourceAlpha" type="matrix" values="0 0 0 0 0 0 0 0 0 0 0 0 0 0 0 0 0 0 127 0" result="hardAlpha"/>
<feOffset dx="-31.2535"/>
<feGaussianBlur stdDeviation="45.5214"/>
<feComposite in2="hardAlpha" operator="arithmetic" k2="-1" k3="1"/>
<feColorMatrix type="matrix" values="0 0 0 0 0.176471 0 0 0 0 0.47451 0 0 0 0 0.349333 0 0 0 1 0"/>
<feBlend mode="normal" in2="shape" result="effect1_innerShadow_1218_1718"/>
</filter>
<filter id="filter3_i_1218_1718" x="611.383" y="176.94" width="475.597" height="475.597" filterUnits="userSpaceOnUse" color-interpolation-filters="sRGB">
<feFlood flood-opacity="0" result="BackgroundImageFix"/>
<feBlend mode="normal" in="SourceGraphic" in2="BackgroundImageFix" result="shape"/>
<feColorMatrix in="SourceAlpha" type="matrix" values="0 0 0 0 0 0 0 0 0 0 0 0 0 0 0 0 0 0 127 0" result="hardAlpha"/>
<feOffset/>
<feGaussianBlur stdDeviation="45.5214"/>
<feComposite in2="hardAlpha" operator="arithmetic" k2="-1" k3="1"/>
<feColorMatrix type="matrix" values="0 0 0 0 0.140938 0 0 0 0 0.275 0 0 0 0 0.194563 0 0 0 1 0"/>
<feBlend mode="normal" in2="shape" result="effect1_innerShadow_1218_1718"/>
</filter>
<filter id="filter4_f_1218_1718" x="690.05" y="253" width="353.949" height="353.001" filterUnits="userSpaceOnUse" color-interpolation-filters="sRGB">
<feFlood flood-opacity="0" result="BackgroundImageFix"/>
<feBlend mode="normal" in="SourceGraphic" in2="BackgroundImageFix" result="shape"/>
<feGaussianBlur stdDeviation="10" result="effect1_foregroundBlur_1218_1718"/>
</filter>
<filter id="filter5_f_1218_1718" x="607" y="169" width="486" height="492" filterUnits="userSpaceOnUse" color-interpolation-filters="sRGB">
<feFlood flood-opacity="0" result="BackgroundImageFix"/>
<feBlend mode="normal" in="SourceGraphic" in2="BackgroundImageFix" result="shape"/>
<feGaussianBlur stdDeviation="3" result="effect1_foregroundBlur_1218_1718"/>
</filter>
<filter id="filter6_f_1218_1718" x="669.89" y="226.912" width="366.662" height="361.724" filterUnits="userSpaceOnUse" color-interpolation-filters="sRGB">
<feFlood flood-opacity="0" result="BackgroundImageFix"/>
<feBlend mode="normal" in="SourceGraphic" in2="BackgroundImageFix" result="shape"/>
<feGaussianBlur stdDeviation="21.5551" result="effect1_foregroundBlur_1218_1718"/>
</filter>
<filter id="filter7_f_1218_1718" x="133.934" y="-570.697" width="1651.36" height="1400.88" filterUnits="userSpaceOnUse" color-interpolation-filters="sRGB">
<feFlood flood-opacity="0" result="BackgroundImageFix"/>
<feBlend mode="normal" in="SourceGraphic" in2="BackgroundImageFix" result="shape"/>
<feGaussianBlur stdDeviation="118.479" result="effect1_foregroundBlur_1218_1718"/>
</filter>
<filter id="filter8_f_1218_1718" x="541.634" y="225.543" width="753.495" height="550.461" filterUnits="userSpaceOnUse" color-interpolation-filters="sRGB">
<feFlood flood-opacity="0" result="BackgroundImageFix"/>
<feBlend mode="normal" in="SourceGraphic" in2="BackgroundImageFix" result="shape"/>
<feGaussianBlur stdDeviation="37.2364" result="effect1_foregroundBlur_1218_1718"/>
</filter>
<radialGradient id="paint0_radial_1218_1718" cx="0" cy="0" r="1" gradientUnits="userSpaceOnUse" gradientTransform="translate(848.5 366.5) rotate(90) scale(825.5)">
<stop/>
<stop offset="1" stop-opacity="0"/>
</radialGradient>
<linearGradient id="paint1_linear_1218_1718" x1="1010.83" y1="239.124" x2="471.645" y2="670.205" gradientUnits="userSpaceOnUse">
<stop stop-color="#CEFFE8"/>
<stop offset="0.28125" stop-color="#CEFFE8" stop-opacity="0"/>
<stop offset="0.692708" stop-color="white" stop-opacity="0"/>
<stop offset="0.692808" stop-color="#CEFFE8"/>
<stop offset="1" stop-color="#CEFFE8" stop-opacity="0"/>
</linearGradient>
<linearGradient id="paint2_linear_1218_1718" x1="725.224" y1="297.527" x2="800.404" y2="467.317" gradientUnits="userSpaceOnUse">
<stop/>
<stop offset="0.286361" stop-color="#242424"/>
<stop offset="0.665712" stop-color="#0D0D0D"/>
<stop offset="1"/>
</linearGradient>
<linearGradient id="paint3_linear_1218_1718" x1="686.805" y1="421.515" x2="732.22" y2="369.571" gradientUnits="userSpaceOnUse">
<stop stop-color="white" stop-opacity="0.25"/>
<stop offset="0.489583" stop-color="white"/>
<stop offset="1" stop-color="white" stop-opacity="0"/>
</linearGradient>
<linearGradient id="paint4_linear_1218_1718" x1="727.844" y1="501.409" x2="781.122" y2="335.077" gradientUnits="userSpaceOnUse">
<stop stop-color="#FF33AF" stop-opacity="0"/>
<stop offset="0.234375" stop-color="#FF33AF" stop-opacity="0.26"/>
<stop offset="0.381085" stop-color="#FF33AF"/>
<stop offset="0.530787" stop-color="#FF33AF" stop-opacity="0"/>
<stop offset="1" stop-color="#FF33AF" stop-opacity="0"/>
</linearGradient>
<linearGradient id="paint5_linear_1218_1718" x1="980.188" y1="261.727" x2="844.441" y2="347.779" gradientUnits="userSpaceOnUse">
<stop/>
<stop offset="0.286361" stop-color="#242424"/>
<stop offset="0.665712" stop-color="#0D0D0D"/>
<stop offset="1"/>
</linearGradient>
<linearGradient id="paint6_linear_1218_1718" x1="993.286" y1="304.512" x2="841.356" y2="234.659" gradientUnits="userSpaceOnUse">
<stop stop-color="white" stop-opacity="0.25"/>
<stop offset="0.234375" stop-color="white" stop-opacity="0"/>
<stop offset="0.489583" stop-color="white"/>
<stop offset="0.708333" stop-color="white" stop-opacity="0"/>
<stop offset="1" stop-color="white" stop-opacity="0"/>
</linearGradient>
<linearGradient id="paint7_linear_1218_1718" x1="873.663" y1="341.184" x2="775.85" y2="413.63" gradientUnits="userSpaceOnUse">
<stop stop-color="#46DA93" stop-opacity="0"/>
<stop offset="0.489583" stop-color="#46DA93"/>
<stop offset="1" stop-color="#46DA93" stop-opacity="0"/>
</linearGradient>
<linearGradient id="paint8_linear_1218_1718" x1="725.224" y1="297.527" x2="800.404" y2="467.317" gradientUnits="userSpaceOnUse">
<stop/>
<stop offset="0.286361" stop-color="#242424"/>
<stop offset="0.665712" stop-color="#0D0D0D"/>
<stop offset="1"/>
</linearGradient>
<linearGradient id="paint9_linear_1218_1718" x1="686.805" y1="421.515" x2="732.22" y2="369.571" gradientUnits="userSpaceOnUse">
<stop stop-color="white" stop-opacity="0.25"/>
<stop offset="0.489583" stop-color="white"/>
<stop offset="1" stop-color="white" stop-opacity="0"/>
</linearGradient>
<linearGradient id="paint10_linear_1218_1718" x1="727.844" y1="501.409" x2="781.122" y2="335.077" gradientUnits="userSpaceOnUse">
<stop stop-color="#FF33AF" stop-opacity="0"/>
<stop offset="0.234375" stop-color="#FF33AF" stop-opacity="0.26"/>
<stop offset="0.381085" stop-color="#FF33AF"/>
<stop offset="0.530787" stop-color="#FF33AF" stop-opacity="0"/>
<stop offset="1" stop-color="#FF33AF" stop-opacity="0"/>
</linearGradient>
<linearGradient id="paint11_linear_1218_1718" x1="980.188" y1="261.727" x2="844.441" y2="347.779" gradientUnits="userSpaceOnUse">
<stop/>
<stop offset="0.286361" stop-color="#242424"/>
<stop offset="0.665712" stop-color="#0D0D0D"/>
<stop offset="1"/>
</linearGradient>
<linearGradient id="paint12_linear_1218_1718" x1="993.286" y1="304.512" x2="841.356" y2="234.659" gradientUnits="userSpaceOnUse">
<stop stop-color="white" stop-opacity="0.25"/>
<stop offset="0.234375" stop-color="white" stop-opacity="0"/>
<stop offset="0.489583" stop-color="white"/>
<stop offset="0.708333" stop-color="white" stop-opacity="0"/>
<stop offset="1" stop-color="white" stop-opacity="0"/>
</linearGradient>
<linearGradient id="paint13_linear_1218_1718" x1="873.663" y1="341.184" x2="775.85" y2="413.63" gradientUnits="userSpaceOnUse">
<stop stop-color="#46DA93" stop-opacity="0"/>
<stop offset="0.489583" stop-color="#46DA93"/>
<stop offset="1" stop-color="#46DA93" stop-opacity="0"/>
</linearGradient>
<radialGradient id="paint14_radial_1218_1718" cx="0" cy="0" r="1" gradientUnits="userSpaceOnUse" gradientTransform="translate(164.5 787) rotate(-43.562) scale(1112.98 1169.61)">
<stop/>
<stop offset="0.717762" stop-opacity="0"/>
</radialGradient>
<linearGradient id="paint15_linear_1218_1718" x1="728.5" y1="1022" x2="728.5" y2="422" gradientUnits="userSpaceOnUse">
<stop offset="0.0598891"/>
<stop offset="0.837278" stop-opacity="0"/>
</linearGradient>
<linearGradient id="paint16_linear_1218_1718" x1="1483.47" y1="-306.407" x2="385.833" y2="626.288" gradientUnits="userSpaceOnUse">
<stop offset="0.0710876" stop-color="#CEFFE8"/>
<stop offset="0.677083" stop-color="#CEFFE8" stop-opacity="0.21"/>
</linearGradient>
<linearGradient id="paint17_linear_1218_1718" x1="1272.29" y1="282.406" x2="636.316" y2="220.691" gradientUnits="userSpaceOnUse">
<stop offset="0.0710876" stop-color="#CEFFE8"/>
<stop offset="0.677083" stop-color="#CEFFE8" stop-opacity="0"/>
</linearGradient>
<clipPath id="clip0_1218_1718">
<rect width="1095" height="901" fill="white"/>
</clipPath>
</defs>
</svg>
