<svg width="44" height="48" viewBox="0 0 44 48" fill="none" xmlns="http://www.w3.org/2000/svg">
<g clip-path="url(#clip0_3465_14790)">
<path d="M13.8932 23.9823L28.0799 38.169L37.0222 29.2268C38.5866 27.6267 41.1822 27.6267 42.7289 29.2268C44.3289 30.7912 44.3289 33.3868 42.7289 34.9334L30.9422 46.7201C29.3422 48.2846 26.7822 48.2846 25.1999 46.7201L8.18653 29.7068V39.8046C8.18653 42.0268 6.39097 43.8579 4.13318 43.8579C1.91095 43.8579 0.079834 42.0624 0.079834 39.8046V8.14223C0.079834 5.92 1.87539 4.08888 4.13318 4.08888C6.35541 4.08888 8.18653 5.88444 8.18653 8.14223V18.2756L25.1999 1.2622C26.7999 -0.302245 29.3599 -0.302245 30.9422 1.2622L42.7289 13.0489C44.2933 14.6489 44.2933 17.2089 42.7289 18.7556C41.1289 20.3201 38.5689 20.3201 37.0222 18.7556L28.0799 9.81335L13.8932 23.9823ZM28.0799 19.9289C25.8222 19.9289 23.991 21.7245 23.991 23.9823C23.991 26.2401 25.7866 28.0712 28.0444 28.0712C30.3022 28.0712 32.1333 26.2756 32.1333 24.0178V23.9823C32.0977 21.7601 30.3022 19.9645 28.0799 19.9289Z" fill="#28CD96"/>
</g>
<defs>
<clipPath id="clip0_3465_14790">
<rect width="43.7335" height="48.0002" fill="white" transform="translate(0.133301 -0.000244141)"/>
</clipPath>
</defs>
</svg>
