<svg width="49" height="56" viewBox="0 0 49 56" fill="none" xmlns="http://www.w3.org/2000/svg">
<path fill-rule="evenodd" clip-rule="evenodd" d="M18.8472 20.6698C18.744 21.068 18.564 21.4418 18.3172 21.7702C17.8578 22.3691 17.2498 22.8361 16.5541 23.1246C15.9285 23.3954 15.2657 23.5706 14.5884 23.6439C14.4491 23.6617 14.3048 23.6726 14.1649 23.6833L14.1421 23.685C13.713 23.7014 13.3006 23.8553 12.9649 24.1242C12.6292 24.3933 12.3881 24.7631 12.2768 25.1795C12.2259 25.3868 12.1879 25.597 12.1634 25.8091C12.1244 26.1289 12.1044 26.4563 12.0827 26.8104C12.0671 27.0645 12.0506 27.3325 12.0257 27.6212C11.88 28.7976 11.5413 29.9414 11.0233 31.0064C10.9176 31.2303 10.8097 31.4474 10.7036 31.6605C10.1358 32.803 9.62267 33.835 9.76989 35.2172C9.88517 36.2822 10.4283 36.9959 11.1498 37.7319C11.4926 38.084 11.947 38.3848 12.4187 38.6972C13.7389 39.5711 15.1945 40.5348 14.7149 42.9627C14.3224 44.93 11.0755 46.9944 6.51171 47.7155C6.95439 47.648 5.9793 45.9767 5.87109 45.7912L5.86453 45.7799C5.73872 45.582 5.6098 45.387 5.48123 45.1923C5.10983 44.63 4.73982 44.0707 4.45126 43.4504C3.68879 41.8308 3.33535 39.9569 3.64772 38.182C3.93075 36.5758 4.98799 35.2927 6.0057 34.0572C6.17173 33.8558 6.33654 33.6557 6.49687 33.4557C7.8582 31.7575 9.28648 29.5324 9.60248 27.328C9.62923 27.1365 9.65305 26.9276 9.67807 26.7079C9.72294 26.3146 9.77161 25.8864 9.84806 25.4598C9.96145 24.7231 10.1913 24.0091 10.5287 23.345C10.759 22.9096 11.0622 22.5171 11.4251 22.1849C11.6143 22.0085 11.739 21.7735 11.7796 21.5174C11.82 21.2614 11.7737 20.9991 11.6483 20.7725L4.37308 7.62798L14.8227 20.582C14.9418 20.7321 15.0921 20.8541 15.2633 20.9392C15.4345 21.0243 15.6223 21.0705 15.8132 21.0747C16.0042 21.0788 16.1937 21.0407 16.3684 20.9629C16.543 20.8852 16.6985 20.7697 16.8238 20.6249C16.9562 20.47 17.0313 20.2737 17.0363 20.0694C17.0414 19.8652 16.9762 19.6656 16.8516 19.504C16.3658 18.8803 15.8601 18.2481 15.3569 17.6187C15.1532 17.3642 14.9498 17.1096 14.7484 16.8568L12.1187 13.5876L6.84083 7.06002L0.980469 0.0908203L7.51787 6.47531L13.1359 12.715L15.9386 15.8424C16.1961 16.1337 16.4536 16.4224 16.7109 16.711C17.3833 17.4648 18.0557 18.2186 18.7281 19.0184L18.8806 19.2051L18.9141 19.4947C18.9593 19.8873 18.9367 20.285 18.8472 20.6698ZM45.7218 25.0629L45.7328 25.0798C45.7309 23.686 44.8718 21.3864 43.133 19.1744L43.0921 19.1202C42.5564 18.4552 41.9728 17.8308 41.3458 17.252C41.2286 17.1381 41.1023 17.0259 40.9739 16.9139C40.1705 16.2101 39.2924 15.5973 38.3555 15.0868L38.2885 15.0531C35.3446 13.4428 31.5136 12.6134 26.7899 13.5474C26.1555 12.7737 25.4722 12.0418 24.7443 11.3561C23.6294 10.2888 22.3171 9.45183 20.8817 8.89197C19.4591 8.36888 17.9356 8.18214 16.4295 8.34644C17.8812 8.47778 19.2954 8.88334 20.5971 9.54209C21.8544 10.2188 22.9867 11.1072 23.9445 12.1688C24.9155 13.2524 25.8281 14.3873 26.6784 15.5688L26.8917 15.8479C27.7237 16.9364 28.5708 18.0445 29.6259 19.0306C30.2068 19.5796 30.8549 20.0523 31.5545 20.4373C31.7404 20.5326 31.9283 20.6222 32.1125 20.7007C32.2965 20.7792 32.4694 20.8521 32.6554 20.9194C33.0144 21.0593 33.3863 21.1753 33.7582 21.2818C35.2461 21.7077 36.7691 21.8608 38.2569 21.9431C38.4638 21.954 38.6704 21.9642 38.8761 21.9744C39.4075 22.0008 39.9344 22.0268 40.4532 22.0644C41.1639 22.1069 41.8689 22.2182 42.5583 22.397C43.594 22.6683 44.5058 23.288 45.1416 24.153C45.3576 24.4412 45.5516 24.7453 45.7218 25.0629ZM41.3668 17.2542C41.2921 17.1849 41.216 17.1162 41.1402 17.0477C41.0916 17.0037 41.0429 16.9598 40.9949 16.916C41.032 16.95 41.0691 16.9843 41.1062 17.0188C41.1936 17.0998 41.2807 17.1807 41.3668 17.2542ZM39.5073 31.0126C34.723 29.0625 29.7184 27.0224 30.4635 21.2968C32.0609 23.01 34.5683 23.3693 37.2955 23.7602C39.7694 24.1147 42.4241 24.4951 44.7443 25.9355C50.2191 29.3319 49.4195 35.9302 47.5598 38.3589C47.7275 34.3633 43.702 32.7226 39.5073 31.0126ZM20.2321 28.1469C21.4949 28.0254 24.186 27.366 22.9827 25.2381C22.7239 24.8052 22.3487 24.4545 21.9003 24.226C21.4519 23.9977 20.9485 23.9011 20.4479 23.9471C19.94 24.002 19.4609 24.2124 19.076 24.55C18.6912 24.8875 18.4188 25.3357 18.2963 25.834C17.9225 27.2258 18.3186 28.3337 20.2321 28.1469ZM19.8692 11.3111C19.077 10.3919 17.8477 9.90986 16.6426 9.73434C16.5976 10.0358 16.5691 10.3396 16.5572 10.6442C16.5032 13.153 17.3902 15.9086 19.1067 17.8236C19.6559 18.4426 20.3181 18.9499 21.0576 19.3182C21.4853 19.5273 22.6198 20.0466 23.04 19.5796C23.072 19.5368 23.0922 19.4862 23.0984 19.4331C23.1046 19.3799 23.0966 19.3261 23.0754 19.2771C23.0057 19.0771 22.8713 18.8955 22.7377 18.7153C22.6429 18.5876 22.5487 18.4606 22.4785 18.3279C22.4074 18.1943 22.3312 18.0638 22.2553 17.9337C22.1126 17.689 21.9702 17.4448 21.861 17.179C21.5728 16.4833 21.4228 15.7436 21.2732 15.0062C21.2433 14.8588 21.2133 14.7106 21.1822 14.5635C20.9535 13.4259 20.6615 12.2302 19.8692 11.3111ZM36.7953 31.3247C35.5664 34.7699 37.5485 37.6798 39.519 40.5726C41.7231 43.8084 43.9126 47.0227 41.5765 50.9407C46.1161 49.0576 48.2715 43.369 46.3876 38.8554C45.2006 36.0006 42.3395 34.4529 39.6838 33.0165C38.6535 32.4592 37.6539 31.9185 36.7953 31.3247ZM23.5114 39.5487C22.6887 39.8859 21.9129 40.3286 21.2034 40.8658C22.8167 40.278 24.5101 39.9424 26.2247 39.8701C26.5353 39.8516 26.8482 39.8371 27.1637 39.8224C27.7087 39.7972 28.2631 39.7717 28.8283 39.7244C29.7549 39.6612 30.6688 39.4726 31.5452 39.1638C32.4637 38.8411 33.2995 38.3179 33.9926 37.632C34.6929 36.9239 35.1841 36.0348 35.4116 35.0631C35.6118 34.1453 35.5836 33.1922 35.3298 32.288C35.0757 31.3837 34.6037 30.5563 33.9555 29.8789C34.2682 30.6759 34.4606 31.5152 34.5264 32.3693C34.583 33.1644 34.4753 33.9626 34.2102 34.7138C33.9514 35.4259 33.5282 36.0662 32.9754 36.582C32.4043 37.1031 31.7432 37.5145 31.0245 37.7963C30.0258 38.2005 28.8964 38.3658 27.7201 38.5381C27.1836 38.6166 26.6372 38.6967 26.0889 38.8014C25.2072 38.9637 24.3436 39.2141 23.5114 39.5487ZM37.7727 53.7717L37.6938 53.8354C37.4858 54.0033 37.2746 54.1743 37.0469 54.3277C36.7568 54.5197 36.4529 54.6896 36.1376 54.8358C35.4809 55.1577 34.7592 55.322 34.0287 55.3159C32.05 55.2787 30.6514 53.7991 29.8332 52.127C29.6187 51.6888 29.4297 51.237 29.2407 50.7852C28.9382 50.062 28.6357 49.3389 28.2282 48.6709C27.2818 47.1185 25.6619 45.8686 23.7651 46.1003C22.9914 46.1974 22.266 46.5467 21.8365 47.2212C20.7057 48.9829 22.3293 51.4508 24.3991 51.1013C24.5752 51.0744 24.7474 51.0268 24.9124 50.9595C25.0769 50.8891 25.2303 50.7953 25.368 50.6811C25.6572 50.4391 25.875 50.1228 25.9984 49.7657C26.1344 49.3933 26.1646 48.9903 26.0859 48.6018C26.001 48.1956 25.7622 47.8387 25.4201 47.606C25.8179 47.7931 26.1279 48.1281 26.2849 48.54C26.4477 48.9642 26.4896 49.4254 26.4057 49.8722C26.3244 50.3375 26.1203 50.7724 25.8143 51.1314C25.6519 51.3158 25.464 51.4763 25.2565 51.6077C25.0508 51.7375 24.8304 51.8422 24.6 51.9197C24.1328 52.08 23.6356 52.1318 23.1457 52.0711C22.4578 51.9725 21.809 51.6898 21.2675 51.2527C21.1674 51.1733 21.0714 51.0901 20.9784 51.0038C20.6099 50.6845 20.2755 50.3271 19.9805 49.9374C19.8481 49.7911 19.7137 49.6466 19.5732 49.5079C18.9102 48.8089 18.1278 48.2351 17.2634 47.8135C16.6673 47.5505 16.0434 47.3561 15.4038 47.2343C15.082 47.167 14.7566 47.1185 14.4311 47.0774C14.3958 47.0738 14.3279 47.0619 14.2434 47.0472C13.9717 46.9997 13.5291 46.9226 13.4511 46.9951C14.457 46.0649 15.5534 45.2387 16.7241 44.5291C17.9261 43.8127 19.2167 43.258 20.5626 42.8795C21.958 42.485 23.4177 42.3725 24.8566 42.5489C25.5974 42.6383 26.3229 42.8267 27.0139 43.1092C27.7379 43.3999 28.4061 43.8146 28.9889 44.3349C29.5655 44.8806 30.0317 45.5335 30.3613 46.2571C30.659 46.9349 30.8809 47.6435 31.0233 48.3701C31.0996 48.7611 31.1573 49.1907 31.2166 49.6354C31.4877 51.662 31.801 54.0005 34.1236 54.408C34.2711 54.4368 34.4201 54.458 34.5699 54.4717L35.0329 54.4827C35.3513 54.4599 35.6677 54.4144 35.9795 54.3464C36.6257 54.1938 37.2554 53.9779 37.8596 53.702L37.7727 53.7717ZM20.1027 50.0738C20.1583 50.1376 20.2145 50.2008 20.2715 50.2634C20.2482 50.2374 20.2251 50.2112 20.2018 50.1851C20.1688 50.148 20.1358 50.1109 20.1027 50.0738Z" fill="#FC72FF"/>
</svg>
