<svg width="55" height="55" viewBox="0 0 55 55" fill="none" xmlns="http://www.w3.org/2000/svg">
<g clip-path="url(#clip0_2997_3119)">
<path d="M22.533 39.5967C31.1348 36.5801 39.3386 37.9861 47.3449 42.0825V42.1814C38.5241 39.6338 31.9036 39.6637 23.9734 42.3701L23.569 42.5099C17.6079 44.6005 12.1477 44.5154 7.27518 42.2151L7 42.0825C11.0645 44.0802 17.0251 41.456 22.2083 39.7083L22.533 39.5967Z" fill="url(#paint0_linear_2997_3119)"/>
<path opacity="0.502048" d="M27.6606 43.5525C32.3209 42.1046 39.8588 41.908 46.0382 43.8129C38.2822 43.0901 35.7128 43.4742 28.7397 45.9606L28.3841 46.0892C23.1425 48.01 18.335 48.0742 14.0506 45.9606L13.8086 45.8389C17.3443 46.9403 23.0005 45.0003 27.6606 43.5525Z" fill="url(#paint1_linear_2997_3119)"/>
<path fill-rule="evenodd" clip-rule="evenodd" d="M24.1816 6.9397C28.8477 11.8124 32.4115 16.4392 34.8733 20.8201C37.335 25.201 39.5703 30.1966 41.5792 35.8068C38.7023 34.9425 36.4669 34.4515 34.8733 34.3338C33.2795 34.216 31.5097 34.216 29.5635 34.3338L26.6276 32.8122L24.1816 6.9397Z" fill="url(#paint2_linear_2997_3119)"/>
<path fill-rule="evenodd" clip-rule="evenodd" d="M24.5785 11.0443C22.9705 17.2362 21.4927 21.911 20.1452 25.0687C18.7976 28.2263 16.454 32.7195 13.1143 38.5481C15.3453 37.6252 17.3616 36.8744 19.1633 36.2956C20.965 35.7168 22.7817 35.2363 24.6133 34.8542L26.628 32.8123L24.5785 11.0443Z" fill="url(#paint3_linear_2997_3119)"/>
</g>
<defs>
<linearGradient id="paint0_linear_2997_3119" x1="7.74811" y1="41.0646" x2="47.166" y2="34.9491" gradientUnits="userSpaceOnUse">
<stop stop-color="#187AAD"/>
<stop offset="1" stop-color="#063872"/>
</linearGradient>
<linearGradient id="paint1_linear_2997_3119" x1="14.4062" y1="45.0483" x2="45.8079" y2="39.8824" gradientUnits="userSpaceOnUse">
<stop stop-color="#187AAD"/>
<stop offset="1" stop-color="#063872"/>
</linearGradient>
<linearGradient id="paint2_linear_2997_3119" x1="29.504" y1="6.3803" x2="44.643" y2="31.0912" gradientUnits="userSpaceOnUse">
<stop stop-color="white"/>
<stop offset="1" stop-color="#35EABF"/>
</linearGradient>
<linearGradient id="paint3_linear_2997_3119" x1="18.0982" y1="38.0243" x2="26.0312" y2="29.0607" gradientUnits="userSpaceOnUse">
<stop stop-color="#00CBFF"/>
<stop offset="1" stop-color="#16798A"/>
</linearGradient>
<clipPath id="clip0_2997_3119">
<rect width="41" height="41" fill="white" transform="translate(7 7)"/>
</clipPath>
</defs>
</svg>
