<svg width="100" height="38" viewBox="0 0 100 38" fill="none" xmlns="http://www.w3.org/2000/svg">
<g id="Logos">
<g id="Vector">
<path d="M23.0726 11.388L17.7885 8.00452L12.5054 11.388L17.7885 14.7726L23.0726 11.388Z" fill="white"/>
<path d="M12.5054 25.8397L17.7885 29.2242L23.0726 25.8397L17.7885 22.4562L12.5054 25.8397Z" fill="white"/>
<path d="M10.2661 17.6393L4.98193 21.0228L10.2661 24.4063L15.5492 21.0228L10.2661 17.6393Z" fill="white"/>
<path d="M25.3119 17.6393L20.0288 21.0228L25.3119 24.4063L30.5961 21.0228L25.3119 17.6393Z" fill="white"/>
<path d="M40.9572 13.0803C40.1191 13.0803 39.4627 13.255 38.988 13.6042C38.5132 13.9535 38.2764 14.4373 38.2764 15.0556C38.2764 15.3055 38.3225 15.5394 38.4139 15.7562C38.5062 15.973 38.6397 16.1607 38.8164 16.3192C38.993 16.4778 39.2118 16.6003 39.4728 16.6886C39.7337 16.7769 40.0369 16.8211 40.3831 16.8211C40.8829 16.8211 41.3396 16.7147 41.7511 16.5009C42.1627 16.2882 42.4869 16.0041 42.7217 15.6518V16.6996H43.8689V13.0141C43.8689 12.6537 43.8098 12.3265 43.6923 12.0324C43.5749 11.7384 43.4012 11.4864 43.1734 11.2767C42.9456 11.0669 42.6635 10.9053 42.3293 10.7909C41.994 10.6764 41.6137 10.6202 41.1871 10.6202C40.5467 10.6202 39.9967 10.7487 39.538 11.0067C39.0783 11.2646 38.7009 11.5878 38.4068 11.9772L39.4657 12.5955C39.6354 12.3014 39.8632 12.0676 40.1503 11.8949C40.4373 11.7223 40.7796 11.636 41.176 11.636C41.706 11.636 42.0954 11.7614 42.3454 12.0114C42.5953 12.2613 42.7207 12.5855 42.7207 12.9819V13.0813H40.9552L40.9572 13.0803ZM42.7227 14.5257C42.6274 14.7244 42.5039 14.901 42.3534 15.0556C42.2028 15.2102 42.0352 15.3406 41.8515 15.447C41.6679 15.5534 41.4732 15.6367 41.2664 15.6949C41.0606 15.7542 40.8508 15.7833 40.637 15.7833C40.2396 15.7833 39.9495 15.71 39.7658 15.5624C39.5822 15.4159 39.4899 15.2132 39.4899 14.9552C39.4899 14.6611 39.6093 14.4333 39.8481 14.2707C40.087 14.1091 40.4825 14.0278 41.0345 14.0278H42.7227V14.5257Z" fill="white"/>
<path d="M49.1439 12.1198C49.4008 12.4219 49.5302 12.8264 49.5302 13.3332V16.6986H50.7327V13.2459C50.7327 12.8414 50.6755 12.4751 50.5621 12.1479C50.4476 11.8207 50.286 11.5446 50.0763 11.3208C49.8665 11.097 49.6086 10.9234 49.3034 10.8019C48.9983 10.6805 48.658 10.6202 48.2827 10.6202C47.8631 10.6202 47.4938 10.7066 47.1736 10.8792C46.8534 11.0518 46.5904 11.2817 46.3847 11.5687V10.6413L45.2153 11.1432V16.6996H46.4067V13.4115C46.4067 13.1465 46.4469 12.9057 46.5282 12.6889C46.6095 12.4721 46.7209 12.2884 46.8644 12.1368C47.0079 11.9863 47.1766 11.8698 47.3723 11.7895C47.567 11.7082 47.7788 11.6681 48.0066 11.6681C48.5065 11.6681 48.8859 11.8187 49.1429 12.1208L49.1439 12.1198Z" fill="white"/>
<path d="M56.7464 14.4923C56.5988 14.8386 56.377 15.1266 56.0789 15.3585C55.7808 15.5904 55.4185 15.7058 54.9919 15.7058C54.7119 15.7058 54.453 15.6545 54.2141 15.5512C53.9752 15.4478 53.7674 15.3063 53.5908 15.1266C53.4141 14.946 53.2766 14.7352 53.1772 14.4923C53.0779 14.2494 53.0287 13.9924 53.0287 13.7194C53.0287 13.4464 53.0779 13.1895 53.1772 12.9476C53.2766 12.7047 53.4131 12.4939 53.5858 12.3133C53.7584 12.1336 53.9621 11.9921 54.198 11.8887C54.4339 11.7853 54.6908 11.7341 54.9708 11.7341C55.3754 11.7341 55.7306 11.8375 56.0358 12.0433C56.3409 12.249 56.5708 12.5361 56.7253 12.9034L57.7953 12.4397C57.6849 12.1747 57.5363 11.9308 57.3486 11.706C57.1609 11.4822 56.9461 11.2885 56.7032 11.1269C56.4604 10.9653 56.1933 10.8398 55.9033 10.7515C55.6122 10.6632 55.3021 10.619 54.9708 10.619C54.5362 10.619 54.1308 10.6983 53.7513 10.8559C53.373 11.0145 53.0438 11.2333 52.7637 11.5123C52.4837 11.7923 52.2639 12.1195 52.1013 12.4939C51.9397 12.8693 51.8584 13.2778 51.8584 13.7184C51.8584 14.1591 51.9377 14.5565 52.0952 14.9319C52.2539 15.3073 52.4727 15.6345 52.7517 15.9135C53.0307 16.1935 53.3619 16.4134 53.7443 16.576C54.1268 16.7376 54.5382 16.8189 54.9799 16.8189C55.6715 16.8189 56.2596 16.6442 56.7454 16.2949C57.2312 15.9457 57.5915 15.495 57.8264 14.943L56.7454 14.4903L56.7464 14.4923Z" fill="white"/>
<path d="M62.8092 12.1197C63.0631 12.4218 63.1896 12.8263 63.1896 13.3332V16.6986H64.403V13.2458C64.403 12.8413 64.3459 12.475 64.2327 12.1478C64.1178 11.8206 63.9563 11.5446 63.7466 11.3207C63.5369 11.0969 63.2789 10.9233 62.9738 10.8018C62.6687 10.6804 62.3284 10.6202 61.953 10.6202C61.5485 10.6202 61.1862 10.7025 60.866 10.8681C60.5459 11.0337 60.2798 11.2565 60.066 11.5355V8.00452L58.8857 8.51038V16.6986H60.0771V13.4114C60.0771 13.1465 60.1173 12.9056 60.1986 12.6888C60.2798 12.472 60.3913 12.2883 60.5348 12.1367C60.6783 11.9862 60.8469 11.8698 61.0427 11.7895C61.2374 11.7082 61.4452 11.668 61.666 11.668C62.1738 11.668 62.5543 11.8186 62.8082 12.1207L62.8092 12.1197Z" fill="white"/>
<path d="M70.824 11.5244C70.544 11.2453 70.2163 11.0245 69.8367 10.8619C69.4571 10.7003 69.0545 10.619 68.6283 10.619C68.2015 10.619 67.7901 10.7003 67.4146 10.8619C67.0392 11.0235 66.712 11.2443 66.4332 11.5244C66.1532 11.8044 65.9334 12.1326 65.7707 12.512C65.6092 12.8914 65.5278 13.2939 65.5278 13.7204C65.5278 14.147 65.6092 14.5585 65.7707 14.9339C65.9322 15.3093 66.1532 15.6365 66.4332 15.9156C66.712 16.1955 67.0403 16.4154 67.4146 16.578C67.7901 16.7396 68.1945 16.8209 68.6283 16.8209C69.0615 16.8209 69.4571 16.7396 69.8367 16.578C70.2151 16.4164 70.544 16.1955 70.824 15.9156C71.1034 15.6365 71.3238 15.3083 71.4865 14.9339C71.648 14.5585 71.7294 14.1541 71.7294 13.7204C71.7294 13.2868 71.648 12.8914 71.4865 12.512C71.325 12.1336 71.104 11.8044 70.824 11.5244ZM70.3996 14.4983C70.3006 14.7372 70.1638 14.947 69.9911 15.1276C69.8184 15.3083 69.6156 15.4498 69.384 15.5522C69.1523 15.6555 68.9 15.7068 68.6283 15.7068C68.356 15.7068 68.1043 15.6555 67.8726 15.5522C67.6404 15.4488 67.4376 15.3073 67.2649 15.1276C67.0922 14.947 66.9578 14.7382 66.8629 14.4983C66.7674 14.2595 66.7191 14.0004 66.7191 13.7204C66.7191 13.4404 66.7674 13.1905 66.8629 12.9486C66.9578 12.7057 67.0922 12.4949 67.2649 12.3143C67.4376 12.1346 67.6404 11.9931 67.8726 11.8897C68.1043 11.7863 68.356 11.7351 68.6283 11.7351C68.9 11.7351 69.1429 11.7863 69.3781 11.8897C69.6139 11.9931 69.8178 12.1346 69.9899 12.3143C70.1626 12.4949 70.2994 12.7057 70.3984 12.9486C70.498 13.1915 70.5469 13.4484 70.5469 13.7204C70.5469 13.9924 70.498 14.2595 70.3984 14.4983H70.3996Z" fill="white"/>
<path d="M75.6567 10.6528C75.2742 10.6528 74.9394 10.7461 74.6529 10.9338C74.3659 11.1215 74.1601 11.4025 74.0352 11.7779V10.6407L72.8657 11.1426V16.6991H74.057V13.3457C74.057 12.8087 74.1825 12.4263 74.4325 12.1985C74.6824 11.9706 75.0207 11.8562 75.4469 11.8562C75.7705 11.8562 76.021 11.9154 76.1967 12.0329L76.6606 10.8856C76.5433 10.8124 76.3977 10.7552 76.225 10.715C76.0523 10.6749 75.8625 10.6548 75.6567 10.6548V10.6528Z" fill="white"/>
<path d="M81.9884 11.2754C81.7603 11.0657 81.4786 10.9041 81.1443 10.7896C80.8089 10.6752 80.4288 10.619 80.002 10.619C79.3619 10.619 78.8119 10.7475 78.3527 11.0054C77.893 11.2634 77.5157 11.5866 77.2216 11.976L78.2808 12.5943C78.4494 12.3002 78.6781 12.0663 78.964 11.8937C79.251 11.7211 79.5935 11.6348 79.9902 11.6348C80.5201 11.6348 80.9091 11.7602 81.1591 12.0101C81.409 12.2601 81.5346 12.5843 81.5346 12.9807V13.0801H79.7692C78.931 13.0801 78.2738 13.2547 77.7998 13.604C77.3253 13.9533 77.0884 14.4371 77.0884 15.0554C77.0884 15.3053 77.1344 15.5391 77.2257 15.7559C77.3183 15.9727 77.4515 16.1604 77.6283 16.319C77.8051 16.4776 78.0238 16.6001 78.285 16.6884C78.5455 16.7767 78.849 16.8209 79.195 16.8209C79.6949 16.8209 80.1517 16.7145 80.5631 16.5007C80.9746 16.2879 81.2988 16.0038 81.534 15.6515V16.6994H82.681V13.0138C82.681 12.6535 82.6215 12.3263 82.5042 12.0322C82.3869 11.7381 82.213 11.4862 81.9855 11.2764L81.9884 11.2754ZM81.5357 14.5244C81.4402 14.7232 81.317 14.8998 81.1661 15.0544C81.0158 15.2089 80.8479 15.3394 80.6645 15.4458C80.4806 15.5522 80.2849 15.6355 80.0792 15.6937C79.8735 15.7529 79.6637 15.782 79.4503 15.782C79.0524 15.782 78.7624 15.7088 78.5785 15.5612C78.3952 15.4147 78.3026 15.2119 78.3026 14.954C78.3026 14.6599 78.4223 14.432 78.661 14.2695C78.8997 14.1078 79.2953 14.0266 79.8476 14.0266H81.5357V14.5244Z" fill="white"/>
<path d="M88.8415 11.6019C88.6134 11.2927 88.3175 11.0518 87.9533 10.8792C87.589 10.7066 87.2082 10.6202 86.8109 10.6202C86.4136 10.6202 86.0328 10.6935 85.6686 10.8411C85.3043 10.9886 84.9842 11.1984 84.709 11.4704C84.4331 11.7424 84.2144 12.0686 84.0529 12.447C83.8914 12.8264 83.8101 13.2509 83.8101 13.7217C83.8101 14.1924 83.892 14.6079 84.0576 14.9904C84.2233 15.3727 84.4443 15.6999 84.7202 15.972C84.996 16.2439 85.3143 16.4537 85.6745 16.6013C86.0352 16.7488 86.4107 16.8221 86.7997 16.8221C87.1893 16.8221 87.5908 16.7318 87.958 16.5521C88.3258 16.3714 88.6235 16.1235 88.8516 15.8073V16.2711C88.8516 16.5431 88.805 16.791 88.7142 17.0158C88.6217 17.2396 88.4932 17.4334 88.3276 17.5949C88.1619 17.7566 87.9633 17.882 87.731 17.9703C87.4994 18.0587 87.2406 18.1028 86.9536 18.1028C86.4679 18.1028 86.0741 18.0275 85.7729 17.877C85.4711 17.7265 85.2029 17.4886 84.9683 17.1654L84.0087 17.9493C84.3317 18.3537 84.7272 18.6629 85.1952 18.8757C85.6615 19.0885 86.2557 19.1959 86.9765 19.1959C87.4033 19.1959 87.8018 19.1246 88.1737 18.9811C88.5451 18.8376 88.8693 18.6348 89.1445 18.3738C89.4204 18.1128 89.6373 17.7997 89.7959 17.4364C89.9544 17.072 90.0328 16.6695 90.0328 16.2279V10.7407H88.8415V11.6019ZM88.759 14.4985C88.66 14.7455 88.5233 14.9582 88.3505 15.1389C88.1778 15.3196 87.9721 15.4631 87.7322 15.5695C87.4935 15.6759 87.2335 15.7291 86.9547 15.7291C86.6753 15.7291 86.4154 15.6779 86.1767 15.5745C85.938 15.4711 85.7299 15.3286 85.553 15.1439C85.3768 14.9603 85.2389 14.7455 85.1398 14.4985C85.0402 14.2526 84.9913 13.9897 84.9913 13.7096C84.9913 13.4296 85.0402 13.1676 85.1398 12.9207C85.2389 12.6748 85.3768 12.461 85.553 12.2804C85.7299 12.1007 85.938 11.9592 86.1767 11.8558C86.4154 11.7524 86.6742 11.7012 86.9547 11.7012C87.2347 11.7012 87.4935 11.7544 87.7322 11.8608C87.9709 11.9672 88.1773 12.1107 88.3505 12.2914C88.5233 12.4721 88.66 12.6848 88.759 12.9318C88.8586 13.1787 88.9076 13.4376 88.9076 13.7096C88.9076 13.9817 88.8586 14.2526 88.759 14.4985Z" fill="white"/>
<path d="M97.3368 13.6642C97.3368 13.2226 97.2596 12.8161 97.1052 12.4447C96.9507 12.0734 96.7368 11.7512 96.465 11.4792C96.1927 11.2072 95.8709 10.9954 95.4995 10.8448C95.1282 10.6943 94.7214 10.619 94.28 10.619C93.8385 10.619 93.43 10.7003 93.0551 10.8619C92.6802 11.0235 92.3525 11.2443 92.0737 11.5244C91.7937 11.8044 91.575 12.1326 91.417 12.512C91.2585 12.8914 91.1807 13.3009 91.1807 13.7425C91.1807 14.1842 91.2555 14.5806 91.4064 14.956C91.5567 15.3314 91.7719 15.6565 92.0519 15.9326C92.3307 16.2086 92.6637 16.4254 93.0504 16.584C93.4365 16.7416 93.8685 16.8209 94.3472 16.8209C94.9944 16.8209 95.5384 16.6904 95.9799 16.4294C96.422 16.1685 96.7851 15.8212 97.0722 15.3866L96.0907 14.8014C95.9139 15.0885 95.684 15.3203 95.4011 15.496C95.1181 15.6726 94.7668 15.7609 94.3472 15.7609C93.7948 15.7609 93.3433 15.6154 92.9903 15.3253C92.6366 15.0353 92.4161 14.6468 92.3277 14.1611H97.3368V13.6642ZM92.3719 13.1453C92.4892 12.7117 92.7173 12.3564 93.0563 12.0804C93.3946 11.8044 93.8031 11.6669 94.2805 11.6669C94.7586 11.6669 95.183 11.7954 95.5113 12.0533C95.8384 12.3113 96.0465 12.6746 96.1349 13.1453H92.3719Z" fill="white"/>
<path d="M42.701 21.5984C42.4732 21.3044 42.177 21.0725 41.8127 20.9029C41.4484 20.7342 41.068 20.649 40.6705 20.649C40.273 20.649 39.8926 20.7222 39.5283 20.8698C39.164 21.0173 38.8438 21.2271 38.5687 21.4991C38.2927 21.7711 38.0739 22.0973 37.9123 22.4757C37.7507 22.8551 37.6694 23.2796 37.6694 23.7504C37.6694 24.2211 37.7517 24.6367 37.9174 25.0191C38.083 25.4015 38.3038 25.7287 38.5798 26.0007C38.8558 26.2727 39.174 26.4824 39.5343 26.63C39.8946 26.7775 40.27 26.8508 40.6594 26.8508C41.0489 26.8508 41.4373 26.7625 41.8017 26.5858C42.166 26.4092 42.4651 26.1663 42.701 25.8572V26.7284H43.8703V18.0343L42.701 18.5362V21.5984ZM42.5685 24.5283C42.4691 24.7752 42.3326 24.988 42.16 25.1686C41.9873 25.3493 41.7816 25.4928 41.5417 25.5992C41.3028 25.7056 41.0429 25.7588 40.7638 25.7588C40.4848 25.7588 40.2248 25.7076 39.9859 25.6042C39.7471 25.5008 39.5393 25.3583 39.3627 25.1736C39.186 24.99 39.0485 24.7752 38.9492 24.5283C38.8498 24.2823 38.8006 24.0194 38.8006 23.7393C38.8006 23.4593 38.8498 23.1974 38.9492 22.9504C39.0485 22.7045 39.186 22.4907 39.3627 22.3101C39.5393 22.1304 39.7471 21.9889 39.9859 21.8855C40.2248 21.7822 40.4838 21.7309 40.7638 21.7309C41.0439 21.7309 41.3028 21.7842 41.5417 21.8906C41.7806 21.9969 41.9863 22.1404 42.16 22.3211C42.3326 22.5018 42.4691 22.7145 42.5685 22.9615C42.6679 23.2084 42.717 23.4673 42.717 23.7393C42.717 24.0114 42.6679 24.2823 42.5685 24.5283Z" fill="white"/>
<path d="M45.803 18.2389C45.5862 18.2389 45.4065 18.3112 45.265 18.4557C45.1235 18.6002 45.0532 18.7809 45.0532 18.9987C45.0532 19.2165 45.1225 19.3971 45.261 19.5417C45.3995 19.6862 45.5802 19.7585 45.804 19.7585C46.0279 19.7585 46.2105 19.6862 46.3521 19.5417C46.4936 19.3971 46.5638 19.2165 46.5638 18.9987C46.5638 18.7809 46.4925 18.6012 46.3521 18.4557C46.2105 18.3112 46.0269 18.2389 45.803 18.2389Z" fill="white"/>
<path d="M55.7088 18.2389C55.492 18.2389 55.3122 18.3112 55.1708 18.4557C55.0292 18.6002 54.959 18.7809 54.959 18.9987C54.959 19.2165 55.0282 19.3971 55.1667 19.5417C55.3052 19.6862 55.4859 19.7585 55.7097 19.7585C55.9336 19.7585 56.1162 19.6862 56.2578 19.5417C56.3993 19.3971 56.4696 19.2165 56.4696 18.9987C56.4696 18.7809 56.3983 18.6012 56.2578 18.4557C56.1162 18.3112 55.9326 18.2389 55.7088 18.2389Z" fill="white"/>
<path d="M46.4085 20.7706H45.2061V26.7286H46.4085V20.7706Z" fill="white"/>
<path d="M52.5643 21.6317C52.3364 21.3225 52.0404 21.0816 51.676 20.909C51.3116 20.7364 50.9313 20.65 50.5338 20.65C50.1363 20.65 49.7559 20.7233 49.3916 20.8708C49.0273 21.0184 48.7071 21.2282 48.432 21.5002C48.1561 21.7721 47.9372 22.0984 47.7756 22.4768C47.614 22.8562 47.5327 23.2807 47.5327 23.7514C47.5327 24.2222 47.615 24.6377 47.7806 25.0202C47.9463 25.4025 48.1671 25.7297 48.4431 26.0018C48.7191 26.2738 49.0373 26.4835 49.3976 26.6311C49.7579 26.7786 50.1333 26.8519 50.5227 26.8519C50.9122 26.8519 51.3136 26.7616 51.681 26.5819C52.0484 26.4022 52.3465 26.1533 52.5743 25.8371V26.3008C52.5743 26.5729 52.5281 26.8208 52.4368 27.0456C52.3445 27.2694 52.216 27.4632 52.0504 27.6247C51.8848 27.7864 51.6861 27.9118 51.4542 28.0001C51.2223 28.0884 50.9634 28.1326 50.6763 28.1326C50.1905 28.1326 49.7971 28.0573 49.496 27.9068C49.1938 27.7562 48.9259 27.5183 48.691 27.1951L47.7315 27.978C48.0547 28.3825 48.4501 28.6917 48.9178 28.9045C49.3846 29.1173 49.9787 29.2247 50.6994 29.2247C51.126 29.2247 51.5244 29.1534 51.8968 29.0099C52.2682 28.8663 52.5924 28.6636 52.8674 28.4026C53.1434 28.1417 53.3602 27.8285 53.5178 27.4652C53.6764 27.1008 53.7546 26.6983 53.7546 26.2567V20.7735H52.5633V21.6337L52.5643 21.6317ZM52.482 24.5283C52.3826 24.7752 52.2461 24.988 52.0734 25.1687C51.9008 25.3494 51.6951 25.4929 51.4552 25.5993C51.2163 25.7057 50.9563 25.7589 50.6773 25.7589C50.3983 25.7589 50.1384 25.7077 49.8995 25.6043C49.6605 25.5009 49.4528 25.3584 49.2762 25.1737C49.0995 24.99 48.962 24.7752 48.8626 24.5283C48.7632 24.2824 48.7141 24.0195 48.7141 23.7394C48.7141 23.4594 48.7632 23.1974 48.8626 22.9505C48.962 22.7046 49.0995 22.4908 49.2762 22.3101C49.4528 22.1305 49.6605 21.9889 49.8995 21.8856C50.1384 21.7822 50.3973 21.731 50.6773 21.731C50.9573 21.731 51.2163 21.7842 51.4552 21.8906C51.6941 21.997 51.8998 22.1406 52.0734 22.3212C52.2461 22.5019 52.3826 22.7147 52.482 22.9616C52.5814 23.2084 52.6305 23.4674 52.6305 23.7394C52.6305 24.0114 52.5814 24.2824 52.482 24.5283Z" fill="white"/>
<path d="M56.2937 20.7706H55.0913V26.7286H56.2937V20.7706Z" fill="white"/>
<path d="M60.3884 25.7139C60.1526 25.7139 59.9638 25.6406 59.8203 25.4931C59.6768 25.3455 59.6055 25.1066 59.6055 24.7754V21.8407H61.2717V20.7707H59.6055V18.7181L58.4362 19.22V20.7707H57.2559V21.8407H58.4362V24.7865C58.4362 25.5222 58.5978 26.0482 58.922 26.3643C59.2452 26.6805 59.7049 26.8391 60.3011 26.8391C60.551 26.8391 60.7808 26.808 60.9906 26.7457C61.2004 26.6835 61.3891 26.5932 61.5587 26.4757L60.9956 25.4831C60.819 25.6376 60.6172 25.7149 60.3884 25.7149V25.7139Z" fill="white"/>
<path d="M67.0062 21.305C66.7781 21.0952 66.4963 20.9336 66.1621 20.8191C65.8267 20.7047 65.4465 20.6486 65.0198 20.6486C64.3791 20.6486 63.8293 20.777 63.3706 21.0349C62.9109 21.2929 62.5335 21.6161 62.2394 22.0055L63.2983 22.6238C63.468 22.3297 63.6958 22.0959 63.983 21.9232C64.27 21.7506 64.6119 21.6643 65.0086 21.6643C65.5385 21.6643 65.9281 21.7897 66.178 22.0396C66.428 22.2896 66.5535 22.6138 66.5535 23.0102V23.1096H64.7875C63.9499 23.1096 63.2933 23.2843 62.8186 23.6336C62.3438 23.9828 62.1069 24.4666 62.1069 25.0849C62.1069 25.3348 62.1531 25.5686 62.2444 25.7854C62.3368 26.0022 62.4703 26.19 62.6469 26.3485C62.8236 26.5072 63.0424 26.6296 63.3034 26.7179C63.5643 26.8062 63.8674 26.8504 64.2134 26.8504C64.7133 26.8504 65.1701 26.744 65.5815 26.5302C65.9935 26.3174 66.3177 26.0334 66.5523 25.6811V26.729H67.6994V23.0434C67.6994 22.683 67.6404 22.3558 67.5232 22.0617C67.4053 21.7677 67.232 21.5157 67.0039 21.306L67.0062 21.305ZM66.5535 24.5539C66.458 24.7527 66.3342 24.9293 66.1839 25.0839C66.0336 25.2384 65.8656 25.3689 65.6823 25.4753C65.4984 25.5817 65.3027 25.665 65.097 25.7233C64.8913 25.7824 64.6814 25.8116 64.4675 25.8116C64.0702 25.8116 63.7801 25.7383 63.5965 25.5907C63.4128 25.4442 63.3204 25.2414 63.3204 24.9835C63.3204 24.6894 63.4398 24.4616 63.6787 24.299C63.9176 24.1374 64.313 24.0561 64.8654 24.0561H66.5535V24.5539Z" fill="white"/>
<path d="M69.0371 26.7284H70.2396V18.0343L69.0371 18.5502V26.7284Z" fill="white"/>
</g>
</g>
</svg>
