<svg width="93" height="35" viewBox="0 0 93 35" fill="none" xmlns="http://www.w3.org/2000/svg">
<g clip-path="url(#clip0_3015_63374)">
<mask id="mask0_3015_63374" style="mask-type:luminance" maskUnits="userSpaceOnUse" x="1" y="10" width="92" height="15">
<path d="M93 10.3909H1V24.3869H93V10.3909Z" fill="white"/>
</mask>
<g mask="url(#mask0_3015_63374)">
<path d="M7.93898 10.6025H12.315L19.1841 24.1753H16.3612L14.1496 19.8003H5.9872L3.77559 24.1753H1L7.93898 10.6025ZM13.0443 17.6172L10.0797 11.7117L7.09253 17.6172H13.0443Z" fill="white"/>
<path d="M20.4092 18.4351V10.6024H22.9968V18.3416C22.9968 20.9991 24.2911 22.1802 27.9604 22.1802C30.8777 22.1802 33.0184 21.2618 34.1946 19.0985C33.7478 22.5325 31.9594 24.3908 27.4427 24.3908C22.6415 24.3868 20.4092 22.6694 20.4092 18.4351ZM34.1888 10.6024H36.7527V24.1752H34.1888V10.6024Z" fill="white"/>
<path d="M40.3545 10.6024H50.0002C54.07 10.6024 55.6458 11.6851 55.6458 13.943C55.6458 16.13 53.9726 17.1654 51.0829 17.1654V17.189H51.6468C53.388 17.189 54.8948 18.13 55.1281 20.2708L55.5474 24.1752H53.01L52.7285 21.3288C52.5631 19.6841 51.7876 19.192 49.7639 19.192H42.8949V24.1792H40.3545V10.6024ZM42.8949 12.6959V17.0709H49.3909C52.072 17.0709 53.1074 16.3652 53.1074 14.8603C53.1074 13.3308 52.0484 12.6949 49.3673 12.6949L42.8949 12.6959Z" fill="white"/>
<path d="M57.6907 17.377C57.6907 13.0247 60.9387 10.3889 66.6769 10.3889C72.4407 10.3889 75.6867 13.0227 75.6867 17.377C75.6867 21.7314 72.4387 24.3869 66.6769 24.3869C60.9377 24.3869 57.6907 21.7284 57.6907 17.377ZM73.0282 17.377C73.0282 14.4135 70.7941 12.6014 66.6769 12.6014C62.5844 12.6014 60.3491 14.4135 60.3491 17.377C60.3491 20.3879 62.5844 22.1763 66.6769 22.1763C70.7941 22.1763 73.0282 20.3879 73.0282 17.377Z" fill="white"/>
<path d="M78.1566 23.5642V21.2345C79.9686 21.8466 82.4145 22.2699 85.4016 22.2699C89.3074 22.2699 90.3228 21.5405 90.3228 20.3407C90.3228 19.3762 89.7114 18.8358 87.1948 18.6242L83.3131 18.2945C79.1025 17.9421 77.8564 16.6212 77.8564 14.5307C77.8564 12.0612 79.9027 10.3909 85.7596 10.3909C88.8893 10.3909 91.2177 10.7197 92.5818 11.0966V13.3309C90.9082 12.9077 88.441 12.6252 85.7127 12.6252C81.5729 12.6252 80.4902 13.4726 80.4902 14.5071C80.4902 15.4716 81.1025 15.8949 83.572 16.1301L87.383 16.4834C91.5698 16.8594 93.005 17.8476 93.005 20.0819C93.005 22.7393 91.1232 24.387 85.195 24.387C82.3672 24.387 79.7797 24.0573 78.1566 23.5642Z" fill="white"/>
</g>
</g>
<defs>
<clipPath id="clip0_3015_63374">
<rect width="92" height="14.2182" fill="white" transform="translate(1 10.3909)"/>
</clipPath>
</defs>
</svg>
