<svg width="55" height="55" viewBox="0 0 55 55" fill="none" xmlns="http://www.w3.org/2000/svg">
<g clip-path="url(#clip0_2997_3243)">
<mask id="mask0_2997_3243" style="mask-type:luminance" maskUnits="userSpaceOnUse" x="-21" y="8" width="166" height="39">
<path d="M144.979 8H-20.2578V47H144.979V8Z" fill="white"/>
</mask>
<g mask="url(#mask0_2997_3243)">
<path d="M30.0189 24.4208L41.9922 12.5162L37.45 8L27.7478 17.6464L18.0455 8L13.5033 12.5162L25.4767 24.4208C26.1038 25.0444 26.9258 25.3561 27.7478 25.3561C28.5697 25.3561 29.3917 25.0445 30.0189 24.4208ZM47.3521 37.1382L37.6499 27.4918L47.3521 17.8452L42.8098 13.329L30.8365 25.2337C29.5822 26.4808 29.5822 28.5027 30.8365 29.7498L42.8098 41.6545L47.3521 37.1382ZM27.7312 37.3535L37.4333 47L41.9755 42.4838L30.0022 30.5792C28.7478 29.3322 26.7143 29.3322 25.46 30.5792L13.4867 42.4838L18.0289 47L27.7312 37.3535ZM24.6425 29.7664C25.2448 29.1675 25.5833 28.3553 25.5833 27.5083C25.5833 26.6614 25.2448 25.8491 24.6425 25.2503L12.6692 13.3456L8.12695 17.8618L17.8293 27.5082L8.12695 37.1548L12.6692 41.671L24.6425 29.7664Z" fill="white"/>
</g>
</g>
<defs>
<clipPath id="clip0_2997_3243">
<rect width="39" height="39" fill="white" transform="translate(8 8)"/>
</clipPath>
</defs>
</svg>
