<svg width="100" height="38" viewBox="0 0 100 38" fill="none" xmlns="http://www.w3.org/2000/svg">
<path d="M8.98193 22.8222V12.004H18.2547V13.5495H19.8001V16.6404H18.2547V18.1858H19.8001V21.2768H18.2547V22.8222H8.98193ZM12.0728 16.6404H16.7092V13.5495H12.0728V16.6404ZM12.0728 21.2768H16.7092V18.1858H12.0728V21.2768ZM22.891 22.8222V21.2768H21.3456V19.7313H22.891V18.1858H29.0728V16.6404H22.891V15.0949H30.6183V16.6404H32.1638V22.8222H22.891ZM24.4365 21.2768H29.0728V19.7313H24.4365V21.2768ZM35.2547 22.8222V21.2768H33.7092V12.004H36.8001V15.0949H42.9819V16.6404H44.5274V21.2768H42.9819V22.8222H35.2547ZM36.8001 21.2768H41.4365V16.6404H36.8001V21.2768ZM47.6183 24.3677V22.8222H53.8001V21.2768H47.6183V19.7313H46.0728V15.0949H49.1638V19.7313H53.8001V15.0949H56.891V22.8222H55.3456V24.3677H47.6183ZM59.9819 22.8222V21.2768H63.0728V13.5495H61.5274V12.004H66.1638V21.2768H69.2547V22.8222H59.9819ZM72.3456 22.8222V21.2768H70.8001V16.6404H72.3456V15.0949H80.0728V16.6404H81.6183V21.2768H80.0728V22.8222H72.3456ZM73.891 21.2768H78.5274V16.6404H73.891V21.2768ZM83.1638 22.8222V15.0949H92.4365V16.6404H93.9819V22.8222H90.891V16.6404H86.2547V22.8222H83.1638Z" fill="#F7F7E5"/>
</svg>
