<svg width="100" height="38" viewBox="0 0 100 38" fill="none" xmlns="http://www.w3.org/2000/svg">
<path d="M22.7893 3.00403C31.6351 3.00403 38.8062 10.175 38.8062 19.0208C38.8062 27.8666 31.6351 35.0377 22.7893 35.0377C13.9435 35.0361 6.77246 27.8649 6.77246 19.0208C6.77246 10.175 13.9435 3.00403 22.7893 3.00403Z" fill="black"/>
<path d="M18.2289 27.0292H18.2221C16.3105 27.0292 14.7559 25.4745 14.7559 23.5629V14.4803C14.7559 12.5687 16.3105 11.014 18.2221 11.014H27.3047C29.2163 11.014 30.771 12.5687 30.771 14.4803C30.771 15.4056 30.4106 16.2768 29.756 16.9298L20.6818 26.0125C20.0271 26.6688 19.1559 27.0292 18.2289 27.0292ZM18.2204 12.2456C16.9889 12.2456 15.9857 13.247 15.9857 14.4803V23.5629C15.9857 24.7944 16.9872 25.7976 18.2204 25.7976H18.2272C18.8244 25.7976 19.386 25.5642 19.8072 25.1429L28.8814 16.0603C29.3026 15.6391 29.536 15.0774 29.536 14.4803C29.536 13.2487 28.5346 12.2456 27.3013 12.2456H18.2187H18.2204Z" fill="white"/>
<path d="M27.3015 27.0275H18.2223C16.3107 27.0275 14.7544 25.4745 14.7544 23.5646V14.4803C14.7544 12.5687 16.3107 11.0124 18.2223 11.0124C19.1341 11.0124 20.0273 11.3829 20.6736 12.0291L26.4472 17.7994L25.576 18.6706L19.8007 12.9003C19.3828 12.4825 18.8076 12.2439 18.2206 12.2439C16.9874 12.2439 15.9842 13.2471 15.9842 14.4803V23.5646C15.9842 24.7945 16.9874 25.796 18.2206 25.796H27.2999C28.5331 25.796 29.5363 24.7945 29.5363 23.5646V23.5562C29.5363 22.9573 29.3028 22.3974 28.8816 21.9778L27.1459 20.2456L28.0154 19.3727L29.7511 21.1032C30.4075 21.7528 30.7678 22.6241 30.7678 23.5545V23.5629C30.7678 25.4728 29.2115 27.0258 27.2999 27.0258L27.3015 27.0275Z" fill="white"/>
<path d="M49.1746 13.7005C50.3013 13.7005 51.1709 13.9441 51.7849 14.4313C52.3989 14.9185 52.7053 15.5935 52.7053 16.4545C52.7053 17.0838 52.5426 17.6032 52.2179 18.0143C51.8933 18.4253 51.4213 18.7112 50.8019 18.8736C52.3653 19.168 53.1449 20.0155 53.1449 21.4145C53.1449 22.328 52.8133 23.0453 52.1486 23.568C51.4839 24.0908 50.5279 24.3513 49.2796 24.3513H45.3989V13.6988H49.1729L49.1746 13.7005ZM46.7249 18.3255H49.2356C49.9156 18.3255 50.4433 18.1733 50.8189 17.8688C51.1946 17.5643 51.3823 17.143 51.3823 16.6051C51.3823 16.0671 51.1963 15.6493 50.8273 15.3499C50.4569 15.0504 49.9273 14.9016 49.2373 14.9016H46.7269V18.3255H46.7249ZM49.2813 23.1502C50.0933 23.1502 50.7139 22.9929 51.1453 22.6782C51.5769 22.3636 51.7916 21.9271 51.7916 21.3689C51.7916 20.77 51.5733 20.3116 51.1369 19.9918C50.7006 19.6721 50.0813 19.5131 49.2796 19.5131H46.7233V23.1502H49.2813Z" fill="white"/>
<path d="M55.9014 13.8223C56.0538 13.9746 56.1301 14.1674 56.1301 14.4009C56.1301 14.6343 56.0538 14.8272 55.9014 14.9794C55.7494 15.1317 55.5564 15.2078 55.3231 15.2078C55.0894 15.2078 54.8968 15.1317 54.7444 14.9794C54.5921 14.8272 54.5161 14.6343 54.5161 14.4009C54.5161 14.1674 54.5921 13.9746 54.7444 13.8223C54.8968 13.6701 55.0894 13.5939 55.3231 13.5939C55.5564 13.5939 55.7494 13.6701 55.9014 13.8223ZM54.7004 16.5916H55.9488V24.353H54.7004V16.5916Z" fill="white"/>
<path d="M58.1697 17.7317H56.769V16.5898H58.1697V14.4143H59.418V16.5898H61.3821V17.7317H59.418V22.3128C59.418 22.6376 59.4807 22.8676 59.6077 23.0047C59.7344 23.1417 59.9544 23.2094 60.269 23.2094H61.6241V24.3512H60.193C59.462 24.3512 58.9427 24.1888 58.6334 23.864C58.3237 23.5392 58.1697 23.0267 58.1697 22.3263V17.73V17.7317Z" fill="white"/>
<path d="M62.6657 24.3529L66.7294 13.7004H68.2974L72.3457 24.3529H70.9297L69.8031 21.4771H65.1611L64.0344 24.3529H62.6641H62.6657ZM65.5587 20.2743H69.4091L67.4771 15.1451L65.5604 20.2743H65.5587Z" fill="white"/>
<path d="M77.3059 16.5916V17.8096H76.6816C75.9406 17.8096 75.4113 18.0583 75.0916 18.5556C74.7716 19.053 74.6126 19.667 74.6126 20.3962V24.353H73.3643V16.5916H74.4453L74.6126 17.7639C74.8359 17.4087 75.1253 17.1245 75.4806 16.9113C75.8359 16.6981 76.3279 16.5916 76.9573 16.5916H77.3076H77.3059Z" fill="white"/>
<path d="M84.2316 23.705C83.6326 24.1973 82.8716 24.4426 81.9496 24.4426C81.1983 24.4426 80.5386 24.2751 79.972 23.9402C79.4036 23.6052 78.962 23.1366 78.6473 22.5327C78.3326 21.9288 78.1753 21.2369 78.1753 20.4553C78.1753 19.6738 78.3343 18.9853 78.6543 18.3864C78.974 17.7876 79.4223 17.324 80.0006 16.9941C80.5793 16.6642 81.244 16.5002 81.9936 16.5002C82.907 16.5002 83.66 16.7438 84.2536 17.231C84.8473 17.7182 85.2196 18.3881 85.3716 19.2407H84.108C83.9863 18.7434 83.7326 18.3475 83.347 18.0531C82.9613 17.7588 82.4943 17.6116 81.9463 17.6116C81.2053 17.6116 80.6046 17.8755 80.143 18.4033C79.681 18.9311 79.451 19.6163 79.451 20.457C79.451 21.2978 79.681 22.0015 80.143 22.5344C80.6046 23.0673 81.2053 23.3329 81.9463 23.3329C82.5146 23.3329 82.9916 23.1857 83.3773 22.8913C83.763 22.597 84.0116 22.191 84.1233 21.6733H85.3716C85.2093 22.5361 84.8286 23.2128 84.23 23.705H84.2316Z" fill="white"/>
<path d="M92.9048 17.3528C93.4831 17.9212 93.7724 18.8144 93.7724 20.0307V24.3529H92.5241V20.1068C92.5241 19.305 92.3414 18.6943 91.9757 18.273C91.6104 17.8518 91.0878 17.642 90.4078 17.642C89.6871 17.642 89.1171 17.8958 88.6957 18.4033C88.2744 18.9108 88.0647 19.601 88.0647 20.4722V24.3529H86.8164V13.7004H88.0647V17.8704C88.3184 17.4644 88.6551 17.1345 89.0764 16.8808C89.4974 16.627 90.0118 16.5002 90.6208 16.5002C91.5648 16.5002 92.3261 16.7844 92.9027 17.3528H92.9048Z" fill="white"/>
</svg>
