<svg width="55" height="55" viewBox="0 0 55 55" fill="none" xmlns="http://www.w3.org/2000/svg">
<path fill-rule="evenodd" clip-rule="evenodd" d="M45.7686 20.3995C45.7686 42.7466 27.8844 48.8313 27.8844 48.8313C27.8844 48.8313 10.0002 42.7466 10.0002 20.3995V12.3554C10.0002 11.4737 10.686 10.7662 11.5459 10.7009C14.7897 10.5485 22.4963 9.89538 27.8844 6.99994C33.2834 9.89538 40.9791 10.5485 44.223 10.7117C45.0829 10.7662 45.7686 11.4737 45.7686 12.3554V20.3995ZM30.1485 19.8117C32.8045 20.062 34.8944 20.9002 35.1121 23.3385C35.2754 25.1235 34.5244 26.1904 33.327 26.7999C35.2971 27.2788 36.5163 28.4544 36.2551 31.0778C35.9285 34.3215 33.4903 35.1814 30.0288 35.3557L30.0397 38.7627H27.9607L27.9715 35.3882C27.4381 35.3774 26.8938 35.3664 26.3278 35.3557L26.3061 38.7627L24.2597 38.7517L24.2488 35.323C23.7699 35.323 20.5044 35.3338 20.5044 35.3338L20.5261 32.852L22.8338 32.8411L22.8446 21.956H20.2105V19.7899C20.2105 19.7899 23.9223 19.7899 24.3686 19.779L24.3577 16.3938L26.4368 16.3829V19.7246C26.9918 19.7137 27.5686 19.7137 28.1129 19.7137L28.1021 16.4155L30.1594 16.4046L30.1485 19.8117ZM26.8153 32.8697C28.4955 32.9059 32.164 32.9848 32.1841 30.6314C32.2037 28.2337 28.6595 28.291 26.9235 28.319C26.7286 28.3222 26.5566 28.3249 26.4149 28.3238L26.4258 32.8628C26.5381 32.8638 26.6692 32.8665 26.8153 32.8697ZM26.8034 26.2623C28.1924 26.2969 31.2496 26.373 31.2697 24.2311C31.2795 22.0332 28.2822 22.102 26.8586 22.1347C26.7099 22.1381 26.5785 22.1411 26.4694 22.1411L26.4802 26.2557C26.5732 26.2565 26.682 26.2593 26.8034 26.2623Z" fill="white"/>
</svg>
