<svg width="68" height="68" viewBox="0 0 68 68" fill="none" xmlns="http://www.w3.org/2000/svg">
<path d="M46.75 22.1005C46.75 25.482 45.4067 28.725 43.0156 31.1161C40.6245 33.5072 37.3815 34.8505 34 34.8505C30.6185 34.8505 27.3755 33.5072 24.9844 31.1161C22.5933 28.725 21.25 25.482 21.25 22.1005H23.8C23.8 24.8108 24.8574 27.4101 26.7739 29.3266C28.6904 31.2431 31.2897 32.3197 34 32.3197C36.7103 32.3197 39.3096 31.2431 41.2261 29.3266C43.1426 27.4101 44.2 24.8108 44.2 22.1005H46.75Z" fill="#F0F7F7"/>
<path d="M21.25 45.9005C21.25 42.519 22.5933 39.276 24.9844 36.8849C27.3755 34.4938 30.6185 33.1505 34 33.1505C37.3815 33.1505 40.6245 34.4938 43.0156 36.8849C45.4067 39.276 46.75 42.519 46.75 45.9005H44.2C44.2 43.1902 43.1426 40.5909 41.2261 38.6744C39.3096 36.7579 36.7103 35.6813 34 35.6813C31.2897 35.6813 28.6904 36.7579 26.7739 38.6744C24.8574 40.5909 23.8 43.1902 23.8 45.9005H21.25Z" fill="#F0F7F7"/>
<path d="M46.7502 12.7505H44.2002V22.1005H46.7502V12.7505Z" fill="#F0F7F7"/>
<path d="M46.7502 45.9005H44.2002V55.2505H46.7502V45.9005Z" fill="#F0F7F7"/>
<path d="M23.8 45.9005H21.25V55.2505H23.8V45.9005Z" fill="#F0F7F7"/>
<path d="M23.8 12.7505H21.25V22.1005H23.8V12.7505Z" fill="#F0F7F7"/>
<path fill-rule="evenodd" clip-rule="evenodd" d="M31.3385 14.0255C30.9779 14.1443 30.628 14.2866 30.2905 14.4505H37.7095C37.372 14.2866 37.0221 14.1443 36.6615 14.0255H31.3385ZM42.2322 24.2255C42.2683 24.0852 42.3009 23.9435 42.33 23.8005H25.67C25.6991 23.9435 25.7317 24.0852 25.7678 24.2255H42.2322ZM42.458 22.9505C42.4439 23.0932 42.4262 23.235 42.405 23.3755H25.595C25.5738 23.235 25.5561 23.0932 25.542 22.9505H42.458ZM42.5 22.1005C42.5 21.958 42.4965 21.8163 42.4895 21.6755H25.5105C25.5035 21.8163 25.5 21.958 25.5 22.1005H42.5ZM42.2322 19.9755C42.2683 20.1158 42.3009 20.2575 42.33 20.4005H25.67C25.6991 20.2575 25.7317 20.1158 25.7678 19.9755H42.2322ZM41.3629 17.8505C41.2793 17.7061 41.1916 17.5644 41.1001 17.4255H26.8999C26.8084 17.5644 26.7207 17.7061 26.6371 17.8505H41.3629ZM25.8891 24.6505C26.9722 28.099 30.194 30.6005 34 30.6005C37.806 30.6005 41.0278 28.099 42.1109 24.6505H25.8891Z" fill="#F0F7F7"/>
<path fill-rule="evenodd" clip-rule="evenodd" d="M31.3385 37.8254C30.9779 37.9442 30.628 38.0865 30.2905 38.2504H37.7095C37.372 38.0865 37.0221 37.9442 36.6615 37.8254H31.3385ZM42.2322 48.0254C42.2683 47.8851 42.3009 47.7434 42.33 47.6004H25.67C25.6991 47.7434 25.7317 47.8851 25.7678 48.0254H42.2322ZM42.458 46.7504C42.4439 46.8931 42.4262 47.0349 42.405 47.1754H25.595C25.5738 47.0349 25.5561 46.8931 25.542 46.7504H42.458ZM42.5 45.9004C42.5 45.7579 42.4965 45.6162 42.4895 45.4754H25.5105C25.5035 45.6162 25.5 45.7579 25.5 45.9004H42.5ZM42.2322 43.7754C42.2683 43.9157 42.3009 44.0574 42.33 44.2004H25.67C25.6991 44.0574 25.7317 43.9157 25.7678 43.7754H42.2322ZM41.3629 41.6504C41.2793 41.506 41.1916 41.3643 41.1001 41.2254H26.8999C26.8084 41.3643 26.7207 41.506 26.6371 41.6504H41.3629ZM25.8891 48.4504C26.9722 51.8989 30.194 54.4004 34 54.4004C37.806 54.4004 41.0278 51.8989 42.1109 48.4504H25.8891Z" fill="#F0F7F7"/>
</svg>
