<svg width="68" height="68" viewBox="0 0 68 68" fill="none" xmlns="http://www.w3.org/2000/svg">
<path fill-rule="evenodd" clip-rule="evenodd" d="M13.5463 16.3131C13.5463 15.7615 13.7707 15.2326 14.1699 14.8426C14.5692 14.4526 15.1107 14.2335 15.6754 14.2335C16.24 14.2335 16.7816 14.4526 17.1808 14.8426C17.5801 15.2326 17.8045 15.7615 17.8045 16.3131C17.8045 16.8646 17.5801 17.3935 17.1808 17.7835C16.7816 18.1735 16.24 18.3926 15.6754 18.3926C15.1107 18.3926 14.5692 18.1735 14.1699 17.7835C13.7707 17.3935 13.5463 16.8646 13.5463 16.3131ZM9.65352 10.4312C8.05642 11.9912 7.15918 14.1069 7.15918 16.3131C7.15918 18.5192 8.05642 20.6349 9.65352 22.1949C11.2506 23.7548 13.4168 24.6312 15.6754 24.6312C16.9349 24.6312 18.1657 24.3587 19.285 23.8471L28.6037 32.949L33.1201 28.5376L23.6344 19.2725C23.9994 18.3362 24.1916 17.3343 24.1916 16.3131C24.1916 14.1069 23.2943 11.9912 21.6973 10.4312C20.1002 8.87125 17.9341 7.99488 15.6754 7.99487C13.4168 7.99488 11.2506 8.87125 9.65352 10.4312ZM13.5463 51.604C13.5463 51.0524 13.7707 50.5235 14.1699 50.1336C14.5692 49.7436 15.1107 49.5245 15.6754 49.5245C16.24 49.5245 16.7816 49.7436 17.1808 50.1336C17.5801 50.5235 17.8045 51.0524 17.8045 51.604C17.8045 52.1555 17.5801 52.6845 17.1808 53.0744C16.7816 53.4644 16.24 53.6835 15.6754 53.6835C15.1107 53.6835 14.5692 53.4644 14.1699 53.0744C13.7707 52.6845 13.5463 52.1555 13.5463 51.604ZM9.65352 45.7222C8.05642 47.2821 7.15918 49.3979 7.15918 51.604C7.15918 53.8101 8.05642 55.9259 9.65352 57.4858C11.2506 59.0458 13.4168 59.9221 15.6754 59.9221C17.9341 59.9221 20.1002 59.0458 21.6973 57.4858C23.2943 55.9259 24.1916 53.8101 24.1916 51.604C24.1916 50.8306 24.0813 50.0682 23.8693 49.3371L32.2813 41.1206L27.7649 36.7092L19.9064 44.385C18.6293 43.671 17.1726 43.2859 15.6754 43.2859C13.4168 43.2859 11.2506 44.1622 9.65352 45.7222ZM49.6776 16.3131C49.6776 15.7615 49.9018 15.2326 50.3011 14.8426C50.7004 14.4526 51.2419 14.2335 51.8066 14.2335C52.3713 14.2335 52.9128 14.4526 53.3121 14.8426C53.7113 15.2326 53.9356 15.7615 53.9356 16.3131C53.9356 16.8646 53.7113 17.3935 53.3121 17.7835C52.9128 18.1735 52.3713 18.3926 51.8066 18.3926C51.2419 18.3926 50.7004 18.1735 50.3011 17.7835C49.9018 17.3935 49.6776 16.8646 49.6776 16.3131ZM45.7847 10.4312C44.1876 11.9912 43.2904 14.1069 43.2904 16.3131C43.2904 17.7754 43.6847 19.1981 44.4157 20.4455L36.131 28.5376L40.6474 32.949L49.4855 24.3163C50.2342 24.5235 51.0147 24.6312 51.8066 24.6312C54.0652 24.6312 56.2313 23.7548 57.8285 22.1949C59.4256 20.6349 60.3228 18.5192 60.3228 16.3131C60.3228 14.1069 59.4256 11.9912 57.8285 10.4312C56.2313 8.87126 54.0652 7.99488 51.8066 7.99487C49.548 7.99487 47.3818 8.87125 45.7847 10.4312ZM49.6776 51.604C49.6776 51.0524 49.9018 50.5235 50.3011 50.1335C50.7004 49.7436 51.2419 49.5245 51.8066 49.5245C52.3713 49.5245 52.9128 49.7436 53.3121 50.1335C53.7113 50.5235 53.9356 51.0524 53.9356 51.604C53.9356 52.1555 53.7113 52.6844 53.3121 53.0744C52.9128 53.4644 52.3713 53.6835 51.8066 53.6835C51.2419 53.6835 50.7004 53.4644 50.3011 53.0744C49.9018 52.6845 49.6776 52.1555 49.6776 51.604ZM44.0429 48.1851C43.5516 49.2497 43.2904 50.4137 43.2904 51.604C43.2904 53.8101 44.1876 55.9259 45.7847 57.4858C47.3818 59.0458 49.548 59.9221 51.8066 59.9221C54.0652 59.9221 56.2313 59.0458 57.8285 57.4858C59.4256 55.9259 60.3228 53.8101 60.3228 51.604C60.3228 49.3979 59.4256 47.2821 57.8285 45.7222C56.2313 44.1622 54.0652 43.2859 51.8066 43.2859C50.7191 43.2859 49.6532 43.489 48.6618 43.8738L39.7497 35.1689L35.2332 39.5802L44.0429 48.1851Z" fill="url(#paint0_linear_5132_1536)"/>
<path fill-rule="evenodd" clip-rule="evenodd" d="M19.4761 22.7845L28.6037 31.6997L31.8411 28.5376L22.5808 19.4927L22.7892 18.9582C23.1154 18.1213 23.2873 17.2258 23.2873 16.3131C23.2873 14.3412 22.4853 12.4501 21.0578 11.0558C19.6303 9.66153 17.6942 8.87822 15.6754 8.87822C13.6566 8.87822 11.7205 9.66153 10.293 11.0558C8.86551 12.4501 8.06355 14.3412 8.06356 16.3131C8.06356 18.2849 8.86552 20.176 10.293 21.5702C11.7205 22.9646 13.6566 23.7479 15.6754 23.7479C16.8012 23.7479 17.9012 23.5043 18.9017 23.047L19.4761 22.7845ZM33.1201 28.5376L28.6037 32.949L19.285 23.8471C18.1657 24.3587 16.9349 24.6312 15.6754 24.6312C13.4168 24.6312 11.2506 23.7548 9.65352 22.1949C8.05642 20.6349 7.15918 18.5192 7.15918 16.3131C7.15918 14.1069 8.05642 11.9912 9.65352 10.4312C11.2506 8.87125 13.4168 7.99488 15.6754 7.99487C17.9341 7.99488 20.1002 8.87125 21.6973 10.4312C23.2943 11.9912 24.1916 14.1069 24.1916 16.3131C24.1916 17.3343 23.9994 18.3362 23.6344 19.2725L33.1201 28.5376ZM15.6754 13.3502C16.4799 13.3502 17.2515 13.6623 17.8203 14.218C18.3892 14.7736 18.7088 15.5272 18.7088 16.3131C18.7088 17.0988 18.3892 17.8524 17.8203 18.4081C17.2515 18.9638 16.4799 19.2759 15.6754 19.2759C14.8709 19.2759 14.0993 18.9638 13.5305 18.4081C12.9615 17.8524 12.6419 17.0988 12.6419 16.3131C12.6419 15.5272 12.9615 14.7736 13.5305 14.218C14.0993 13.6623 14.8709 13.3502 15.6754 13.3502ZM15.6754 14.2335C16.24 14.2335 16.7816 14.4526 17.1808 14.8426C17.5801 15.2326 17.8045 15.7615 17.8045 16.3131C17.8045 16.8646 17.5801 17.3935 17.1808 17.7835C16.7816 18.1735 16.24 18.3926 15.6754 18.3926C15.1107 18.3926 14.5692 18.1735 14.1699 17.7835C13.7707 17.3935 13.5463 16.8646 13.5463 16.3131C13.5463 15.7615 13.7707 15.2326 14.1699 14.8426C14.5692 14.4526 15.1107 14.2335 15.6754 14.2335ZM22.8545 49.079L31.0023 41.1206L27.7649 37.9585L20.0571 45.4871L19.4571 45.1516C18.3155 44.5133 17.0136 44.1692 15.6754 44.1692C13.6566 44.1692 11.7205 44.9525 10.293 46.3468C8.86552 47.7411 8.06356 49.6321 8.06356 51.604C8.06355 53.5758 8.86551 55.4669 10.293 56.8612C11.7205 58.2555 13.6566 59.0388 15.6754 59.0388C17.6942 59.0388 19.6303 58.2555 21.0578 56.8612C22.4853 55.4669 23.2873 53.5758 23.2873 51.604C23.2873 50.9126 23.1887 50.2313 22.9991 49.5778L22.8545 49.079ZM15.6754 54.5669C14.8709 54.5669 14.0993 54.2547 13.5305 53.6991C12.9615 53.1434 12.6419 52.3898 12.6419 51.604C12.6419 50.8182 12.9615 50.0646 13.5305 49.5089C14.0993 48.9533 14.8709 48.6411 15.6754 48.6411C16.4799 48.6411 17.2515 48.9533 17.8203 49.5089C18.3892 50.0646 18.7088 50.8182 18.7088 51.604C18.7088 52.3898 18.3892 53.1434 17.8203 53.6991C17.2515 54.2547 16.4799 54.5669 15.6754 54.5669ZM45.544 20.5927L37.4099 28.5376L40.6474 31.6997L49.2214 23.3251L49.732 23.4664C50.4011 23.6516 51.0987 23.7479 51.8066 23.7479C53.8254 23.7479 55.7615 22.9646 57.189 21.5702C58.6165 20.176 59.4184 18.2849 59.4184 16.3131C59.4184 14.3412 58.6165 12.4501 57.189 11.0558C55.7615 9.66154 53.8254 8.87822 51.8066 8.87822C49.7878 8.87822 47.8517 9.66153 46.4242 11.0558C44.9967 12.4501 44.1948 14.3412 44.1948 16.3131C44.1948 17.6201 44.5471 18.8917 45.2006 20.0067L45.544 20.5927ZM40.6474 32.949L36.131 28.5376L44.4157 20.4455C43.6847 19.1981 43.2904 17.7754 43.2904 16.3131C43.2904 14.1069 44.1876 11.9912 45.7847 10.4312C47.3818 8.87125 49.548 7.99487 51.8066 7.99487C54.0652 7.99488 56.2313 8.87126 57.8285 10.4312C59.4256 11.9912 60.3228 14.1069 60.3228 16.3131C60.3228 18.5192 59.4256 20.6349 57.8285 22.1949C56.2313 23.7548 54.0652 24.6312 51.8066 24.6312C51.0147 24.6312 50.2342 24.5235 49.4855 24.3163L40.6474 32.949ZM45.1242 47.9919L44.8674 48.5482C44.4282 49.4998 44.1948 50.5401 44.1948 51.604C44.1948 53.5758 44.9967 55.4669 46.4242 56.8612C47.8517 58.2555 49.7878 59.0388 51.8066 59.0388C53.8254 59.0388 55.7615 58.2555 57.189 56.8612C58.6165 55.4669 59.4184 53.5759 59.4184 51.604C59.4184 49.6321 58.6165 47.7411 57.189 46.3468C55.7615 44.9525 53.8254 44.1692 51.8066 44.1692C50.8346 44.1692 49.8818 44.3507 48.9957 44.6947L48.4429 44.9092L39.7497 36.4181L36.5122 39.5802L45.1242 47.9919ZM39.7497 35.1689L48.6618 43.8738C49.6532 43.489 50.7191 43.2859 51.8066 43.2859C54.0652 43.2858 56.2313 44.1622 57.8285 45.7222C59.4256 47.2821 60.3228 49.3979 60.3228 51.604C60.3228 53.8101 59.4256 55.9259 57.8285 57.4858C56.2313 59.0458 54.0652 59.9221 51.8066 59.9221C49.548 59.9221 47.3818 59.0458 45.7847 57.4858C44.1876 55.9259 43.2904 53.8101 43.2904 51.604C43.2904 50.4137 43.5516 49.2497 44.0429 48.1851L35.2332 39.5802L39.7497 35.1689ZM48.7732 16.3131C48.7732 15.5273 49.0928 14.7736 49.6616 14.218C50.2305 13.6623 51.0021 13.3502 51.8066 13.3502C52.6111 13.3502 53.3826 13.6623 53.9516 14.218C54.5204 14.7736 54.84 15.5272 54.84 16.3131C54.84 17.0988 54.5204 17.8524 53.9516 18.4081C53.3827 18.9638 52.6111 19.2759 51.8066 19.2759C51.0021 19.2759 50.2305 18.9638 49.6616 18.4081C49.0928 17.8524 48.7732 17.0988 48.7732 16.3131ZM48.7732 51.604C48.7732 50.8182 49.0928 50.0646 49.6616 49.5089C50.2305 48.9532 51.0021 48.6411 51.8066 48.6411C52.6111 48.6411 53.3827 48.9533 53.9516 49.5089C54.5204 50.0646 54.84 50.8182 54.84 51.604C54.84 52.3898 54.5204 53.1434 53.9516 53.6991C53.3826 54.2547 52.6111 54.5669 51.8066 54.5669C51.0021 54.5669 50.2305 54.2547 49.6616 53.6991C49.0928 53.1434 48.7732 52.3898 48.7732 51.604ZM14.1699 50.1336C13.7707 50.5235 13.5463 51.0524 13.5463 51.604C13.5463 52.1555 13.7707 52.6845 14.1699 53.0744C14.5692 53.4644 15.1107 53.6835 15.6754 53.6835C16.24 53.6835 16.7816 53.4644 17.1808 53.0744C17.5801 52.6845 17.8045 52.1555 17.8045 51.604C17.8045 51.0524 17.5801 50.5235 17.1808 50.1336C16.7816 49.7436 16.24 49.5245 15.6754 49.5245C15.1107 49.5245 14.5692 49.7436 14.1699 50.1336ZM7.15918 51.604C7.15918 49.3979 8.05642 47.2821 9.65352 45.7222C11.2506 44.1622 13.4168 43.2859 15.6754 43.2859C17.1726 43.2859 18.6293 43.671 19.9064 44.385L27.7649 36.7092L32.2813 41.1206L23.8693 49.3371C24.0813 50.0682 24.1916 50.8306 24.1916 51.604C24.1916 53.8101 23.2943 55.9259 21.6973 57.4858C20.1002 59.0458 17.9341 59.9221 15.6754 59.9221C13.4168 59.9221 11.2506 59.0458 9.65352 57.4858C8.05642 55.9259 7.15918 53.8101 7.15918 51.604ZM50.3011 14.8426C49.9018 15.2326 49.6776 15.7615 49.6776 16.3131C49.6776 16.8646 49.9018 17.3935 50.3011 17.7835C50.7004 18.1735 51.2419 18.3926 51.8066 18.3926C52.3713 18.3926 52.9128 18.1735 53.3121 17.7835C53.7113 17.3935 53.9356 16.8646 53.9356 16.3131C53.9356 15.7615 53.7113 15.2326 53.3121 14.8426C52.9128 14.4526 52.3713 14.2335 51.8066 14.2335C51.2419 14.2335 50.7004 14.4526 50.3011 14.8426ZM50.3011 50.1335C49.9018 50.5235 49.6776 51.0524 49.6776 51.604C49.6776 52.1555 49.9018 52.6845 50.3011 53.0744C50.7004 53.4644 51.2419 53.6835 51.8066 53.6835C52.3713 53.6835 52.9128 53.4644 53.3121 53.0744C53.7113 52.6844 53.9356 52.1555 53.9356 51.604C53.9356 51.0524 53.7113 50.5235 53.3121 50.1335C52.9128 49.7436 52.3713 49.5245 51.8066 49.5245C51.2419 49.5245 50.7004 49.7436 50.3011 50.1335Z" fill="url(#paint1_linear_5132_1536)"/>
<g filter="url(#filter0_d_5132_1536)">
<path fill-rule="evenodd" clip-rule="evenodd" d="M30.8858 30.9735C30.0861 31.774 29.6368 32.8598 29.6368 33.9919C29.6368 35.1241 30.0861 36.2098 30.8858 37.0104C31.6855 37.8109 32.7702 38.2606 33.9012 38.2606C35.0322 38.2606 36.1169 37.8109 36.9167 37.0104C37.7164 36.2098 38.1656 35.1241 38.1656 33.9919C38.1656 32.8598 37.7164 31.774 36.9167 30.9735C36.1169 30.1729 35.0322 29.7232 33.9012 29.7232C32.7702 29.7232 31.6855 30.1729 30.8858 30.9735ZM23.2881 33.9919C23.2881 31.1743 24.4062 28.4721 26.3966 26.4798C28.3869 24.4874 31.0864 23.3682 33.9012 23.3682C36.716 23.3682 39.4155 24.4874 41.4058 26.4798C43.3962 28.4721 44.5143 31.1743 44.5143 33.9919C44.5143 36.8095 43.3962 39.5117 41.4058 41.5041C39.4155 43.4964 36.716 44.6157 33.9012 44.6157C31.0864 44.6157 28.3869 43.4964 26.3966 41.5041C24.4062 39.5117 23.2881 36.8095 23.2881 33.9919Z" fill="url(#paint2_linear_5132_1536)"/>
</g>
<g filter="url(#filter1_d_5132_1536)">
<path fill-rule="evenodd" clip-rule="evenodd" d="M28.7378 33.9919C28.7378 32.6211 29.2819 31.3065 30.2502 30.3372C31.2185 29.3679 32.5318 28.8234 33.9012 28.8234C35.2706 28.8234 36.5839 29.3679 37.5523 30.3372C38.5206 31.3065 39.0646 32.6211 39.0646 33.9919C39.0646 35.3627 38.5206 36.6773 37.5523 37.6466C36.5839 38.6159 35.2706 39.1605 33.9012 39.1605C32.5318 39.1605 31.2185 38.6159 30.2502 37.6466C29.2819 36.6773 28.7378 35.3627 28.7378 33.9919ZM27.0322 27.1161C25.2105 28.9397 24.187 31.413 24.187 33.9919C24.187 36.5708 25.2105 39.0442 27.0322 40.8678C28.854 42.6914 31.3249 43.7158 33.9012 43.7158C36.4776 43.7158 38.9484 42.6914 40.7702 40.8678C42.592 39.0442 43.6154 36.5709 43.6154 33.9919C43.6154 31.413 42.592 28.9397 40.7702 27.1161C38.9484 25.2925 36.4776 24.268 33.9012 24.268C31.3249 24.268 28.854 25.2925 27.0322 27.1161ZM29.6368 33.9919C29.6368 32.8598 30.0861 31.774 30.8858 30.9735C31.6855 30.1729 32.7702 29.7232 33.9012 29.7232C35.0322 29.7232 36.1169 30.1729 36.9167 30.9735C37.7164 31.774 38.1656 32.8598 38.1656 33.9919C38.1656 35.1241 37.7164 36.2098 36.9167 37.0104C36.1169 37.8109 35.0322 38.2606 33.9012 38.2606C32.7702 38.2606 31.6855 37.8109 30.8858 37.0104C30.0861 36.2098 29.6368 35.1241 29.6368 33.9919ZM26.3966 26.4798C24.4062 28.4721 23.2881 31.1743 23.2881 33.9919C23.2881 36.8095 24.4062 39.5117 26.3966 41.5041C28.3869 43.4964 31.0864 44.6157 33.9012 44.6157C36.716 44.6157 39.4155 43.4964 41.4058 41.5041C43.3962 39.5117 44.5143 36.8095 44.5143 33.9919C44.5143 31.1743 43.3962 28.4721 41.4058 26.4798C39.4155 24.4874 36.716 23.3682 33.9012 23.3682C31.0864 23.3682 28.3869 24.4874 26.3966 26.4798Z" fill="url(#paint3_linear_5132_1536)"/>
</g>
<defs>
<filter id="filter0_d_5132_1536" x="18.2905" y="18.3706" width="31.2213" height="31.2427" filterUnits="userSpaceOnUse" color-interpolation-filters="sRGB">
<feFlood flood-opacity="0" result="BackgroundImageFix"/>
<feColorMatrix in="SourceAlpha" type="matrix" values="0 0 0 0 0 0 0 0 0 0 0 0 0 0 0 0 0 0 127 0" result="hardAlpha"/>
<feOffset/>
<feGaussianBlur stdDeviation="2.49879"/>
<feComposite in2="hardAlpha" operator="out"/>
<feColorMatrix type="matrix" values="0 0 0 0 0 0 0 0 0 0 0 0 0 0 0 0 0 0 0.91 0"/>
<feBlend mode="normal" in2="BackgroundImageFix" result="effect1_dropShadow_5132_1536"/>
<feBlend mode="normal" in="SourceGraphic" in2="effect1_dropShadow_5132_1536" result="shape"/>
</filter>
<filter id="filter1_d_5132_1536" x="18.2905" y="18.3706" width="31.2213" height="31.2427" filterUnits="userSpaceOnUse" color-interpolation-filters="sRGB">
<feFlood flood-opacity="0" result="BackgroundImageFix"/>
<feColorMatrix in="SourceAlpha" type="matrix" values="0 0 0 0 0 0 0 0 0 0 0 0 0 0 0 0 0 0 127 0" result="hardAlpha"/>
<feOffset/>
<feGaussianBlur stdDeviation="2.49879"/>
<feComposite in2="hardAlpha" operator="out"/>
<feColorMatrix type="matrix" values="0 0 0 0 0 0 0 0 0 0 0 0 0 0 0 0 0 0 0.91 0"/>
<feBlend mode="normal" in2="BackgroundImageFix" result="effect1_dropShadow_5132_1536"/>
<feBlend mode="normal" in="SourceGraphic" in2="effect1_dropShadow_5132_1536" result="shape"/>
</filter>
<linearGradient id="paint0_linear_5132_1536" x1="9.65352" y1="10.4312" x2="56.6951" y2="58.5928" gradientUnits="userSpaceOnUse">
<stop stop-color="#46DA93"/>
<stop offset="0.229167" stop-color="#46DA9C"/>
<stop offset="1" stop-color="#0D2E1E"/>
</linearGradient>
<linearGradient id="paint1_linear_5132_1536" x1="8.29652" y1="23.686" x2="72.2158" y2="34.4209" gradientUnits="userSpaceOnUse">
<stop stop-color="#7EFFFF"/>
<stop offset="1" stop-color="#2AA169"/>
</linearGradient>
<linearGradient id="paint2_linear_5132_1536" x1="26.3966" y1="26.4798" x2="41.4209" y2="41.489" gradientUnits="userSpaceOnUse">
<stop stop-color="#FF4EA3"/>
<stop offset="0.15625" stop-color="#FF469F"/>
<stop offset="1" stop-color="#401127"/>
</linearGradient>
<linearGradient id="paint3_linear_5132_1536" x1="26.3966" y1="26.4798" x2="41.4209" y2="41.489" gradientUnits="userSpaceOnUse">
<stop stop-color="#FF99FF"/>
<stop offset="1" stop-color="#8B2556"/>
</linearGradient>
</defs>
</svg>

