<svg width="55" height="55" viewBox="0 0 55 55" fill="none" xmlns="http://www.w3.org/2000/svg">
<g clip-path="url(#clip0_2997_3275)">
<path fill-rule="evenodd" clip-rule="evenodd" d="M24.403 20.9017C35.6628 17.1204 45.7251 17.878 46.8815 22.6012C48.0365 27.3284 39.8456 34.2227 28.5871 38.0108C17.3272 41.792 7.25946 41.0344 6.10858 36.3058C4.95358 31.584 13.1445 24.6843 24.403 20.9017Z" fill="url(#paint0_linear_2997_3275)"/>
<path fill-rule="evenodd" clip-rule="evenodd" d="M9.75757 8.17185C10.9304 7.72222 14.3927 10.6468 16.4786 12.1002C18.4077 11.4347 21.3763 10.7046 23.9861 11.1198C25.4078 11.3467 26.6756 11.7386 27.6504 12.2638C28.7491 11.5103 34.6863 6.91647 35.0754 8.4991C35.3669 9.70635 35.3312 10.8806 35.1634 12.0191C34.8486 14.1132 34.3082 16.2678 33.7623 18.4046C33.4956 19.4606 32.9896 20.4808 32.8919 21.4337C32.7407 22.8747 33.2343 24.4216 33.5891 25.688C33.9479 26.9612 34.1349 28.328 34.9888 29.208C39.6363 32.8215 43.7324 38.0217 44.5918 40.5902C44.9521 41.671 44.7719 42.529 44.0693 43.1298C42.8896 44.1391 41.2506 43.9645 39.9677 43.0473C39.1482 42.4589 38.0496 41.2846 37.1737 40.3455C36.5091 39.6539 35.8087 38.9976 35.0754 38.3792C34.7042 38.0685 34.5351 38.0286 34.2972 37.9942C33.9081 37.9406 33.1284 38.2445 32.5482 38.4012C31.0151 38.8165 29.1437 39.1313 27.3892 39.3596C28.0574 40.1708 29.4874 41.3148 30.3592 42.3062C30.8583 42.8782 31.5609 43.7197 31.5788 44.7647C31.5953 45.6516 30.5792 46.9235 27.9117 46.5618C27.1637 46.4628 24.6117 45.3601 24.1593 45.0851C13.2899 38.6295 12.8293 32.4186 11.5877 21.9122C11.2508 19.0151 9.93082 15.3741 9.40832 12.1813C9.19382 10.8393 8.68782 8.6201 9.75757 8.17185Z" fill="white"/>
<path d="M29.5974 19.5717C29.0447 19.635 28.5978 20.6332 27.9653 21.0939C27.0303 21.7772 25.647 21.5146 25.7227 20.9839C25.7914 20.4531 26.0939 20.4119 26.9079 20.2895C27.7205 20.1657 29.1272 19.525 28.6913 17.2067C28.3063 15.1814 26.0307 15.6365 26.0307 15.6365C26.0307 15.6365 25.6237 14.8844 24.6185 14.8074C23.6244 14.7317 22.7994 16.0215 22.7994 16.0215C22.7994 16.0215 22.149 16.4202 21.8355 15.6021C21.6788 15.1937 20.8359 14.5516 19.9765 14.9077C19.1048 15.2694 18.3444 16.1452 18.5589 17.0899C18.7734 18.0249 19.7387 18.392 20.4055 18.3452C21.0738 18.2985 21.4987 18.6615 21.4409 18.975C21.3419 19.4782 19.993 19.8399 18.6923 19.0919C17.9498 18.6656 17.6294 17.4817 17.6528 17.2246L17.6995 16.6237C17.6995 16.6237 15.6192 16.6237 15.1365 18.3796C14.6622 20.1369 15.8584 20.9949 16.5734 20.9261C17.0492 20.8794 16.6889 20.2207 17.265 19.6776C17.4273 19.5264 17.8975 19.426 18.1134 19.712C18.3279 19.998 18.2468 20.3486 17.9099 20.5411C17.573 20.7336 17.3228 21.604 18.2757 22.1526C18.7047 22.3974 18.0488 23.6995 17.2884 22.7067C16.8402 22.1292 16.8869 21.8721 16.4112 21.9244C15.934 21.9711 15.3593 21.5105 15.2603 21.4404C15.1668 21.3702 14.6099 21.6672 14.8244 22.3162C15.0389 22.9625 15.01 23.8287 17.1894 23.903C17.6432 23.9264 17.7944 24.0034 17.8865 24.365C17.9787 24.7266 19.0649 26.378 20.6695 25.4925C22.2728 24.6042 21.302 23.21 20.6049 23.0037C20.1635 22.8759 19.9078 22.3039 20.2392 21.9587C20.4179 21.7731 20.6049 21.8432 21.082 22.0357C22.446 22.5967 23.0799 24.3059 22.1917 25.0195C21.8204 25.3165 22.5739 25.8129 23.1954 25.8995C23.8183 25.993 26.2177 25.7482 26.4789 24.4049C26.5944 23.8164 26.5202 23.4479 26.5367 23.1151C26.56 22.4964 27.4607 22.4207 27.484 22.8291C27.5074 23.2375 27.4717 23.331 27.6628 23.507C28.1867 23.98 29.5878 23.3722 29.9934 22.4331C30.4169 21.4871 30.3014 19.4851 29.5988 19.5731L29.5974 19.5717ZM23.3687 22.198C23.1198 22.198 22.7884 21.8364 22.9685 21.6315C23.381 21.1764 23.4443 20.5287 23.4154 20.1314C23.3742 19.6006 23.0675 19.3957 23.0497 19.0864C23.0387 18.8182 23.2422 18.6491 23.4855 18.5666C24.0135 18.3975 24.4095 19.6006 24.3683 20.6332C24.3449 21.4624 23.9379 22.198 23.3687 22.198ZM23.9324 16.0861C24.118 15.5966 24.4274 15.6434 24.5539 15.6544C24.6818 15.6599 25.0365 15.7946 25.0187 16.1219C25.0187 16.1219 24.8262 17.1132 25.2112 17.4226C25.7914 17.8956 26.5587 17.6976 26.7388 17.6976C26.989 17.6921 27.2847 18.2806 26.8667 18.5556C26.4487 18.8306 25.1988 18.9351 24.5305 18.2572C23.8155 17.545 23.7578 16.5481 23.9324 16.0861Z" fill="white" stroke="#DF6F28" stroke-width="0.2915" stroke-miterlimit="10"/>
</g>
<defs>
<linearGradient id="paint0_linear_2997_3275" x1="17.8841" y1="20.8054" x2="35.1871" y2="38.0259" gradientUnits="userSpaceOnUse">
<stop stop-color="#DC631E"/>
<stop offset="0.98" stop-color="#FCF5F0"/>
</linearGradient>
<clipPath id="clip0_2997_3275">
<rect width="44" height="38.5" fill="white" transform="translate(6 8.125)"/>
</clipPath>
</defs>
</svg>
