<svg width="55" height="55" viewBox="0 0 55 55" fill="none" xmlns="http://www.w3.org/2000/svg">
<path d="M31.6556 19.6479C31.6556 21.5037 30.0187 23.0082 27.9995 23.0082C25.9803 23.0082 24.3435 21.5037 24.3435 19.6479C24.3435 17.792 25.9803 16.2875 27.9995 16.2875C30.0187 16.2875 31.6556 17.792 31.6556 19.6479Z" fill="white"/>
<path d="M34.7023 31.9129C34.7023 34.511 31.7014 34.6014 27.9996 34.6014C24.2978 34.6014 21.2969 34.511 21.2969 31.9129C21.2969 29.3147 22.9725 25.0244 27.9996 25.0244C33.0267 25.0244 34.7023 29.3147 34.7023 31.9129Z" fill="white"/>
<path d="M18.2508 27.8807C20.2699 27.8807 21.9068 26.3762 21.9068 24.5204C21.9068 22.6645 20.2699 21.16 18.2508 21.16C16.2316 21.16 14.5947 22.6645 14.5947 24.5204C14.5947 26.3762 16.2316 27.8807 18.2508 27.8807Z" fill="white"/>
<path d="M41.4048 24.5204C41.4048 26.3762 39.7679 27.8807 37.7488 27.8807C35.7296 27.8807 34.0928 26.3762 34.0928 24.5204C34.0928 22.6646 35.7296 21.1601 37.7488 21.1601C39.7679 21.1601 41.4048 22.6646 41.4048 24.5204Z" fill="white"/>
<path fill-rule="evenodd" clip-rule="evenodd" d="M27.9999 45.5294C38.8001 45.5294 47.5554 37.6754 47.5554 27.987C47.5554 22.5222 44.7699 17.6411 40.4031 14.4238C37.0955 11.9469 32.7541 10.4445 27.9999 10.4445C23.2457 10.4445 18.9042 11.9469 15.5966 14.4238C11.2298 17.6411 8.44434 22.5222 8.44434 27.987C8.44434 37.6754 17.1997 45.5294 27.9999 45.5294ZM27.9999 41.6471C38.0849 41.6471 46.0543 34.7181 46.0543 26.4052C46.0543 18.0924 38.0849 11.1634 27.9999 11.1634C17.9149 11.1634 9.94551 18.0924 9.94551 26.4052C9.94551 34.7181 17.9149 41.6471 27.9999 41.6471Z" fill="white"/>
</svg>
