<svg width="43" height="52" viewBox="0 0 43 52" fill="none" xmlns="http://www.w3.org/2000/svg">
<g id="El Dorado logo">
<g id="logo el dorado">
<path id="Vector 3420" d="M4.10172 46.032H0.790527V51.128H3.89764V50.3203H1.65904V48.9567H3.39605V48.251H1.65904V46.9005H4.10172V46.032Z" fill="url(#paint0_linear_3827_296)"/>
<g id="Vector 3421">
<path d="M5.89325 45.9772H4.80762V51.0732H8.33593V50.3675H5.89325V45.9772Z" fill="white"/>
<path d="M5.89325 45.9772H4.80762V51.0732H8.33593V50.3675H5.89325V45.9772Z" fill="url(#paint1_linear_3827_296)"/>
</g>
<path id="Exclude" fill-rule="evenodd" clip-rule="evenodd" d="M11.1048 45.9772H13.4932C14.3617 45.9772 15.7188 46.7198 15.7188 48.6305C15.7188 50.5412 14.5833 51.1209 13.6018 51.1209H11.1048V45.9772ZM12.0278 46.8938H13.4365C13.9883 46.8938 14.7875 47.3049 14.7875 48.6483C14.7875 49.9916 13.9538 50.392 13.5055 50.3666H12.0278V46.8938Z" fill="url(#paint2_linear_3827_296)"/>
<g id="Exclude_2">
<path fill-rule="evenodd" clip-rule="evenodd" d="M32.3284 45.9772H34.7168C35.7555 45.9772 36.9424 46.7198 36.9424 48.6305C36.9424 50.5412 35.5311 51.0551 34.8254 51.0189H32.3284V45.9772ZM33.2514 46.8936H34.6602C35.2119 46.8936 36.074 47.3439 36.074 48.6872C36.074 50.0305 35.1774 50.3918 34.7291 50.3664H33.2514V46.8936Z" fill="white"/>
<path fill-rule="evenodd" clip-rule="evenodd" d="M32.3284 45.9772H34.7168C35.7555 45.9772 36.9424 46.7198 36.9424 48.6305C36.9424 50.5412 35.5311 51.0551 34.8254 51.0189H32.3284V45.9772ZM33.2514 46.8936H34.6602C35.2119 46.8936 36.074 47.3439 36.074 48.6872C36.074 50.0305 35.1774 50.3918 34.7291 50.3664H33.2514V46.8936Z" fill="url(#paint3_linear_3827_296)"/>
</g>
<path id="Subtract" fill-rule="evenodd" clip-rule="evenodd" d="M18.7581 51.1277C20.0772 51.1277 21.2485 49.9612 21.2485 48.5222C21.2485 47.0832 20.0772 45.9167 18.7581 45.9167C17.439 45.9167 16.2677 47.0832 16.2677 48.5222C16.2677 49.9612 17.439 51.1277 18.7581 51.1277ZM18.7576 50.3743C19.657 50.3743 20.2775 49.6258 20.2775 48.5765C20.2775 47.5272 19.657 46.7787 18.7576 46.7787C17.8582 46.7787 17.2377 47.5272 17.2377 48.5765C17.2377 49.6258 17.8582 50.3743 18.7576 50.3743Z" fill="url(#paint4_linear_3827_296)"/>
<path id="Subtract_2" fill-rule="evenodd" clip-rule="evenodd" d="M40.0906 51.1278C41.4097 51.1278 42.5811 49.9612 42.5811 48.5222C42.5811 47.0833 41.4097 45.9167 40.0906 45.9167C38.7715 45.9167 37.6002 47.0833 37.6002 48.5222C37.6002 49.9612 38.7715 51.1278 40.0906 51.1278ZM40.091 50.3744C40.9903 50.3744 41.6109 49.6258 41.6109 48.5765C41.6109 47.5273 40.9903 46.7787 40.091 46.7787C39.1916 46.7787 38.5711 47.5273 38.5711 48.5765C38.5711 49.6258 39.1916 50.3744 40.091 50.3744Z" fill="url(#paint5_linear_3827_296)"/>
<path id="Subtract_3" fill-rule="evenodd" clip-rule="evenodd" d="M22.0692 45.9772H24.4033C25.3261 45.9772 25.9774 46.6221 25.9774 47.7077C25.9774 48.5762 25.3803 49.0648 24.8918 49.0648L26.3574 51.1275H25.1089L23.8605 49.1733H23.1548V51.1275H22.0692V45.9772ZM23.1552 46.6762H24.0934C24.4263 46.6762 24.9465 46.9154 24.9465 47.6291C24.9465 48.3427 24.4806 48.52 24.135 48.5211H23.1552V46.6762Z" fill="url(#paint6_linear_3827_296)"/>
<path id="Subtract_4" fill-rule="evenodd" clip-rule="evenodd" d="M26.6284 51.0954L28.5829 45.9908H29.7229L31.8398 51.0737H30.5914L30.0485 49.8795H27.8773L27.3884 51.0954H26.6284ZM28.7996 47.3281H29.071L29.831 49.1737H28.9625H28.094L28.7996 47.3281Z" fill="url(#paint7_linear_3827_296)"/>
</g>
<g id="Vector 3451">
<path d="M14.7699 38.2641H2.93359V41.8353H13.8866L14.7699 38.2641Z" fill="#D9D9D9"/>
<path d="M14.7699 38.2641H2.93359V41.8353H13.8866L14.7699 38.2641Z" fill="url(#paint8_linear_3827_296)"/>
</g>
<path id="Vector 3452" d="M27.9328 38.2641H39.8711V41.8353H28.7502L27.9328 38.2641Z" fill="url(#paint9_linear_3827_296)"/>
<g id="Vector 3453">
<path d="M15.688 34.1826H4.87207V36.0193H15.2362L15.688 34.1826Z" fill="#D9D9D9"/>
<path d="M15.688 34.1826H4.87207V36.0193H15.2362L15.688 34.1826Z" fill="url(#paint10_linear_3827_296)"/>
</g>
<path id="Vector 3454" d="M27.1162 34.0803H37.9321V35.8149H27.5339L27.1162 34.0803Z" fill="url(#paint11_linear_3827_296)"/>
<g id="Vector 3455">
<path d="M16.6066 29.9993H6.81104V32.1421H16.0723L16.6066 29.9993Z" fill="#D9D9D9"/>
<path d="M16.6066 29.9993H6.81104V32.1421H16.0723L16.6066 29.9993Z" fill="url(#paint12_linear_3827_296)"/>
</g>
<path id="Vector 3456" d="M26.3001 29.9993H35.8916V32.1421H26.8229L26.3001 29.9993Z" fill="url(#paint13_linear_3827_296)"/>
<g id="Vector 3457">
<path d="M17.4231 26.2236H8.44385V28.3663H16.8949L17.4231 26.2236Z" fill="#D9D9D9"/>
<path d="M17.4231 26.2236H8.44385V28.3663H16.8949L17.4231 26.2236Z" fill="url(#paint14_linear_3827_296)"/>
<path d="M17.4231 26.2236H8.44385V28.3663H16.8949L17.4231 26.2236Z" fill="url(#paint15_linear_3827_296)"/>
</g>
<path id="Vector 3458" d="M25.3816 26.2236H34.3608V28.3663H25.9103L25.3816 26.2236Z" fill="url(#paint16_linear_3827_296)"/>
<g id="Vector 3459">
<path d="M17.9331 22.2442L10.3823 22.3462V24.489H17.5012L17.9331 22.2442Z" fill="#D9D9D9"/>
<path d="M17.9331 22.2442L10.3823 22.3462V24.489H17.5012L17.9331 22.2442Z" fill="url(#paint17_linear_3827_296)"/>
</g>
<path id="Vector 3460" d="M24.667 22.3464H32.2178V24.4892H25.0989L24.667 22.3464Z" fill="url(#paint18_linear_3827_296)"/>
<g id="Vector 3461">
<path d="M22.4735 22.3464H20.2287L16.1982 41.8355H26.708L22.4735 22.3464Z" fill="#D9D9D9"/>
<path d="M22.4735 22.3464H20.2287L16.1982 41.8355H26.708L22.4735 22.3464Z" fill="url(#paint19_linear_3827_296)"/>
</g>
<g id="Vector 3462">
<path d="M18.5419 20.4077H15.1777V13.6732H27.2181V20.4077H23.8269V17.0405H18.5419V20.4077Z" fill="#D9D9D9"/>
<path d="M18.5419 20.4077H15.1777V13.6732H27.2181V20.4077H23.8269V17.0405H18.5419V20.4077Z" fill="url(#paint20_linear_3827_296)"/>
</g>
<g id="Vector 3463">
<path d="M6.09644 23.979L5.56585 20.9179L0.790527 23.6189L6.09644 23.979Z" fill="#D9D9D9"/>
<path d="M6.09644 23.979L5.56585 20.9179L0.790527 23.6189L6.09644 23.979Z" fill="url(#paint21_linear_3827_296)"/>
</g>
<g id="Vector 3464">
<path d="M5.59792 18.4688L6.30084 15.6118L3.1377 16.5046L5.59792 18.4688Z" fill="#D9D9D9"/>
<path d="M5.59792 18.4688L6.30084 15.6118L3.1377 16.5046L5.59792 18.4688Z" fill="url(#paint22_linear_3827_296)"/>
</g>
<g id="Vector 3465">
<path d="M6.80196 13.4691L8.74967 10.2366L2.72949 8.97946L6.80196 13.4691Z" fill="#D9D9D9"/>
<path d="M6.80196 13.4691L8.74967 10.2366L2.72949 8.97946L6.80196 13.4691Z" fill="url(#paint23_linear_3827_296)"/>
</g>
<g id="Vector 3466">
<path d="M12.525 6.71659L10.0041 8.87737L9.46387 5.81626L12.525 6.71659Z" fill="#D9D9D9"/>
<path d="M12.525 6.71659L10.0041 8.87737L9.46387 5.81626L12.525 6.71659Z" fill="url(#paint24_linear_3827_296)"/>
</g>
<g id="Vector 3467">
<path d="M17.4229 4.20936L14.4101 5.61236L14.0557 0.000335693L17.4229 4.20936Z" fill="#D9D9D9"/>
<path d="M17.4229 4.20936L14.4101 5.61236L14.0557 0.000335693L17.4229 4.20936Z" fill="url(#paint25_linear_3827_296)"/>
</g>
<g id="Vector 3468">
<path d="M22.9327 4.08181H19.9736L21.3661 1.42886L22.9327 4.08181Z" fill="#D9D9D9"/>
<path d="M22.9327 4.08181H19.9736L21.3661 1.42886L22.9327 4.08181Z" fill="url(#paint26_linear_3827_296)"/>
</g>
<g id="Vector 3469">
<path d="M28.2894 5.81644L25.0752 4.40647L28.6465 0.000335693L28.2894 5.81644Z" fill="#D9D9D9"/>
<path d="M28.2894 5.81644L25.0752 4.40647L28.6465 0.000335693L28.2894 5.81644Z" fill="url(#paint27_linear_3827_296)"/>
</g>
<g id="Vector 3470">
<path d="M32.7162 8.87755L30.2793 6.88217L33.2384 5.61237L32.7162 8.87755Z" fill="#D9D9D9"/>
<path d="M32.7162 8.87755L30.2793 6.88217L33.2384 5.61237L32.7162 8.87755Z" fill="url(#paint28_linear_3827_296)"/>
</g>
<g id="Vector 3471">
<path d="M35.7383 13.265L33.9526 10.2483L39.6667 9.18357L35.7383 13.265Z" fill="#D9D9D9"/>
<path d="M35.7383 13.265L33.9526 10.2483L39.6667 9.18357L35.7383 13.265Z" fill="url(#paint29_linear_3827_296)"/>
</g>
<g id="Vector 3472">
<path d="M36.8549 18.775L36.5034 15.6118L39.6666 16.6662L36.8549 18.775Z" fill="#D9D9D9"/>
<path d="M36.8549 18.775L36.5034 15.6118L39.6666 16.6662L36.8549 18.775Z" fill="url(#paint30_linear_3827_296)"/>
</g>
<g id="Vector 3473">
<path d="M42.319 23.6164L36.9621 20.714L36.605 23.9792L42.319 23.6164Z" fill="#D9D9D9"/>
<path d="M42.319 23.6164L36.9621 20.714L36.605 23.9792L42.319 23.6164Z" fill="url(#paint31_linear_3827_296)"/>
</g>
</g>
<defs>
<linearGradient id="paint0_linear_3827_296" x1="0.0305822" y1="48.8481" x2="4.10172" y2="49.5538" gradientUnits="userSpaceOnUse">
<stop stop-color="#B59143"/>
<stop offset="1" stop-color="#F1DB96"/>
</linearGradient>
<linearGradient id="paint1_linear_3827_296" x1="3.99784" y1="48.7934" x2="8.31886" y2="49.5915" gradientUnits="userSpaceOnUse">
<stop stop-color="#B59143"/>
<stop offset="1" stop-color="#F1DB96"/>
</linearGradient>
<linearGradient id="paint2_linear_3827_296" x1="16.7777" y1="48.7727" x2="11.2389" y2="50.0715" gradientUnits="userSpaceOnUse">
<stop stop-color="#B59143"/>
<stop offset="1" stop-color="#F1DB96"/>
</linearGradient>
<linearGradient id="paint3_linear_3827_296" x1="38.0013" y1="48.7182" x2="32.4741" y2="50.0401" gradientUnits="userSpaceOnUse">
<stop stop-color="#B59143"/>
<stop offset="1" stop-color="#F1DB96"/>
</linearGradient>
<linearGradient id="paint4_linear_3827_296" x1="22.3917" y1="48.7488" x2="16.4544" y2="50.2323" gradientUnits="userSpaceOnUse">
<stop stop-color="#B59143"/>
<stop offset="1" stop-color="#F1DB96"/>
</linearGradient>
<linearGradient id="paint5_linear_3827_296" x1="43.7242" y1="48.7488" x2="37.7869" y2="50.2324" gradientUnits="userSpaceOnUse">
<stop stop-color="#B59143"/>
<stop offset="1" stop-color="#F1DB96"/>
</linearGradient>
<linearGradient id="paint6_linear_3827_296" x1="27.3416" y1="48.7763" x2="22.1564" y2="49.9049" gradientUnits="userSpaceOnUse">
<stop stop-color="#B59143"/>
<stop offset="1" stop-color="#F1DB96"/>
</linearGradient>
<linearGradient id="paint7_linear_3827_296" x1="33.0359" y1="48.765" x2="26.8748" y2="50.4094" gradientUnits="userSpaceOnUse">
<stop stop-color="#B59143"/>
<stop offset="1" stop-color="#F1DB96"/>
</linearGradient>
<linearGradient id="paint8_linear_3827_296" x1="0.217071" y1="40.205" x2="8.77943" y2="47.6236" gradientUnits="userSpaceOnUse">
<stop stop-color="#B59143"/>
<stop offset="1" stop-color="#F1DB96"/>
</linearGradient>
<linearGradient id="paint9_linear_3827_296" x1="27.22" y1="38.9783" x2="36.1991" y2="33.3849" gradientUnits="userSpaceOnUse">
<stop stop-color="#B59143"/>
<stop offset="1" stop-color="#F1DB96"/>
</linearGradient>
<linearGradient id="paint10_linear_3827_296" x1="2.38973" y1="35.1808" x2="6.45437" y2="41.4382" gradientUnits="userSpaceOnUse">
<stop stop-color="#B59143"/>
<stop offset="1" stop-color="#F1DB96"/>
</linearGradient>
<linearGradient id="paint11_linear_3827_296" x1="26.4705" y1="34.4272" x2="31.2752" y2="28.8444" gradientUnits="userSpaceOnUse">
<stop stop-color="#B59143"/>
<stop offset="1" stop-color="#F1DB96"/>
</linearGradient>
<linearGradient id="paint12_linear_3827_296" x1="4.56288" y1="31.1638" x2="9.67186" y2="37.2694" gradientUnits="userSpaceOnUse">
<stop stop-color="#B59143"/>
<stop offset="1" stop-color="#F1DB96"/>
</linearGradient>
<linearGradient id="paint13_linear_3827_296" x1="25.7275" y1="30.4279" x2="31.6324" y2="25.5024" gradientUnits="userSpaceOnUse">
<stop stop-color="#B59143"/>
<stop offset="1" stop-color="#F1DB96"/>
</linearGradient>
<linearGradient id="paint14_linear_3827_296" x1="6.38304" y1="27.3881" x2="11.5518" y2="33.0504" gradientUnits="userSpaceOnUse">
<stop stop-color="#B59143"/>
<stop offset="1" stop-color="#F1DB96"/>
</linearGradient>
<linearGradient id="paint15_linear_3827_296" x1="6.38304" y1="27.3881" x2="11.5518" y2="33.0504" gradientUnits="userSpaceOnUse">
<stop stop-color="#B59143"/>
<stop offset="1" stop-color="#F1DB96"/>
</linearGradient>
<linearGradient id="paint16_linear_3827_296" x1="24.8455" y1="26.6521" x2="30.6687" y2="22.1048" gradientUnits="userSpaceOnUse">
<stop stop-color="#B59143"/>
<stop offset="1" stop-color="#F1DB96"/>
</linearGradient>
<linearGradient id="paint17_linear_3827_296" x1="8.62595" y1="23.5107" x2="13.8041" y2="28.3453" gradientUnits="userSpaceOnUse">
<stop stop-color="#B59143"/>
<stop offset="1" stop-color="#F1DB96"/>
</linearGradient>
<linearGradient id="paint18_linear_3827_296" x1="24.1081" y1="22.775" x2="29.645" y2="19.09" gradientUnits="userSpaceOnUse">
<stop stop-color="#B59143"/>
<stop offset="1" stop-color="#F1DB96"/>
</linearGradient>
<linearGradient id="paint19_linear_3827_296" x1="22.4329" y1="38.1148" x2="21.4527" y2="24.4082" gradientUnits="userSpaceOnUse">
<stop stop-color="#B59143"/>
<stop offset="1" stop-color="#F1DB96"/>
</linearGradient>
<linearGradient id="paint20_linear_3827_296" x1="12.4144" y1="17.3333" x2="24.929" y2="23.1825" gradientUnits="userSpaceOnUse">
<stop stop-color="#B59143"/>
<stop offset="1" stop-color="#F1DB96"/>
</linearGradient>
<linearGradient id="paint21_linear_3827_296" x1="-0.427224" y1="22.5815" x2="5.14776" y2="25.1077" gradientUnits="userSpaceOnUse">
<stop stop-color="#B59143"/>
<stop offset="1" stop-color="#F1DB96"/>
</linearGradient>
<linearGradient id="paint22_linear_3827_296" x1="2.41173" y1="17.1645" x2="6.10804" y2="18.2344" gradientUnits="userSpaceOnUse">
<stop stop-color="#B59143"/>
<stop offset="1" stop-color="#F1DB96"/>
</linearGradient>
<linearGradient id="paint23_linear_3827_296" x1="1.34781" y1="11.4195" x2="8.13771" y2="13.7996" gradientUnits="userSpaceOnUse">
<stop stop-color="#B59143"/>
<stop offset="1" stop-color="#F1DB96"/>
</linearGradient>
<linearGradient id="paint24_linear_3827_296" x1="8.76132" y1="7.47991" x2="12.3901" y2="8.42853" gradientUnits="userSpaceOnUse">
<stop stop-color="#B59143"/>
<stop offset="1" stop-color="#F1DB96"/>
</linearGradient>
<linearGradient id="paint25_linear_3827_296" x1="13.2829" y1="3.05035" x2="17.4449" y2="3.70317" gradientUnits="userSpaceOnUse">
<stop stop-color="#B59143"/>
<stop offset="1" stop-color="#F1DB96"/>
</linearGradient>
<linearGradient id="paint26_linear_3827_296" x1="19.2945" y1="2.87068" x2="22.7484" y2="3.87777" gradientUnits="userSpaceOnUse">
<stop stop-color="#B59143"/>
<stop offset="1" stop-color="#F1DB96"/>
</linearGradient>
<linearGradient id="paint27_linear_3827_296" x1="24.2556" y1="3.16126" x2="28.6648" y2="3.86904" gradientUnits="userSpaceOnUse">
<stop stop-color="#B59143"/>
<stop offset="1" stop-color="#F1DB96"/>
</linearGradient>
<linearGradient id="paint28_linear_3827_296" x1="29.6002" y1="7.38693" x2="33.1485" y2="8.22758" gradientUnits="userSpaceOnUse">
<stop stop-color="#B59143"/>
<stop offset="1" stop-color="#F1DB96"/>
</linearGradient>
<linearGradient id="paint29_linear_3827_296" x1="32.6412" y1="11.4018" x2="39.023" y2="13.7374" gradientUnits="userSpaceOnUse">
<stop stop-color="#B59143"/>
<stop offset="1" stop-color="#F1DB96"/>
</linearGradient>
<linearGradient id="paint30_linear_3827_296" x1="35.7775" y1="17.3309" x2="39.5271" y2="18.3112" gradientUnits="userSpaceOnUse">
<stop stop-color="#B59143"/>
<stop offset="1" stop-color="#F1DB96"/>
</linearGradient>
<linearGradient id="paint31_linear_3827_296" x1="35.2936" y1="22.4886" x2="41.2777" y2="25.2262" gradientUnits="userSpaceOnUse">
<stop stop-color="#B59143"/>
<stop offset="1" stop-color="#F1DB96"/>
</linearGradient>
</defs>
</svg>
