<svg width="93" height="25" viewBox="0 0 93 25" fill="none" xmlns="http://www.w3.org/2000/svg">
<g id="Artboard">
<g id="Group-16">
<path id="Fill-1" fill-rule="evenodd" clip-rule="evenodd" d="M0.611328 0.47644V18.4155H3.84494V11.2056H11.9107V8.24616H3.84494V3.43811V3.43592H12.8854V0.47644H0.611328Z" fill="white"/>
<path id="Fill-2" fill-rule="evenodd" clip-rule="evenodd" d="M15.0884 18.7302H18.3929V5.35461H15.0884V18.7302Z" fill="white"/>
<g id="Group-15">
<path id="Fill-3" fill-rule="evenodd" clip-rule="evenodd" d="M29.0636 9.8096C29.0636 9.09722 28.8565 8.50713 28.4437 8.03859C28.0317 7.57005 27.4634 7.33873 26.7403 7.33873C26.0173 7.33873 25.449 7.573 25.0369 8.03859C24.6242 8.50418 24.417 9.09501 24.417 9.8096C24.417 10.522 24.6219 11.1099 25.0369 11.5681C25.449 12.0263 26.0173 12.2554 26.7403 12.2554C27.4634 12.2554 28.0317 12.0263 28.4437 11.5681C28.8587 11.1099 29.0636 10.5242 29.0636 9.8096ZM30.4538 20.3561C30.4538 19.9472 30.3447 19.6334 30.125 19.4146C29.9054 19.1929 29.6415 19.033 29.3305 18.9313C29.0194 18.8289 28.6811 18.7693 28.3206 18.7545C27.9573 18.7368 27.627 18.7295 27.3226 18.7295H24.849C24.5106 18.8319 24.2291 19.0234 24.0021 19.3026C23.775 19.584 23.6615 19.9347 23.6615 20.3583C23.6615 20.7819 23.775 21.1134 24.0021 21.3521C24.2291 21.5893 24.5106 21.7735 24.849 21.9002C25.1851 22.0276 25.5477 22.1072 25.9354 22.1418C26.3231 22.1765 26.6688 22.1919 26.9696 22.1919C27.2887 22.1919 27.6514 22.1794 28.056 22.1544C28.4614 22.1293 28.8388 22.0571 29.1919 21.9378C29.5449 21.8184 29.8442 21.6365 30.0882 21.3897C30.3299 21.1407 30.4538 20.7966 30.4538 20.3561ZM33.4316 20.2787C33.4316 21.1458 33.2385 21.8656 32.8508 22.4431C32.4638 23.0214 31.967 23.4745 31.3619 23.806C30.7575 24.1368 30.0734 24.3711 29.3179 24.5059C28.5602 24.6429 27.8194 24.7099 27.0956 24.7099C26.2885 24.7099 25.4836 24.6503 24.6861 24.5309C23.8863 24.4108 23.1426 24.1073 22.4512 23.6137C21.9478 23.2579 21.5557 22.8417 21.2785 22.3658C21.0021 21.8906 20.8613 21.3396 20.8613 20.7097C20.8613 20.1321 20.9977 19.601 21.2667 19.1177C21.5358 18.6344 21.9235 18.2661 22.4269 18.0097C22.0075 17.7732 21.681 17.4439 21.4539 17.0285C21.2269 16.6122 21.1134 16.1835 21.1134 15.7407C21.1134 14.6018 21.6345 13.7126 22.679 13.065C22.2736 12.6569 21.9552 12.1832 21.7208 11.6381C21.4834 11.0951 21.3677 10.4844 21.3677 9.80444C21.3677 9.02281 21.5107 8.32737 21.7974 7.71518C22.0834 7.10225 22.4711 6.59394 22.9606 6.18581C23.4492 5.77694 24.0168 5.46827 24.664 5.2561C25.3104 5.04467 26.0047 4.93785 26.7455 4.93785C27.2836 4.93785 27.8069 5.01005 28.3103 5.15444C28.8145 5.29883 29.2855 5.49774 29.7255 5.7519C30.0115 5.17433 30.3896 4.75589 30.8614 4.49142C31.3324 4.22768 31.8461 4.09802 32.4019 4.09802H32.8316C33.0166 4.09802 33.1596 4.1157 33.2606 4.14812V6.61898L33.0093 6.59394C32.6385 6.59394 32.3053 6.65361 32.0112 6.77295C31.7179 6.89303 31.5174 7.11478 31.4194 7.43598C31.8734 8.18298 32.1004 8.98008 32.1004 9.82949C32.1004 10.5942 31.9523 11.2741 31.6582 11.8672C31.3648 12.4624 30.9719 12.9634 30.4855 13.3693C29.9968 13.7774 29.4292 14.0913 28.7821 14.3108C28.1327 14.5325 27.456 14.6416 26.7499 14.6416C26.0091 14.6416 25.303 14.5222 24.6293 14.2857C24.479 14.3705 24.3308 14.495 24.1871 14.6541C24.0441 14.8162 23.9726 15.0084 23.9726 15.2272C23.9726 15.6184 24.1281 15.877 24.4391 16.0044C24.7502 16.1312 25.0738 16.196 25.4121 16.196H27.5821C27.9005 16.196 28.2462 16.2011 28.617 16.2085C28.987 16.2188 29.3622 16.2512 29.7403 16.3109C30.1177 16.3706 30.4884 16.4605 30.8511 16.5776C31.2137 16.6969 31.5447 16.8664 31.8483 17.0852C32.4211 17.4764 32.8287 17.9449 33.0734 18.4856C33.31 19.0381 33.4316 19.6334 33.4316 20.2787Z" fill="white"/>
<path id="Fill-5" fill-rule="evenodd" clip-rule="evenodd" d="M50.7515 18.5202V10.2928C50.7515 9.47805 50.6129 8.84596 50.3343 8.39511C50.0579 7.94646 49.522 7.71956 48.7319 7.71956C48.2778 7.71956 47.8901 7.82712 47.5717 8.03855C47.2533 8.25072 46.9864 8.53213 46.7764 8.87838C46.5663 9.22683 46.4108 9.61286 46.3098 10.0365C46.2088 10.4623 46.1594 10.8756 46.1594 11.2844V18.518H43.0283V10.2928C43.0283 9.47805 42.8904 8.84596 42.6111 8.39511C42.3347 7.94646 41.7988 7.71956 41.0087 7.71956C40.5546 7.71956 40.1669 7.82712 39.8485 8.03855C39.5301 8.25072 39.2581 8.53213 39.0406 8.87838C38.821 9.22683 38.6633 9.61286 38.5623 10.0365C38.4606 10.4623 38.4112 10.8756 38.4112 11.2844V18.518H35.2808V5.27595H37.9055L38.1569 7.03517C38.5276 6.42446 39.0237 5.92424 39.6458 5.53306C40.2679 5.14187 41.019 4.94739 41.8924 4.94739C42.8182 4.94739 43.5936 5.13966 44.2157 5.52053C44.8378 5.9014 45.3199 6.43477 45.6553 7.11179C46.043 6.41709 46.5766 5.88151 47.2577 5.50801C47.9395 5.13451 48.7267 4.94739 49.6186 4.94739C51.033 4.94739 52.0974 5.37614 52.8131 6.23513C53.5288 7.09485 53.887 8.20799 53.887 9.5856V18.5254H50.7515V18.5202Z" fill="white"/>
<path id="Fill-7" fill-rule="evenodd" clip-rule="evenodd" d="M65.0668 10.5743C65.0469 9.6078 64.7779 8.8328 64.2568 8.25744C64.0401 8.02096 63.7659 7.83458 63.4371 7.69755C63.1091 7.56274 62.7185 7.49275 62.2622 7.49275C61.7757 7.49275 61.346 7.58779 60.973 7.77491C60.6052 7.96129 60.2993 8.20808 60.065 8.51455C59.8276 8.80333 59.6596 9.10979 59.5586 9.43099C59.4598 9.75219 59.3979 10.136 59.3831 10.5765H65.0668V10.5743ZM68.2223 12.0013C68.2053 12.1214 68.1972 12.2304 68.1972 12.3328V12.8934H59.4126C59.4126 13.404 59.4915 13.8872 59.6522 14.3455C59.8129 14.8037 60.0546 15.1846 60.3708 15.491C60.6082 15.7128 60.8816 15.9021 61.1927 16.0642C61.5037 16.2262 61.8767 16.3058 62.316 16.3058C62.7708 16.3058 63.146 16.2587 63.4401 16.1666C63.7334 16.0737 64.0003 15.9073 64.2347 15.6708C64.5361 15.3643 64.7484 14.9908 64.8671 14.5495H67.8965C67.8619 14.9407 67.7307 15.3695 67.5036 15.8373C67.2766 16.3058 67.0371 16.6896 66.785 16.9961C66.2299 17.6584 65.5658 18.1343 64.7904 18.4231C64.015 18.7118 63.2079 18.8562 62.3684 18.8562C61.4573 18.8562 60.6723 18.7067 60.0082 18.4105C59.3411 18.1144 58.7485 17.718 58.2274 17.2274C57.5707 16.5821 57.0694 15.81 56.7245 14.9112C56.378 14.0117 56.2056 13.0179 56.2056 11.9321C56.2056 10.8631 56.3611 9.87153 56.6721 8.9654C56.9832 8.05632 57.4601 7.28132 58.0969 6.63377C58.5856 6.12545 59.1782 5.71732 59.877 5.41086C60.5758 5.1044 61.3784 4.95264 62.2895 4.95264C63.2669 4.95264 64.1727 5.15154 65.0174 5.55009C65.857 5.94865 66.5484 6.56378 67.0887 7.39625C67.5751 8.12557 67.8862 8.87037 68.0225 9.62548C68.153 10.3747 68.2223 11.1696 68.2223 12.0013Z" fill="white"/>
<path id="Fill-9" fill-rule="evenodd" clip-rule="evenodd" d="M78.7005 18.5201V10.3951C78.7005 9.61498 78.5472 9.00279 78.2464 8.56151C77.9428 8.12097 77.3722 7.89922 76.5305 7.89922C75.9747 7.89922 75.5104 8.05614 75.1403 8.36997C74.7696 8.6838 74.4762 9.08751 74.2566 9.58036C74.0369 10.0739 73.9109 10.6463 73.8785 11.2991C73.8438 11.954 73.8269 12.5595 73.8269 13.1202V18.5201H70.6714V5.2766H73.3227L73.5505 6.98278C73.9382 6.28734 74.4888 5.77165 75.2045 5.44088C75.9202 5.10937 76.6565 4.94214 77.412 4.94214C78.1204 4.94214 78.7476 5.06222 79.2931 5.2987C79.8385 5.53812 80.3029 5.86374 80.6832 6.27997C81.0606 6.6962 81.3525 7.19642 81.5545 7.78209C81.7572 8.36776 81.8582 8.99984 81.8582 9.67981V18.5179H78.7005V18.5201Z" fill="white"/>
<path id="Fill-11" fill-rule="evenodd" clip-rule="evenodd" d="M92.51 18.3434C91.6012 18.5798 90.6997 18.6999 89.8086 18.6999C88.4782 18.6999 87.4853 18.3382 86.8286 17.6162C86.1718 16.8935 85.8438 15.8975 85.8438 14.6245V7.89926H83.4438V5.2759H85.8438V1.91364L88.9993 1.1239V5.2759H92.3073V7.89926H88.9993V14.3431C88.9993 14.8536 89.115 15.222 89.3523 15.4518C89.5889 15.6809 89.9597 15.7951 90.4631 15.7951C90.7985 15.7951 91.1147 15.7878 91.4088 15.7701C91.7022 15.7531 92.0678 15.7207 92.5071 15.6684V18.3434H92.51Z" fill="white"/>
<path id="Fill-13" fill-rule="evenodd" clip-rule="evenodd" d="M18.6741 2.33954C18.6741 1.34795 17.8795 0.47644 16.8026 0.47644C15.7036 0.47644 14.9312 1.34795 14.9312 2.33954C14.9312 3.37827 15.7036 4.15548 16.8026 4.15548C17.8795 4.15548 18.6741 3.37827 18.6741 2.33954Z" fill="white"/>
</g>
</g>
</g>
</svg>
