<svg width="41" height="41" viewBox="0 0 41 41" fill="none" xmlns="http://www.w3.org/2000/svg">
<path fill-rule="evenodd" clip-rule="evenodd" d="M7.45771 0.691467C3.72079 0.691467 0.691406 3.72084 0.691406 7.45777V34.2337C0.691406 37.9706 3.72079 41.0001 7.45771 41.0001H34.2336C37.9706 41.0001 40.9999 37.9706 40.9999 34.2337V7.45777C40.9999 3.72084 37.9706 0.691467 34.2336 0.691467H7.45771ZM17.0006 26.3074C17.0006 28.4111 18.7148 30.1254 20.8215 30.1254C22.9272 30.1254 24.6402 28.4111 24.6402 26.3074C24.6402 25.3399 24.279 24.4198 23.6242 23.7122L20.8215 20.9106L20.8206 20.9115L18.5326 18.6243L18.5341 18.6228L14.355 14.444C15.5115 13.2857 16.6694 12.1288 17.8276 10.9723L21.1945 7.60625L23.3656 9.77648L18.813 14.3267L20.8215 16.3323L24.531 12.6885L25.7376 13.891L26.8235 14.9731L23.1086 18.6207L25.9562 21.4691V21.4699C27.2133 22.8212 27.879 24.5228 27.879 26.3081C27.879 30.1979 24.7119 33.3618 20.8215 33.3618C16.9288 33.3618 13.7637 30.1979 13.7637 26.3081C13.7637 24.5254 14.4295 22.8259 15.6399 21.5172L17.2137 19.9434L19.5017 22.2307L17.974 23.7591C17.3616 24.4212 17.0006 25.342 17.0006 26.3074Z" fill="#32C6A1"/>
</svg>
