<svg width="68" height="68" viewBox="0 0 68 68" fill="none" xmlns="http://www.w3.org/2000/svg">
<path d="M33.7905 55.9049C46.4931 55.9049 56.7905 45.8526 56.7905 33.4525C56.7905 21.0524 46.4931 11.0001 33.7905 11.0001C21.088 11.0001 10.7905 21.0524 10.7905 33.4525C10.7905 45.8526 21.088 55.9049 33.7905 55.9049Z" fill="url(#paint0_linear_3863_1554)"/>
<path d="M47.2342 35.1818C46.7919 34.4486 46.2612 33.7593 45.7279 33.0673C45.1328 32.2928 44.5405 31.5208 44.0688 30.6895C43.1816 29.1275 42.785 27.2092 43.7686 25.8047C43.774 25.797 43.7686 25.7841 43.7579 25.7841C42.0961 25.4588 40.5416 24.7591 39.2444 23.7884C38.2607 23.0525 37.3977 22.1593 36.7678 21.1575C36.3631 20.5121 36.0468 19.8279 35.8297 19.1257C35.7788 18.9578 35.4304 18.9578 35.4116 19.1283L35.283 20.3442C35.2508 20.636 35.2187 20.938 35.0445 21.1808C34.6075 21.8004 33.5945 21.7565 32.7368 21.6816C30.2629 21.4647 27.7434 21.5757 25.468 22.2961C24.16 22.7117 22.9432 23.3365 21.9381 24.1602C21.4342 24.5732 20.9839 25.0379 20.6087 25.5465C20.2522 26.0267 20.0592 26.5689 19.9092 27.1318C19.5473 28.5027 20.0592 30.0105 20.8231 31.2729C21.2654 32.0062 21.7987 32.6955 22.3294 33.3874C22.9244 34.162 23.5167 34.934 23.9884 35.7653C24.8756 37.3273 25.2723 39.2455 24.2887 40.65C24.2833 40.6578 24.2887 40.6707 24.2994 40.6707C25.9611 40.996 27.5156 41.6956 28.8129 42.6664C29.7965 43.4022 30.6327 44.2955 31.2626 45.2973C31.6673 45.9427 31.9836 46.6269 32.1981 47.3265C32.2489 47.4943 32.7689 47.5356 32.8333 47.3756C32.9244 47.1484 33.0181 46.9109 33.0986 46.6139C33.112 46.5649 33.1254 46.5107 33.1415 46.4565C33.2782 45.9479 33.4658 45.2585 33.6212 45.039C33.9643 44.5511 34.5647 44.6389 35.2214 44.7344C35.3982 44.7603 35.5805 44.786 35.7654 44.8016C38.2393 45.0184 40.3138 44.879 42.5893 44.1587C43.8972 43.743 45.114 43.1182 46.1192 42.2946C46.6231 41.8816 47.0733 41.4168 47.4486 40.9082C47.8024 40.428 47.998 39.8859 48.1481 39.323C48.5099 37.952 47.998 36.4443 47.2342 35.1818ZM43.0074 39.2894C42.1819 40.1724 40.7855 40.4745 39.4561 40.5958C39.3141 40.6087 39.1854 40.6216 39.0648 40.632C37.9873 40.7352 37.671 40.7636 36.3872 40.6113C35.9209 40.5545 35.0926 40.3067 34.83 40.2266C34.7791 40.2112 34.7416 40.1724 34.7282 40.1207C34.6746 39.9142 34.5325 39.3385 34.4602 38.7421C34.3931 38.187 34.3288 37.2446 34.3503 36.3359C34.3529 36.1706 34.1171 36.1086 34.0581 36.2584C34.0125 36.3771 33.967 36.4959 33.9214 36.6147C33.4765 37.7816 33.0343 38.9435 31.93 39.6509C30.4478 40.6035 28.1268 40.539 26.0683 40.4848C25.8593 40.4797 25.6529 40.4745 25.4492 40.4693C25.2911 40.4667 25.2106 40.2266 25.3205 40.1207C25.9798 39.4831 25.9209 38.5149 25.8619 37.5002C25.8566 37.428 25.8539 37.3556 25.8485 37.2834C25.7789 36.008 25.4144 34.7532 25.0498 33.4959C24.7657 32.5199 24.4817 31.544 24.3369 30.5578C24.1573 29.3599 24.2216 28.0561 25.0633 27.1576C25.8887 26.2746 27.2851 25.9725 28.6145 25.8512C30.0244 25.7221 31.2546 25.7299 32.6832 25.8977C33.2353 25.9648 33.3452 26.0371 33.506 26.3314C33.5087 26.3391 33.5114 26.3443 33.514 26.3521C33.6185 26.6618 33.7821 27.9941 33.7821 28.0096L34.1171 30.5294C34.1359 30.6765 34.3288 30.7076 34.3743 30.5707C34.5084 30.1731 34.6022 29.7497 34.6933 29.3289C34.9345 28.2316 35.1731 27.1473 36.1326 26.5302C37.4861 25.6601 39.5017 25.7867 41.3966 25.9029C41.7879 25.9261 42.1766 25.9519 42.5518 25.9648C42.7099 25.9699 42.7903 26.2153 42.6831 26.3211C42.0747 26.9278 42.1337 27.8314 42.198 28.7841C42.206 28.908 42.2141 29.032 42.2221 29.1584C42.2918 30.4339 42.6563 31.6886 43.0208 32.946C43.305 33.9219 43.589 34.8978 43.7338 35.884C43.9133 37.082 43.8491 38.3858 43.0074 39.2843V39.2894Z" fill="white"/>
<defs>
<linearGradient id="paint0_linear_3863_1554" x1="33.7905" y1="11.0001" x2="33.7905" y2="55.9049" gradientUnits="userSpaceOnUse">
<stop stop-color="#9687FF"/>
<stop offset="1" stop-color="#334AD3"/>
</linearGradient>
</defs>
</svg>
