<svg width="55" height="55" viewBox="0 0 55 55" fill="none" xmlns="http://www.w3.org/2000/svg">
<g clip-path="url(#clip0_2997_3186)">
<path d="M20.1469 11.5697H16.4067C15.4956 11.5697 14.7571 12.3082 14.7571 13.2193V41.3421C14.7571 42.2532 15.4956 42.9917 16.4067 42.9917H20.1469C21.058 42.9917 21.7966 42.2532 21.7966 41.3421V13.2193C21.7966 12.3082 21.058 11.5697 20.1469 11.5697Z" fill="white"/>
<path d="M28.9033 11.5697H25.1631C24.252 11.5697 23.5134 12.3082 23.5134 13.2193V41.3421C23.5134 42.2532 24.252 42.9917 25.1631 42.9917H28.9033C29.8144 42.9917 30.5529 42.2532 30.5529 41.3421V13.2193C30.5529 12.3082 29.8144 11.5697 28.9033 11.5697Z" fill="white"/>
<path d="M37.6604 11.5697H33.9201C33.0091 11.5697 32.2705 12.3082 32.2705 13.2193V41.3421C32.2705 42.2532 33.0091 42.9917 33.9201 42.9917H37.6604C38.5714 42.9917 39.31 42.2532 39.31 41.3421V13.2193C39.31 12.3082 38.5714 11.5697 37.6604 11.5697Z" fill="white"/>
<path d="M6 35.265H11.3906C11.8281 35.265 12.2477 35.4388 12.5571 35.7481C12.8665 36.0575 13.0403 36.4771 13.0403 36.9146V42.9917C12.1158 42.9918 11.2003 42.8098 10.3461 42.4561C9.49198 42.1023 8.71586 41.5838 8.0621 40.9301C7.40834 40.2765 6.88974 39.5004 6.53592 38.6463C6.18211 37.7922 6 36.8767 6 35.9522V35.265Z" fill="white"/>
<path d="M41.0281 18.6099V13.2193C41.0281 12.7818 41.2019 12.3622 41.5113 12.0528C41.8207 11.7434 42.2403 11.5696 42.6778 11.5696H48.7548C48.7549 12.4943 48.5729 13.4099 48.2191 14.2643C47.8653 15.1186 47.3466 15.8948 46.6928 16.5486C46.0389 17.2025 45.2627 17.7211 44.4084 18.0749C43.5541 18.4287 42.6385 18.6108 41.7138 18.6107H41.0273L41.0281 18.6099Z" fill="#FF3E24"/>
</g>
<defs>
<clipPath id="clip0_2997_3186">
<rect width="43" height="32.0545" fill="white" transform="translate(6 11.4727)"/>
</clipPath>
</defs>
</svg>
