<svg width="93" height="35" viewBox="0 0 93 35" fill="none" xmlns="http://www.w3.org/2000/svg">
<g clip-path="url(#clip0_3015_62411)">
<path fill-rule="evenodd" clip-rule="evenodd" d="M1.34769 8.6123C1.15567 8.6123 1 8.76797 1 8.96V19.3909C1 19.5828 1.15567 19.7386 1.34769 19.7386H28.4679C28.6599 19.7386 28.8155 19.5828 28.8155 19.3909V8.96C28.8155 8.76797 28.6599 8.6123 28.4679 8.6123H1.34769ZM25.1647 16.2616C25.2608 16.2616 25.3386 16.1838 25.3386 16.0877V12.2631C25.3386 12.1671 25.2608 12.0892 25.1647 12.0892H4.65079C4.55478 12.0892 4.47694 12.1671 4.47694 12.2631V16.0877C4.47694 16.1838 4.55478 16.2616 4.65079 16.2616H25.1647Z" fill="white"/>
<path d="M4.47694 24.2585C4.47694 24.0664 4.32128 23.9108 4.12925 23.9108H1.34769C1.15567 23.9108 1 24.0664 1 24.2585V27.04C1 27.2321 1.15567 27.3877 1.34769 27.3877H4.12925C4.32128 27.3877 4.47694 27.2321 4.47694 27.04V24.2585Z" fill="white"/>
<path d="M68.4535 24.2585C68.4535 24.0664 68.2979 23.9108 68.1059 23.9108H65.3243C65.1323 23.9108 64.9766 24.0664 64.9766 24.2585V27.04C64.9766 27.2321 65.1323 27.3877 65.3243 27.3877H68.1059C68.2979 27.3877 68.4535 27.2321 68.4535 27.04V24.2585Z" fill="white"/>
<path d="M32.988 24.2585C32.988 24.0664 33.1437 23.9108 33.3357 23.9108H60.4559C60.6479 23.9108 60.8036 24.0664 60.8036 24.2585V27.04C60.8036 27.2321 60.6479 27.3877 60.4559 27.3877H33.3357C33.1437 27.3877 32.988 27.2321 32.988 27.04V24.2585Z" fill="white"/>
<path fill-rule="evenodd" clip-rule="evenodd" d="M64.9766 8.96C64.9766 8.76797 65.1323 8.6123 65.3243 8.6123H92.4445C92.6365 8.6123 92.7922 8.76797 92.7922 8.96V19.3909C92.7922 19.5828 92.6365 19.7386 92.4445 19.7386H65.3243C65.1323 19.7386 64.9766 19.5828 64.9766 19.3909V8.96ZM89.1414 12.0892C89.2374 12.0892 89.3153 12.1671 89.3153 12.2631V16.0877C89.3153 16.1838 89.2374 16.2616 89.1414 16.2616H68.6274C68.5314 16.2616 68.4535 16.1838 68.4535 16.0877V12.2631C68.4535 12.1671 68.5314 12.0892 68.6274 12.0892H89.1414Z" fill="white"/>
<path d="M33.3357 8.61224C33.1437 8.61224 32.988 8.76791 32.988 8.95994V11.7415C32.988 11.9335 33.1437 12.0892 33.3357 12.0892H57.1528C57.2488 12.0892 57.3266 12.167 57.3266 12.263V16.0877C57.3266 16.1837 57.2488 16.2615 57.1528 16.2615H33.3357C33.1437 16.2615 32.988 16.4172 32.988 16.6092V19.3908C32.988 19.5828 33.1437 19.7385 33.3357 19.7385H60.4559C60.6479 19.7385 60.8036 19.5828 60.8036 19.3908V8.95994C60.8036 8.76791 60.6479 8.61224 60.4559 8.61224H33.3357Z" fill="white"/>
</g>
<defs>
<clipPath id="clip0_3015_62411">
<rect width="92" height="18.7755" fill="white" transform="translate(1 8.6123)"/>
</clipPath>
</defs>
</svg>
