<svg width="55" height="55" viewBox="0 0 55 55" fill="none" xmlns="http://www.w3.org/2000/svg">
<path d="M27.969 6.00002C15.8319 6.01551 6 15.8474 6 27.969V28.031C6 40.177 15.8695 50.0177 28.031 50L44.2478 49.9779V39H50V27.969C50 15.823 40.1327 5.98232 27.969 6.00002ZM44.4823 31.1858C44.2898 31.9447 44.1991 32.3031 44.0066 33.0619C43.9159 33.4204 43.4757 33.8186 43.0752 33.8872C38.6726 33.9978 34.7611 32.7146 30.9624 31.1106C32.4734 34.7434 34.3053 38.2212 37.3518 41.1217C37.6947 41.3584 37.7102 41.7212 37.385 41.9159C36.7345 42.3031 36.385 42.5111 35.7345 42.8982C35.4093 43.0929 34.8451 43.0553 34.5022 42.8186C31.323 39.7898 29.4668 36.1372 27.9181 32.3429C26.4314 35.9602 25.2788 39.6969 25.3739 43.8783C25.4314 44.3186 25.177 44.5708 24.8164 44.4801C24.0575 44.2876 23.6991 44.1969 22.9403 44.0044C22.5819 43.9137 22.1991 43.4978 22.115 43.073C22.0044 38.6703 23.2876 34.7588 24.8916 30.9602C21.2588 32.4712 17.781 34.3031 14.8805 37.3496C14.6438 37.6925 14.281 37.708 14.0863 37.3827C13.6991 36.7323 13.4912 36.3827 13.104 35.7323C12.9115 35.4071 12.9469 34.8429 13.1836 34.5C16.2146 31.3186 19.8695 29.4602 23.6704 27.9115C20.0487 26.4204 16.3075 25.2677 12.1239 25.3717C11.6836 25.4292 11.4314 25.1748 11.5221 24.8142C11.7146 24.0553 11.8053 23.6969 11.9978 22.9381C12.073 22.5531 12.5288 22.1814 12.9292 22.1128C17.3164 22.0022 21.2146 23.2743 25.0022 24.865C23.4956 21.2478 21.6659 17.7832 18.6283 14.8916C18.2854 14.6549 18.2699 14.2921 18.5951 14.0974C19.2456 13.7102 19.5951 13.5022 20.2456 13.1151C20.5708 12.9226 21.135 12.958 21.4779 13.1947C24.6637 16.2257 26.5221 19.8938 28.073 23.7058C29.5708 20.0708 30.7345 16.3186 30.6283 12.1195C30.5708 11.6792 30.8252 11.427 31.1858 11.5177C31.9447 11.7102 32.3031 11.8009 33.0619 11.9934C33.4469 12.0686 33.8186 12.5244 33.8872 12.9248C33.9978 17.312 32.7257 21.2102 31.135 24.9978C34.7522 23.4912 38.2168 21.6615 41.1084 18.6239C41.3451 18.281 41.708 18.2655 41.9027 18.5929C42.2898 19.2434 42.4978 19.5929 42.885 20.2434C43.0796 20.5686 43.042 21.1328 42.8053 21.4757C39.7765 24.6593 36.1128 26.5155 32.3053 28.0686C35.9358 29.5642 39.6836 30.7257 43.8805 30.6283C44.3208 30.5708 44.573 30.8252 44.4823 31.1858Z" fill="#FFC702"/>
</svg>
