<svg width="78" height="29" viewBox="0 0 78 29" fill="none" xmlns="http://www.w3.org/2000/svg">
<path d="M12.9314 9.62101C12.9314 9.62101 13.5208 9.94846 14.4159 10.4432L26.0899 5.6019C25.6678 5.04403 25.207 4.52012 24.7073 4.03259C24.6249 4.07868 24.557 4.10536 24.557 4.10536L12.3809 9.22561C12.5191 9.36634 12.6986 9.49975 12.9314 9.62101Z" fill="white"/>
<path d="M5.39572 24.0581L17.2105 19.1319L15.0129 17.89L5.99482 21.7223L3.7124 22.6877C4.13202 23.231 4.59044 23.7403 5.08282 24.2158L5.39572 24.0581Z" fill="white"/>
<path d="M27.3295 7.5643L25.1781 8.39872C23.456 9.02933 16.6815 11.6998 16.6815 11.6998C17.7875 12.3111 18.9857 12.9684 20.0384 13.5432C22.7332 15.0155 21.028 18.2439 20.6715 18.8576C20.6666 18.8673 20.6618 18.8745 20.6569 18.8818C20.6278 18.9303 20.6108 18.9594 20.6108 18.9594C20.6108 18.9594 20.8631 16.546 19.1628 15.6534C17.4479 14.7633 13.5162 12.6676 11.8644 11.7872C11.0858 11.3724 10.5207 10.6181 10.4139 9.74247C10.3339 9.08758 10.4988 8.3332 11.2847 7.67349C11.7431 7.249 12.2355 7.02098 12.2355 7.02098L21.0183 3.41668C21.0183 3.41668 21.0741 3.39485 21.1542 3.35361L22.9805 2.59443C20.686 0.964477 17.8821 0.00396729 14.8502 0.00396729C7.07639 0.00396729 0.772461 6.3079 0.772461 14.0817C0.772461 16.5848 1.42978 18.9328 2.57462 20.9702L5.97278 19.4882L12.7376 16.6504C11.5709 16.01 10.4939 15.4157 9.98216 15.1417C9.72749 15.0058 9.4073 14.7899 9.15263 14.6542C7.78222 13.9289 6.88478 11.8866 8.96347 9.45864C8.96347 9.45864 8.74759 11.7605 10.0355 12.5439C11.2628 13.2886 16.0242 15.7287 17.4382 16.4854C17.7996 16.6795 18.1344 16.9269 18.4012 17.2422C18.9518 17.8946 19.1604 18.6975 18.9299 19.5488C18.9202 19.5925 18.9057 19.6313 18.8911 19.6725C18.8814 19.6992 18.8741 19.7259 18.8644 19.7526C18.8499 19.7938 18.8353 19.8326 18.8184 19.8739C18.8135 19.886 18.8087 19.8981 18.8038 19.9102C18.3187 21.0818 17.0283 21.4335 17.0283 21.4335L16.8731 21.4868L8.65298 24.8608L6.83869 25.6563C9.11383 27.2329 11.8741 28.1594 14.8502 28.1594C22.6264 28.1594 28.9279 21.8555 28.9279 14.0817C28.9304 11.7289 28.3507 9.51446 27.3295 7.5643Z" fill="white"/>
<g opacity="0.4">
<mask id="mask0_4142_882" style="mask-type:luminance" maskUnits="userSpaceOnUse" x="11" y="16" width="5" height="3">
<g opacity="0.4">
<path d="M15.0204 16.6406H11.4985V18.3627H15.0204V16.6406Z" fill="white"/>
</g>
</mask>
<g mask="url(#mask0_4142_882)">
<path d="M12.7452 16.6406L15.0204 17.88L13.8828 18.3627L11.4985 17.1621L12.7452 16.6406Z" fill="#4D4D4D"/>
</g>
</g>
<g opacity="0.4">
<mask id="mask1_4142_882" style="mask-type:luminance" maskUnits="userSpaceOnUse" x="16" y="19" width="2" height="3">
<g opacity="0.4">
<path d="M17.9233 19.1221H16.1333V21.4264H17.9233V19.1221Z" fill="white"/>
</g>
</mask>
<g mask="url(#mask1_4142_882)">
<path d="M17.0264 21.4263C17.0264 21.4263 18.9159 20.0874 17.2059 19.1221L16.1313 19.5708C16.1338 19.5684 17.9238 20.0487 17.0264 21.4263Z" fill="#4D4D4D"/>
</g>
</g>
<g opacity="0.4">
<mask id="mask2_4142_882" style="mask-type:luminance" maskUnits="userSpaceOnUse" x="14" y="9" width="4" height="3">
<g opacity="0.4">
<path d="M17.9791 9.96552H14.4136V11.6901H17.9791V9.96552Z" fill="white"/>
</g>
</mask>
<g mask="url(#mask2_4142_882)">
<path d="M16.6887 11.6877L14.4136 10.4506L15.5754 9.96552L17.9791 11.188L16.6887 11.6877Z" fill="#4D4D4D"/>
</g>
</g>
<g opacity="0.4">
<mask id="mask3_4142_882" style="mask-type:luminance" maskUnits="userSpaceOnUse" x="11" y="6" width="3" height="4">
<g opacity="0.4">
<path d="M13.4385 6.90234H11.6484V9.2066H13.4385V6.90234Z" fill="white"/>
</g>
</mask>
<g mask="url(#mask3_4142_882)">
<path d="M12.543 6.90225C12.543 6.90225 10.6536 8.24113 12.3636 9.20651L13.4381 8.7578C13.4381 8.76024 11.6456 8.27999 12.543 6.90225Z" fill="#4D4D4D"/>
</g>
</g>
<path d="M39.0019 10.2225H37.9177V13.5067H35.6328V3.51352H39.6301C41.5293 3.51352 43.0549 5.0416 43.0549 6.93834C43.0549 8.16565 42.3127 9.27901 41.214 9.83685L43.3411 13.5067H40.8865L39.0019 10.2225ZM37.9177 8.22391H39.6301C40.2583 8.22391 40.7725 7.66844 40.7725 6.93834C40.7725 6.2107 40.2583 5.65283 39.6301 5.65283H37.9177V8.22391Z" fill="white"/>
<path d="M51.3057 6.36816V13.5065H49.1639V12.8347C48.6934 13.378 47.9924 13.7054 47.0368 13.7054C45.1667 13.7054 43.624 12.0633 43.624 9.93614C43.624 7.80897 45.1667 6.16687 47.0368 6.16687C47.9924 6.16687 48.6934 6.49431 49.1639 7.03763V6.36578H51.3057V6.36816ZM49.1639 9.93614C49.1639 8.86646 48.4509 8.19461 47.4661 8.19461C46.4813 8.19461 45.7682 8.86646 45.7682 9.93614C45.7682 11.0058 46.4813 11.6777 47.4661 11.6777C48.4509 11.6777 49.1639 11.0082 49.1639 9.93614Z" fill="white"/>
<path d="M59.7271 9.12375V13.5066H57.5854V9.43661C57.5854 8.55127 57.0275 8.13653 56.3435 8.13653C55.5576 8.13653 55.0168 8.5925 55.0168 9.60637V13.5042H52.875V6.36834H55.0168V7.04019C55.4024 6.51145 56.1155 6.16943 57.059 6.16943C58.4998 6.16943 59.7271 7.19543 59.7271 9.12375Z" fill="white"/>
<path d="M68.52 6.36822V13.15C68.52 15.5488 66.6497 16.5627 64.7506 16.5627C63.2663 16.5627 62.0245 16.0049 61.3671 14.8357L63.1936 13.7806C63.4654 14.2803 63.8777 14.6805 64.8213 14.6805C65.8206 14.6805 66.4339 14.1663 66.4339 13.1524V12.4951C65.9633 13.0796 65.2769 13.4241 64.3508 13.4241C62.3228 13.4241 60.8384 11.7675 60.8384 9.79792C60.8384 7.82836 62.3228 6.17175 64.3508 6.17175C65.2794 6.17175 65.9633 6.51377 66.4339 7.1007V6.3731H68.52V6.36822ZM66.4364 9.79548C66.4364 8.8107 65.7237 8.13885 64.7093 8.13885C63.6957 8.13885 62.9825 8.8107 62.9825 9.79548C62.9825 10.7803 63.6957 11.4521 64.7093 11.4521C65.7237 11.4497 66.4364 10.7803 66.4364 9.79548Z" fill="white"/>
<path d="M69.7324 9.93614C69.7324 7.80897 71.4156 6.16687 73.5137 6.16687C75.6118 6.16687 77.2975 7.80897 77.2975 9.93614C77.2975 12.0633 75.6143 13.7054 73.5137 13.7054C71.4181 13.7054 69.7324 12.0633 69.7324 9.93614ZM75.1581 9.93614C75.1581 8.92227 74.4454 8.2528 73.5162 8.2528C72.587 8.2528 71.8743 8.92471 71.8743 9.93614C71.8743 10.95 72.587 11.6219 73.5162 11.6219C74.4454 11.6219 75.1581 10.95 75.1581 9.93614Z" fill="white"/>
<path d="M36.0399 22.7748H39.1446V23.2187H35.5718V17.0118H39.1009V17.4556H36.0399V19.8666H38.8778V20.3104H36.0399V22.7748Z" fill="white"/>
<path d="M44.0222 23.2184H43.4813L41.9823 21.2853L40.4833 23.2184H39.9424L41.7155 20.9409L40.0491 18.7846H40.59L41.9823 20.5844L43.3818 18.7846H43.9154L42.2563 20.9312L44.0222 23.2184Z" fill="white"/>
<path d="M46.8871 23.318C46.22 23.318 45.6622 23.0972 45.2207 22.6534C44.7768 22.2095 44.5562 21.6614 44.5562 21.004C44.5562 20.3492 44.7768 19.7986 45.2207 19.3547C45.6646 18.9108 46.22 18.6901 46.8871 18.6901C47.3188 18.6901 47.7093 18.792 48.0586 18.9957C48.4079 19.1994 48.6626 19.476 48.8202 19.8252L48.4564 20.0387C48.3254 19.7549 48.1217 19.5293 47.8403 19.3644C47.559 19.1994 47.2412 19.117 46.8871 19.117C46.3559 19.117 45.9096 19.2989 45.5482 19.6627C45.1868 20.0265 45.0073 20.4752 45.0073 21.0064C45.0073 21.5377 45.1868 21.9864 45.5482 22.3502C45.9096 22.714 46.3559 22.8959 46.8871 22.8959C47.2412 22.8959 47.559 22.8135 47.8403 22.6485C48.1217 22.4836 48.3351 22.258 48.4831 21.9742L48.8542 22.1949C48.6771 22.537 48.4127 22.811 48.0611 23.0148C47.7093 23.2161 47.3164 23.318 46.8871 23.318Z" fill="white"/>
<path d="M52.0726 18.6878C52.599 18.6878 53.0161 18.8479 53.3266 19.1705C53.6371 19.4931 53.7923 19.9224 53.7923 20.4609V23.2187H53.3412V20.4609C53.3412 20.0461 53.2271 19.7186 52.9991 19.4761C52.7712 19.2336 52.451 19.1122 52.0362 19.1122C51.5802 19.1122 51.2091 19.2627 50.9181 19.5634C50.6294 19.8642 50.4839 20.3032 50.4839 20.8756V23.2162H50.04V17.0118H50.4839V19.6265C50.8041 19.0007 51.3352 18.6878 52.0726 18.6878Z" fill="white"/>
<path d="M59.1575 18.7847H59.6087V23.2185H59.1575V22.2168C58.9683 22.5588 58.7088 22.8281 58.3765 23.0245C58.0467 23.2185 57.6707 23.318 57.251 23.318C56.618 23.318 56.0771 23.0948 55.6284 22.6485C55.1797 22.2023 54.9541 21.6541 54.9541 21.004C54.9541 20.354 55.1797 19.8058 55.6284 19.3595C56.0771 18.9132 56.618 18.6901 57.251 18.6901C57.6707 18.6901 58.0467 18.7871 58.3765 18.9836C58.7064 19.1776 58.9683 19.4469 59.1575 19.7913V18.7847ZM55.9534 22.3405C56.3172 22.7067 56.7611 22.8911 57.2875 22.8911C57.8138 22.8911 58.2577 22.7067 58.6166 22.3405C58.978 21.9742 59.1575 21.528 59.1575 21.0016C59.1575 20.4752 58.978 20.029 58.6166 19.6627C58.2552 19.2965 57.8113 19.1121 57.2875 19.1121C56.7611 19.1121 56.3172 19.2965 55.9534 19.6627C55.5896 20.029 55.4076 20.4752 55.4076 21.0016C55.4076 21.528 55.5896 21.9742 55.9534 22.3405Z" fill="white"/>
<path d="M63.2201 18.6878C63.7462 18.6878 64.1636 18.8478 64.474 19.1705C64.7843 19.493 64.9395 19.9223 64.9395 20.4608V23.2186H64.4884V20.4608C64.4884 20.0461 64.3745 19.7186 64.1467 19.4761C63.9183 19.2335 63.5986 19.1122 63.1837 19.1122C62.7277 19.1122 62.3566 19.2626 62.0655 19.5634C61.7769 19.8641 61.6313 20.3032 61.6313 20.8756V23.2162H61.1875V18.7848H61.6313V19.6264C61.9515 19.0006 62.4803 18.6878 63.2201 18.6878Z" fill="white"/>
<path d="M70.3389 18.7848H70.7831V23.0052C70.7831 23.6504 70.5741 24.1573 70.1524 24.5309C69.7325 24.902 69.2063 25.0887 68.573 25.0887C68.0637 25.0887 67.6294 24.9941 67.2709 24.8049C66.9092 24.6158 66.647 24.3562 66.4825 24.0239L66.8729 23.8032C67.1564 24.3756 67.7246 24.6643 68.5755 24.6643C69.1262 24.6643 69.5579 24.5139 69.8708 24.2155C70.1837 23.9172 70.3414 23.5121 70.3414 23.0052V22.1902C70.1568 22.5395 69.9002 22.8136 69.5655 23.0149C69.2307 23.2162 68.8546 23.3157 68.4348 23.3157C67.7971 23.3157 67.254 23.0925 66.8072 22.6462C66.3611 22.1999 66.1377 21.6517 66.1377 21.0017C66.1377 20.3517 66.3611 19.8035 66.8072 19.3572C67.254 18.9109 67.7971 18.6878 68.4348 18.6878C68.8546 18.6878 69.2307 18.7872 69.5655 18.9885C69.9002 19.1899 70.1568 19.4639 70.3414 19.8132V18.7848H70.3389ZM67.1251 22.3406C67.4893 22.7068 67.9329 22.8912 68.4592 22.8912C68.9854 22.8912 69.4297 22.7068 69.7932 22.3406C70.1568 21.9744 70.3389 21.528 70.3389 21.0017C70.3389 20.4754 70.1568 20.0291 69.7932 19.6629C69.4297 19.2965 68.9854 19.1122 68.4592 19.1122C67.9329 19.1122 67.4893 19.2965 67.1251 19.6629C66.7616 20.0291 66.5795 20.4754 66.5795 21.0017C66.5795 21.528 66.7616 21.9744 67.1251 22.3406Z" fill="white"/>
<path d="M74.3562 18.6878C75.0057 18.6878 75.5326 18.9182 75.9374 19.379C76.3423 19.8399 76.5438 20.3856 76.5438 21.0187C76.5438 21.043 76.5413 21.0769 76.5388 21.1254C76.5363 21.1739 76.5344 21.2079 76.5344 21.2321H72.5172C72.571 21.7294 72.77 22.1295 73.1166 22.4328C73.4633 22.7384 73.89 22.8887 74.3975 22.8887C74.751 22.8887 75.062 22.816 75.3286 22.6681C75.5952 22.5201 75.7941 22.326 75.9324 22.0835L76.3229 22.3139C76.1389 22.6219 75.8792 22.8645 75.542 23.0464C75.2047 23.2259 74.8217 23.3157 74.39 23.3157C73.7111 23.3157 73.1504 23.0974 72.7137 22.6632C72.2775 22.229 72.0566 21.6736 72.0566 21.0017C72.0566 20.3395 72.27 19.7889 72.6993 19.3475C73.131 18.9085 73.6842 18.6878 74.3562 18.6878ZM74.3562 19.1146C73.8537 19.1146 73.4345 19.2723 73.0972 19.5852C72.76 19.8981 72.5685 20.3032 72.5197 20.8004H76.0851C76.0394 20.2741 75.8498 19.8617 75.5226 19.5634C75.1953 19.2626 74.8074 19.1146 74.3562 19.1146Z" fill="white"/>
</svg>
