<svg width="55" height="55" viewBox="0 0 55 55" fill="none" xmlns="http://www.w3.org/2000/svg">
<g clip-path="url(#clip0_2997_3137)">
<path d="M38.7204 33.0122C38.4014 35.0894 38.0743 37.1585 37.7554 39.2521H17.2856C17.2774 39.1703 17.2611 39.1049 17.2611 39.0313C17.2611 38.6551 17.2692 38.2789 17.2529 37.9027C17.2447 37.731 17.3101 37.6165 17.4328 37.4938C20.4751 34.4843 23.5091 31.4747 26.5514 28.4652C26.7395 28.2771 26.9276 28.0972 27.132 27.8927C27.0175 27.77 26.9276 27.6719 26.8376 27.5738C23.8935 24.5233 20.9494 21.4729 17.9971 18.4225C17.8499 18.2671 17.7681 18.1117 17.7763 17.8909C17.7926 17.4983 17.7763 17.1058 17.7845 16.7132C17.7845 16.6151 17.7926 16.517 17.8008 16.4025H36.4796C36.4878 16.4761 36.5123 16.5579 36.5123 16.6315C36.5123 18.3652 36.5123 20.0908 36.5123 21.8246C36.5123 21.89 36.4959 21.9472 36.4878 22.0372H35.8253C35.8172 21.9799 35.7926 21.9145 35.7926 21.8573C35.7845 21.7019 35.7926 21.5465 35.7926 21.3911C35.7763 19.8209 34.5823 18.6106 33.0121 18.5779C32.9303 18.5779 32.8485 18.5779 32.7667 18.5779H22.1761C22.1189 18.7496 22.2333 18.815 22.2988 18.8886C22.8631 19.4774 23.4273 20.0663 23.9916 20.6551C26.2324 22.9859 28.4732 25.3166 30.714 27.6474C30.7549 27.6883 30.7876 27.7292 30.8449 27.7946C30.7713 27.8764 30.6977 27.9581 30.6241 28.0317C28.3587 30.2807 26.0852 32.5379 23.8199 34.7869C23.1656 35.4411 22.5032 36.0872 21.849 36.7414C21.7835 36.8068 21.7263 36.8886 21.62 37.0113C21.7754 37.0277 21.8653 37.044 21.9471 37.044C25.5128 37.044 29.0784 37.0522 32.6359 37.0358C33.2738 37.0358 33.9117 36.9377 34.5414 36.8232C35.441 36.6596 36.1525 36.1444 36.7577 35.482C37.3628 34.8196 37.8126 34.059 38.1643 33.233C38.3033 32.9222 38.3442 32.9059 38.7204 33.0122Z" fill="white"/>
<path d="M9.68841 21.7674C8.91149 24.4662 8.69068 27.2059 9.06687 29.9783C9.73747 34.926 11.9128 39.1132 15.5276 42.548C17.8502 44.7479 20.5489 46.3345 23.6157 47.2749C26.3881 48.1255 29.2095 48.3626 32.0882 47.9455C33.3722 47.7575 34.6153 47.4385 35.842 47.0296C35.8747 47.0214 35.9074 47.0051 35.9401 46.9969C35.9483 47.0132 35.9565 47.0296 35.9646 47.046C35.5721 47.2013 35.1877 47.3731 34.7952 47.5203C32.8897 48.2318 30.9188 48.6652 28.8824 48.8124C19.9274 49.4667 11.9047 44.478 8.20817 36.9787C7.10413 34.7461 6.40081 32.399 6.13093 29.9292C5.52575 24.2372 6.89967 19.0687 10.3345 14.4889C13.1232 10.7679 16.7788 8.24904 21.2359 6.89148C22.7243 6.44168 24.2454 6.16363 25.7911 6.05731C29.553 5.79561 33.1432 6.45804 36.5453 8.08548C38.4671 9.00961 40.2091 10.1873 41.7793 11.6348C41.8611 11.7084 41.9347 11.782 41.9919 11.8883C41.8938 11.8147 41.7956 11.7411 41.6975 11.6675C39.4649 9.94191 37.0114 8.6743 34.2963 7.90556C30.9678 6.96508 27.6148 6.87512 24.2536 7.70929C17.2368 9.45122 11.6757 14.8161 9.68841 21.7674Z" fill="#6AC184"/>
</g>
<defs>
<clipPath id="clip0_2997_3137">
<rect width="36" height="42.8696" fill="white" transform="translate(6 6)"/>
</clipPath>
</defs>
</svg>
