<svg width="55" height="55" viewBox="0 0 55 55" fill="none" xmlns="http://www.w3.org/2000/svg">
<g clip-path="url(#clip0_2994_2966)">
<path d="M47.7776 25.0119L47.7737 24.9863L47.6631 24.9902C47.6631 24.9902 47.6608 25.0237 47.6601 25.027L47.6233 25.0286C47.5751 25.6494 47.4736 26.2391 47.3215 26.7807C46.9488 28.1143 46.3241 29.4615 45.5632 30.5742C44.7215 31.8061 43.7416 32.719 42.7288 33.2142C42.0969 33.5239 41.4703 33.7509 40.8673 33.8894C40.3993 33.9949 39.9376 34.0477 39.4969 34.0477C37.9688 34.0477 36.5688 33.4047 35.4473 32.1886C33.7136 30.3078 32.7097 27.075 32.9488 24.143C33.0319 23.1173 33.196 22.163 33.3544 21.2405C33.6913 19.2822 33.9816 17.5909 33.4384 15.8228C33.1471 14.8757 32.532 14.1413 31.7048 13.7539C31.1416 13.4899 30.5537 13.3562 29.956 13.3562C28.0352 13.3562 26.4503 14.709 25.6775 15.8675C24.4976 17.6363 23.9094 19.8636 24.0657 21.9772C24.2112 23.9555 24.8969 25.2596 25.9257 27.0251C26.4417 27.9099 26.9793 28.6915 27.4545 29.3818C28.2577 30.5499 28.9513 31.5588 29.2936 32.6652C29.7681 34.1988 29.4384 34.9364 29.2743 35.1828C29.0719 35.4868 28.7471 35.6619 28.3078 35.7036C28.2517 35.7092 28.1965 35.7115 28.143 35.7115C26.8021 35.7115 26.7765 33.881 26.7614 32.7867V32.7621C26.7607 32.6899 26.759 32.6212 26.7581 32.5555C26.7125 30.4123 25.8892 29.1315 24.8461 27.5092C24.1916 26.4915 23.4501 25.3388 22.7988 23.7683C21.7572 21.2596 21.4957 18.8396 22.0221 16.5763C22.0405 16.4955 22.0605 16.4147 22.0813 16.3329C22.7204 13.8137 24.3004 10.5874 28.1949 9.5241C28.9325 9.32247 29.6901 9.22002 30.4461 9.22002C32.7357 9.22002 34.7302 10.1625 35.9173 11.8049C36.8782 13.1336 37.3735 14.64 37.4326 16.4098C37.447 16.8305 37.4359 17.2715 37.3998 17.7201C37.3157 18.7322 37.1013 19.8417 36.7453 21.1113C36.0254 23.6778 35.851 25.8522 36.2277 27.573C36.5166 28.8929 37.1478 29.8987 37.959 30.3313C38.6165 30.6817 39.3173 30.8594 40.0414 30.8594C41.891 30.8594 43.5758 29.6794 44.4254 28.5106C45.7613 26.6722 46.4654 23.4305 46.3502 21.481C46.3078 20.7658 46.247 20.1602 46.163 19.6242L46.1607 19.6163L46.159 19.6123C44.5781 16.1939 42.071 13.2964 38.9085 11.2331C35.6647 9.11921 31.892 8 28 8C22.6575 8 17.6352 10.0801 13.8575 13.8575C10.0808 17.6352 8 22.6575 8 28C8 29.5527 8.17928 31.1015 8.53364 32.6049L8.53993 32.6312L8.65122 32.6151C8.65122 32.6151 8.64959 32.5823 8.64889 32.58L8.68568 32.5744C8.617 31.3839 8.7248 30.2377 8.99837 29.2591C9.37113 27.9264 9.99604 26.5783 10.7567 25.4657C11.5984 24.2345 12.5783 23.3208 13.5912 22.8256C14.2184 22.5183 14.8414 22.292 15.4424 22.1527C15.9143 22.0456 16.38 21.9919 16.8247 21.9919C18.3527 21.9919 19.7534 22.6342 20.8743 23.8503C22.6079 25.7304 23.6119 28.9639 23.3728 31.8966C23.2896 32.9229 23.1255 33.8766 22.9662 34.7991C22.6293 36.7574 22.339 38.4487 22.8822 40.2165C23.1725 41.1637 23.7886 41.8983 24.6158 42.2854C25.179 42.5495 25.7669 42.6829 26.3646 42.6829C28.2854 42.6829 29.8703 41.3302 30.6431 40.1709C31.8231 38.4021 32.4109 36.1749 32.2549 34.0615C32.1094 32.0838 31.4237 30.779 30.3949 29.0133C29.8806 28.1308 29.342 27.3476 28.8668 26.6566C28.0636 25.4885 27.37 24.4799 27.0277 23.3725C26.5532 21.8389 26.8829 21.1013 27.0461 20.8556C27.2484 20.5516 27.5732 20.3765 28.0126 20.3348C28.0687 20.3292 28.1246 20.3269 28.1774 20.3269C29.5183 20.3269 29.5439 22.1558 29.559 23.2477L29.5597 23.2789C29.5604 23.3502 29.562 23.4172 29.563 23.4822C29.6086 25.6254 30.4319 26.9062 31.475 28.5285C32.1295 29.5462 32.871 30.6997 33.5222 32.2694C34.5311 34.6983 34.8077 37.0461 34.3462 39.2477C34.3334 39.3085 34.3197 39.3693 34.3062 39.4303C33.695 42.0589 32.1262 45.4221 28.1255 46.515C27.3879 46.7166 26.6303 46.8182 25.8743 46.8189C23.5846 46.8189 21.5902 45.8766 20.403 44.2342C19.4421 42.9055 18.9471 41.3991 18.8878 39.6293C18.8789 39.3725 18.8799 39.1069 18.8894 38.8414C18.9357 37.6894 19.1607 36.4093 19.5758 34.9278C20.2957 32.3614 20.4703 30.187 20.0934 28.4661C19.8047 27.1453 19.1735 26.1404 18.3623 25.7078C17.7048 25.3574 17.0047 25.1797 16.2799 25.1797C14.431 25.1797 12.7455 26.3597 11.8959 27.5285C10.56 29.3669 9.85588 32.6086 9.97113 34.5581C10.0424 35.7693 10.1655 36.6598 10.3718 37.4494L10.3742 37.4559L10.3758 37.4589C13.8701 43.9597 20.6247 47.9998 27.9998 47.9998C33.3423 47.9998 38.3646 45.9197 42.1423 42.1423C45.9197 38.3646 47.9998 33.3423 47.9998 27.9998C47.9998 27.0014 47.9253 25.9958 47.7774 25.0116L47.7776 25.0119Z" fill="#E2F928"/>
</g>
<defs>
<clipPath id="clip0_2994_2966">
<rect width="40" height="40" fill="white" transform="translate(8 8)"/>
</clipPath>
</defs>
</svg>
