<svg width="93" height="35" viewBox="0 0 93 35" fill="none" xmlns="http://www.w3.org/2000/svg">
<g clip-path="url(#clip0_3015_62398)">
<path d="M84.9349 14.6393C82.6193 14.6393 81.3427 16.9847 81.3427 20.4879C81.3427 24.1396 82.738 26.7521 85.2318 26.7521C86.0631 26.7521 86.7756 26.5146 87.3694 26.0693V18.0238C87.3694 15.8565 86.5975 14.6393 84.9349 14.6393ZM87.3694 9.02821L85.6475 8.13756V7.39535L91.3773 6H92.1492V25.9802C92.1492 26.9896 92.2086 27.3756 93.2774 27.435L93.9899 27.4647V28.5037L88.1413 29.5428H87.2803L87.3694 26.7521C86.1522 28.5037 84.6084 29.5428 82.5599 29.5428C79.027 29.5428 76.5925 26.7225 76.5925 22.0614C76.5925 16.3612 79.977 13.1846 84.2818 13.1846C85.5881 13.1846 86.6569 13.5408 87.3694 14.1346V9.02821Z" fill="white"/>
<path d="M69.0889 13.0955C73.2156 13.0955 75.3531 15.7674 75.3531 19.4488V20.1316H65.7638C65.6747 24.0208 67.7232 26.3365 70.5139 26.3365C72.503 26.3365 73.8687 25.5646 74.9672 24.0505L75.4719 24.3473C74.7 27.4646 72.4734 29.5428 68.8811 29.5428C64.5466 29.5428 61.459 26.4849 61.459 21.7051C61.459 16.5096 64.9028 13.0955 69.0889 13.0955ZM68.7623 14.2533C66.9513 14.2533 66.0013 16.183 65.8232 18.9144H71.1671C71.1671 16.094 70.5139 14.2533 68.7623 14.2533Z" fill="white"/>
<path d="M50.2789 20.8145L54.8805 16.6284C55.5337 16.0347 55.8009 15.6784 55.8009 15.2924C55.8009 14.7284 55.3259 14.6096 53.9602 14.4612V13.3924H60.4619V14.4612C59.4229 14.6393 58.7697 14.8174 58.0275 15.5596L54.3461 19.0035L61.0854 28.5037V29.246H56.0681L50.2789 20.8145ZM45.2615 26.96V9.02821L43.5396 8.13756V7.39535L49.2398 6H50.0117V26.96C50.0117 27.9397 50.4867 28.0881 51.793 28.1772V29.246H43.4802V28.1772C44.7865 28.0881 45.2615 27.9397 45.2615 26.96Z" fill="white"/>
<path d="M34.3334 26.9005C35.0162 26.9005 35.4912 26.6333 36.1444 26.188V20.666L34.0365 21.4973C32.8787 21.9723 32.1365 22.566 32.1365 24.2583C32.1365 25.8021 32.7896 26.9005 34.3334 26.9005ZM40.8648 18.1128V25.9802C40.8648 26.8412 41.0133 27.4646 41.7555 27.4646C42.2008 27.4646 42.5867 27.3459 42.8539 27.2271L43.0321 27.9396C42.1414 28.949 40.9539 29.5428 39.4101 29.5428C37.7476 29.5428 36.6194 28.5928 36.2334 26.9896C35.3131 28.2365 33.8287 29.4834 31.6911 29.4834C29.227 29.4834 27.5645 28.0287 27.5645 25.5646C27.5645 22.9817 29.3754 21.9426 31.5427 21.141L36.1444 19.5081V16.7471C36.1444 15.2033 35.6694 14.1346 34.3037 14.1346C33.0271 14.1346 32.4927 15.144 32.4927 16.569C32.4927 17.1924 32.5818 17.8159 32.7599 18.4987L29.9098 18.8847C29.0786 18.6175 28.5145 17.9347 28.5145 16.9253C28.5145 14.3424 31.1864 13.0955 34.6303 13.0955C38.5788 13.0955 40.8648 14.4314 40.8648 18.1128Z" fill="white"/>
<path d="M22.4879 9.44385V13.3924H26.1692V14.8768H22.4879V24.7036C22.4879 26.3365 23.1113 27.0193 24.3879 27.0193C25.1598 27.0193 25.8427 26.7521 26.5552 26.2178L26.9708 26.8115C25.9317 28.4741 24.3582 29.5428 22.1019 29.5428C19.5487 29.5428 17.7081 28.2366 17.7081 24.8224V14.8768H15.9268V14.0455C18.1237 13.1252 20.0831 11.433 21.4785 9.44385H22.4879Z" fill="white"/>
<path d="M7.06582 29.5429C4.15637 29.5429 1.63286 28.682 0.267195 27.5835L0 22.4474H1.39535C2.10787 25.8912 4.03761 28.2366 7.06582 28.2366C9.32213 28.2366 10.7769 27.0788 10.7769 25.1194C10.7769 23.0709 9.50026 22.1802 6.05642 21.0224C2.34538 19.8348 0.148442 18.0832 0.148442 14.5206C0.148442 10.6611 3.08759 8.10794 7.33302 8.10794C9.94559 8.10794 12.1722 8.79077 13.6566 9.85955V14.3425H12.4097C11.7863 11.2549 10.1534 9.41423 7.33302 9.41423C5.37359 9.41423 4.09699 10.5721 4.09699 12.3534C4.09699 14.3722 5.28452 15.1738 8.4018 16.2425C12.38 17.5785 14.8739 19.1223 14.8739 23.0709C14.8739 27.435 11.3409 29.5429 7.06582 29.5429Z" fill="white"/>
</g>
<defs>
<clipPath id="clip0_3015_62398">
<rect width="93" height="35" fill="white"/>
</clipPath>
</defs>
</svg>
