<svg width="55" height="55" viewBox="0 0 55 55" fill="none" xmlns="http://www.w3.org/2000/svg">
<g clip-path="url(#clip0_2994_2957)">
<path fill-rule="evenodd" clip-rule="evenodd" d="M38.1146 7L21.3773 35.7096C21.3773 35.7096 18.5251 34.0098 17.4373 32.2164C17.1144 31.6839 16.9147 31.0898 16.7935 30.5177C16.4375 28.8379 17.0921 27.161 17.9327 25.6638L25.3293 12.4912C25.7614 11.7216 26.343 11.0462 27.04 10.5048C27.737 9.9633 28.5352 9.56669 29.3877 9.33827L38.1146 7Z" fill="url(#paint0_linear_2994_2957)"/>
<path fill-rule="evenodd" clip-rule="evenodd" d="M16.8486 48.0912L33.5859 19.3816C33.5859 19.3816 36.4381 21.0813 37.5258 22.8747C37.8488 23.4072 38.0485 24.0014 38.1698 24.5736C38.5256 26.2533 37.8711 27.9302 37.0303 29.4275L29.634 42.5998C29.2018 43.3695 28.6202 44.0449 27.9232 44.5864C27.2262 45.1278 26.4279 45.5245 25.5754 45.7529L16.8486 48.0912Z" fill="url(#paint1_linear_2994_2957)"/>
</g>
<defs>
<linearGradient id="paint0_linear_2994_2957" x1="29.2849" y1="42.9655" x2="42.5163" y2="13.2508" gradientUnits="userSpaceOnUse">
<stop stop-color="#133527"/>
<stop offset="0.25" stop-color="#32956C"/>
<stop offset="1" stop-color="#46E4A3"/>
</linearGradient>
<linearGradient id="paint1_linear_2994_2957" x1="34.3287" y1="50.7864" x2="46.7676" y2="19.9937" gradientUnits="userSpaceOnUse">
<stop stop-color="#FF4DA2"/>
<stop offset="0.688" stop-color="#D74789"/>
<stop offset="1" stop-color="#651B3C"/>
</linearGradient>
<clipPath id="clip0_2994_2957">
<rect width="35.9889" height="41" fill="white" transform="translate(8 7)"/>
</clipPath>
</defs>
</svg>
