<svg width="46" height="46" viewBox="0 0 46 46" fill="none" xmlns="http://www.w3.org/2000/svg">
<path d="M25.6185 0.986485C26.7653 -0.160302 28.6246 -0.160302 29.7713 0.986485L44.7174 15.9325C45.5572 16.7724 45.8085 18.0354 45.354 19.1327C44.8994 20.23 43.8287 20.9455 42.641 20.9455H3.23773C1.61593 20.9455 0.301199 19.6308 0.301199 18.009C0.301199 16.3872 1.61593 15.0724 3.23773 15.0724H29.2139C31.5526 15.0724 32.7239 12.2448 31.0701 10.591L25.6185 5.13937C24.4717 3.99258 24.4717 2.13327 25.6185 0.986485Z" fill="url(#paint0_linear_5132_883)"/>
<path d="M25.6185 0.986485C26.7653 -0.160302 28.6246 -0.160302 29.7713 0.986485L44.7174 15.9325C45.5572 16.7724 45.8085 18.0354 45.354 19.1327C44.8994 20.23 43.8287 20.9455 42.641 20.9455H3.23773C1.61593 20.9455 0.301199 19.6308 0.301199 18.009C0.301199 16.3872 1.61593 15.0724 3.23773 15.0724H29.2139C31.5526 15.0724 32.7239 12.2448 31.0701 10.591L25.6185 5.13937C24.4717 3.99258 24.4717 2.13327 25.6185 0.986485Z" stroke="white" stroke-width="0.263531" style="mix-blend-mode:overlay"/>
<path d="M0.555006 26.4087C1.00447 25.3236 2.06332 24.6161 3.23782 24.6161H42.641C44.2448 24.6161 45.5449 25.9162 45.5449 27.52C45.5449 29.1237 44.2448 30.4238 42.641 30.4238H16.6649C14.297 30.4238 13.1112 33.2867 14.7855 34.961L20.2372 40.4127C21.3712 41.5467 21.3712 43.3853 20.2372 44.5194C19.1032 45.6534 17.2646 45.6534 16.1305 44.5194L1.18448 29.5733C0.353985 28.7428 0.105543 27.4938 0.555006 26.4087Z" fill="url(#paint1_linear_5132_883)"/>
<path d="M0.555006 26.4087C1.00447 25.3236 2.06332 24.6161 3.23782 24.6161H42.641C44.2448 24.6161 45.5449 25.9162 45.5449 27.52C45.5449 29.1237 44.2448 30.4238 42.641 30.4238H16.6649C14.297 30.4238 13.1112 33.2867 14.7855 34.961L20.2372 40.4127C21.3712 41.5467 21.3712 43.3853 20.2372 44.5194C19.1032 45.6534 17.2646 45.6534 16.1305 44.5194L1.18448 29.5733C0.353985 28.7428 0.105543 27.4938 0.555006 26.4087Z" stroke="white" stroke-width="0.328878" style="mix-blend-mode:overlay"/>
<defs>
<linearGradient id="paint0_linear_5132_883" x1="0.092375" y1="2.44465" x2="1.0094" y2="25.3971" gradientUnits="userSpaceOnUse">
<stop stop-color="#FF4EA3"/>
<stop offset="0.15625" stop-color="#FF469F"/>
<stop offset="1" stop-color="#DA468D" stop-opacity="0"/>
</linearGradient>
<linearGradient id="paint1_linear_5132_883" x1="0.283426" y1="24.4375" x2="0.870885" y2="46.7148" gradientUnits="userSpaceOnUse">
<stop stop-color="#46DA93"/>
<stop offset="0.229167" stop-color="#46DA9C"/>
<stop offset="1" stop-color="#46DA93" stop-opacity="0"/>
</linearGradient>
</defs>
</svg>
