<svg width="100" height="38" viewBox="0 0 100 38" fill="none" xmlns="http://www.w3.org/2000/svg">
<path d="M29.4121 24.4932H31.6874V14.2022H36.0103V12.242H25.1592V14.2022H29.4121V24.4932Z" fill="white"/>
<path d="M34.6743 22.253C34.6743 23.7932 35.7944 24.7558 37.4745 24.7558C38.8922 24.7558 39.7847 23.9157 40.1523 22.6731H40.9048C40.9399 24.0382 41.2724 24.4933 42.7076 24.4933H43.6176V22.8131H42.7951C42.34 22.8131 42.27 22.7256 42.27 22.288V18.7702C42.27 16.6525 40.9574 15.5149 38.5596 15.5149C36.1969 15.5149 34.7267 16.775 34.5518 18.0877L36.4944 18.5952C36.7219 17.7026 37.3695 17.1425 38.5596 17.1425C39.6622 17.1425 40.1523 17.6151 40.1523 18.5076V18.8052C38.4896 18.9627 37.1595 19.2952 36.1619 19.8203C35.1643 20.3279 34.6743 21.1505 34.6743 22.253ZM40.1523 20.9054C40.1523 22.3931 39.2422 23.1457 38.1571 23.1457C37.317 23.1457 36.8444 22.7431 36.8444 22.043C36.8444 20.9229 38.0696 20.4329 40.1523 20.2054V20.9054Z" fill="white"/>
<path d="M45.0098 24.4932H47.145V12.242H45.0098V24.4932Z" fill="white"/>
<path d="M49.6738 14.3947H51.949V12.2245H49.6738V14.3947ZM49.7613 24.4932H51.8791V15.7773H49.7613V24.4932Z" fill="white"/>
<path d="M53.6914 22.253C54.0765 23.7932 55.7216 24.7383 57.6818 24.7383C60.0796 24.7383 61.5322 23.6357 61.5322 21.938C61.5322 21.1329 61.2347 20.5204 60.6571 20.1003C60.0796 19.6803 59.3795 19.3827 58.5569 19.2252L57.4193 19.0152C56.3692 18.8052 56.0891 18.5427 56.0891 18.0351C56.0891 17.4576 56.5967 17.0551 57.5243 17.0551C58.5219 17.0551 59.152 17.6326 59.432 18.3851L61.2347 17.6151C60.8321 16.5475 59.677 15.5149 57.5943 15.5149C55.5116 15.5149 54.0589 16.6175 54.0589 18.2276C54.0589 19.8728 55.1091 20.4854 56.8768 20.8529L58.0319 21.0629C59.012 21.2554 59.327 21.6055 59.327 22.1481C59.327 22.7606 58.7669 23.1457 57.7693 23.1457C56.3867 23.1457 55.8266 22.3755 55.6691 21.6055L53.6914 22.253Z" fill="white"/>
<path d="M63.4346 24.4933H65.5701V20.1878C65.5701 19.2078 65.6398 18.4027 66.1823 17.7726C66.4446 17.4576 66.8476 17.3001 67.3901 17.3001C68.4399 17.3001 68.9651 17.9301 68.9651 19.1727V24.4933H71.0654V20.1878C71.0654 19.1902 71.1179 18.4027 71.6604 17.7726C71.9227 17.4576 72.343 17.3001 72.8855 17.3001C73.8828 17.3001 74.4605 17.8951 74.4605 19.1727V24.4933H76.5786V18.8052C76.5786 16.6875 75.3535 15.5149 73.673 15.5149C72.4831 15.5149 71.5203 16.3549 71.153 17.5626H70.4001C70.1026 16.25 69.175 15.5149 68.0024 15.5149C66.7248 15.5149 65.9725 16.3725 65.6398 17.5626H64.6424C65.0097 17.0551 65.325 16.2849 65.325 15.7774H63.4346V24.4933Z" fill="white"/>
<path d="M78.5481 22.253C78.5481 23.7932 79.6683 24.7558 81.3482 24.7558C82.7659 24.7558 83.6583 23.9157 84.0262 22.6731H84.7785C84.8137 24.0382 85.1463 24.4933 86.5813 24.4933H87.4916V22.8131H86.6689C86.214 22.8131 86.1437 22.7256 86.1437 22.288V18.7702C86.1437 16.6525 84.831 15.5149 82.4332 15.5149C80.0707 15.5149 78.6006 16.775 78.4253 18.0877L80.3682 18.5952C80.5959 17.7026 81.2433 17.1425 82.4332 17.1425C83.5361 17.1425 84.0262 17.6151 84.0262 18.5076V18.8052C82.3635 18.9627 81.0335 19.2952 80.0355 19.8203C79.0381 20.3279 78.5481 21.1505 78.5481 22.253ZM84.0262 20.9054C84.0262 22.3931 83.1158 23.1457 82.0308 23.1457C81.1909 23.1457 80.7181 22.7431 80.7181 22.043C80.7181 20.9229 81.9432 20.4329 84.0262 20.2054V20.9054Z" fill="white"/>
<path d="M88.8838 24.4933H91.0192V20.5029C91.0192 19.4528 91.089 18.5427 91.6666 17.8426C91.9641 17.475 92.419 17.3001 93.0145 17.3001C94.0119 17.3001 94.5896 17.9126 94.5896 19.1727V24.4933H96.7244V18.7527C96.7244 16.74 95.6919 15.5149 93.7317 15.5149C92.2968 15.5149 91.3864 16.6175 91.0013 17.7901H90.004C90.494 17.0725 90.8439 16.2849 90.8618 15.7774H88.8838V24.4933Z" fill="white"/>
<path fill-rule="evenodd" clip-rule="evenodd" d="M19.9426 19.8614C19.6354 20.1685 19.1016 20.0291 18.9203 19.6343C18.8846 19.5565 18.8652 19.473 18.8652 19.3874V12.581C18.8652 11.7578 18.1979 11.0906 17.3748 11.0906C16.5516 11.0906 15.8844 11.7578 15.8844 12.581V16.0259C15.8844 16.3221 15.5809 16.5232 15.2984 16.434C15.1197 16.3774 14.9905 16.2147 14.9905 16.0272V10.4944C14.9905 9.6713 14.3232 9.00403 13.5001 9.00403C12.677 9.00403 12.0097 9.6713 12.0097 10.4944V16.0268C12.0097 16.2144 11.8805 16.3773 11.7016 16.4338C11.419 16.5231 11.1153 16.3219 11.1153 16.0255V12.5809C11.1153 11.7578 10.4481 11.0906 9.62494 11.0906C8.80182 11.0906 8.13455 11.7578 8.13455 12.581L8.13456 19.3897C8.13456 19.4737 8.11548 19.5556 8.0804 19.6319C7.90287 20.018 7.38116 20.1532 7.08065 19.8527L6.52619 19.2982C5.94416 18.7162 5.00049 18.7162 4.41846 19.2982C3.83642 19.8803 3.83643 20.8239 4.41846 21.406L8.79992 25.7874C9.89103 27.1835 11.5906 28.081 13.4998 28.081C15.3296 28.081 16.9669 27.2566 18.0605 25.959L22.6135 21.4059C23.1955 20.8239 23.1955 19.8803 22.6135 19.2982C22.0314 18.7162 21.0878 18.7162 20.5057 19.2982L19.9426 19.8614ZM13.4995 25.6964C16.1335 25.6964 18.2688 22.7156 18.2688 22.7156C18.2688 22.7156 16.1335 19.7348 13.4995 19.7348C10.8655 19.7348 8.73022 22.7156 8.73022 22.7156C8.73022 22.7156 10.8655 25.6964 13.4995 25.6964Z" fill="white"/>
<path d="M15.2884 22.716C15.2884 23.7038 14.4877 24.5045 13.4999 24.5045C12.5122 24.5045 11.7114 23.7038 11.7114 22.716C11.7114 21.7283 12.5122 20.9276 13.4999 20.9276C14.4877 20.9276 15.2884 21.7283 15.2884 22.716Z" fill="white"/>
</svg>
