<svg width="48" height="48" viewBox="0 0 48 48" fill="none" xmlns="http://www.w3.org/2000/svg">
<path d="M24.1873 46.8934C36.6639 46.8934 46.7781 36.7841 46.7781 24.3136C46.7781 11.8432 36.6639 1.73384 24.1873 1.73384C11.7108 1.73384 1.59658 11.8432 1.59658 24.3136C1.59658 36.7841 11.7108 46.8934 24.1873 46.8934Z" fill="black"/>
<path d="M45.7451 15.2119C44.5665 12.4274 42.8792 9.92618 40.7317 7.7787C40.3216 7.36861 39.899 6.97575 39.4639 6.60009C39.4153 6.5594 39.3668 6.51714 39.3183 6.47644C37.5089 4.9394 35.4898 3.69662 33.2938 2.76845C30.4091 1.54758 27.3444 0.929321 24.1858 0.929321C21.0288 0.929321 17.9641 1.54758 15.0794 2.76688C12.2933 3.94549 9.79051 5.62966 7.64304 7.77714C5.494 9.92461 3.80826 12.4258 2.62965 15.2103C1.40879 18.095 0.790527 21.1566 0.790527 24.3136C0.790527 27.4707 1.40879 30.5322 2.62965 33.4154C3.80826 36.1999 5.49556 38.7011 7.64304 40.8486C7.99051 41.196 8.34895 41.5326 8.71521 41.855C8.78408 41.916 8.85451 41.9771 8.92338 42.0366C10.7656 43.6253 12.8302 44.9087 15.0794 45.8588C17.9641 47.0781 21.0288 47.6964 24.1858 47.6964C27.3444 47.6964 30.4075 47.0781 33.2922 45.8588C36.0783 44.6818 38.5811 42.996 40.7285 40.8486C42.8776 38.7011 44.5633 36.1999 45.7419 33.4154C46.9612 30.5322 47.5811 27.4691 47.5811 24.3136C47.5826 21.1566 46.9644 18.095 45.7451 15.2119ZM24.1858 46.4379C18.9048 46.4379 14.0495 44.58 10.2413 41.484L33.43 31.7249L25.4896 23.6672L25.4865 23.6703L25.4708 23.6547L9.57608 40.9206C4.96495 36.862 2.05053 30.922 2.05053 24.3136C2.05053 12.1143 11.9802 2.18932 24.1858 2.18932C29.4026 2.18932 34.2032 4.0034 37.991 7.03053L17.5258 15.6095L25.4708 23.6531L25.474 23.65L25.4896 23.6656L38.6546 7.58305C43.3487 11.6432 46.3226 17.638 46.3226 24.3136C46.3226 36.5129 36.3929 46.4379 24.1858 46.4379ZM12.7253 39.1941L25.5037 25.3138L31.4265 31.3242L12.7253 39.1941ZM35.8842 9.15922L25.4067 21.958L19.534 16.0133L35.8842 9.15922Z" fill="url(#paint0_linear_3863_783)"/>
<defs>
<linearGradient id="paint0_linear_3863_783" x1="40.7264" y1="7.77403" x2="7.6472" y2="40.8532" gradientUnits="userSpaceOnUse">
<stop stop-color="#3EF8F3"/>
<stop offset="1" stop-color="#07AEFE"/>
</linearGradient>
</defs>
</svg>
