<svg width="55" height="55" viewBox="0 0 55 55" fill="none" xmlns="http://www.w3.org/2000/svg">
<path fill-rule="evenodd" clip-rule="evenodd" d="M10.3696 19.1958L12.8603 23.509C14.2538 25.9221 15.9121 28.8 16.5455 29.9043C17.1788 31.0086 18.2018 32.7822 18.8185 33.8457C19.4358 34.9091 20.4407 36.6492 21.0529 37.7126C21.6638 38.7761 22.8013 40.7504 23.5806 42.1002C24.3585 43.4499 25.1505 44.822 25.3379 45.1491C26.5865 47.3187 27.1693 48.2068 27.2739 48.0989C27.3415 48.0308 28.0914 46.7703 28.942 45.2978C29.7926 43.8255 31.0131 41.7172 31.6533 40.6129C32.2936 39.5085 33.185 37.9692 33.6326 37.1921C34.0816 36.415 34.9488 34.9134 35.5609 33.8551C36.1731 32.797 36.7916 31.7218 36.9344 31.466C37.0786 31.2101 37.7175 30.1015 38.3564 29.0024C38.9941 27.9033 40.5347 25.2305 41.7794 23.0627L43.9997 19.1958H37.1181L36.8987 19.5304C36.7789 19.7144 36.2942 20.5343 35.8224 21.3524L31.3192 29.1607C29.3131 32.6372 27.5621 35.6642 27.4269 35.8872L27.1821 36.293L25.5305 33.4333C24.6212 31.8604 22.4889 28.1641 20.7902 25.2193C19.0902 22.2745 17.6035 19.7144 17.4845 19.5304L17.2681 19.1958H10.3696Z" fill="#1F63EA"/>
<path fill-rule="evenodd" clip-rule="evenodd" d="M15.6144 16.7068C13.529 13.0812 10.9573 8.63658 10.6217 8.07825C10.4402 7.77633 10.3964 7.59488 10.505 7.59488C10.6004 7.59488 11.9946 8.05788 13.6032 8.62365C19.9478 10.8556 22.2803 11.6748 24.6958 12.5202L27.2133 13.4009L28.1175 13.0848C32.914 11.4083 35.2312 10.6006 36.6813 10.0995C37.6212 9.77437 39.617 9.07355 41.1143 8.54229C42.6128 8.01088 43.8932 7.59711 43.9621 7.62269C44.0297 7.64827 42.6141 10.2125 40.8146 13.321C39.0164 16.4294 37.5102 19.0551 37.4694 19.1558C37.463 19.17 37.4656 19.1833 37.4783 19.1958H17.0145C16.8719 18.9171 16.2968 17.8936 15.6144 16.7068ZM27.2031 48.3468C27.2605 48.4013 27.2974 48.4171 27.3178 48.3964C27.3242 48.3901 27.3357 48.3733 27.3536 48.3468H27.2031Z" fill="#7385FB"/>
</svg>
