<svg width="93" height="35" viewBox="0 0 93 35" fill="none" xmlns="http://www.w3.org/2000/svg">
<g clip-path="url(#clip0_3015_63394)">
<g style="mix-blend-mode:screen">
<path d="M38.7529 33.0442L34.1534 30.5375L33.042 33.8533L38.7442 33.0463C38.7269 33.0463 38.7182 33.0463 38.7529 33.0442Z" fill="#F0F4F7"/>
<path d="M38.7517 33.0442L38.7432 33.0464C38.7646 33.0464 38.8011 33.0442 38.7517 33.0442Z" fill="#F0F4F7"/>
<path d="M54.5847 31.4303L58.2873 30.3401L59.6782 25.9512L56.2594 26.1851L54.5847 31.4303Z" fill="#F0F4F7"/>
<path d="M63.3956 3.31152L60.5661 1.47656L58.9824 6.51356L62.0957 7.4493L63.3956 3.31152Z" fill="#F0F4F7"/>
<path d="M44.3047 2.13547C44.3047 2.13547 46.2221 2.72352 46.9782 2.93813L49.7036 3.74508L49.7512 6.10352e-05L44.959 0.952951L44.3047 2.13547Z" fill="#F0F4F7"/>
<path d="M25.2793 16.124L28.6439 16.1326L29.8419 12.3747L26.7829 11.5635C26.4579 12.5958 25.6108 15.0917 25.2793 16.124Z" fill="#F0F4F7"/>
<path d="M19.0173 12.6322L21.5348 15.2548L22.9842 10.602L19.8948 9.78217L19.0173 12.6322Z" fill="#F0F4F7"/>
<path d="M72.3396 27.6487C72.2876 26.331 71.9215 25.8997 71.1438 25.0906L67.0881 25.361C68.219 26.0714 68.9122 26.9512 69.0552 28.1316C69.2134 29.4279 67.8052 30.9259 66.4424 30.9259C65.682 30.9259 65.3029 30.3293 65.3029 29.6447C65.3245 29.1339 65.5043 28.4707 65.773 28.0286H65.7513H62.3326C62.0639 28.7154 61.8408 29.4902 61.8408 30.2198C61.8408 32.7201 64.0528 33.3618 66.1521 33.3618C68.3403 33.3618 70.1515 32.9411 71.2911 30.9259C71.8045 30.016 72.383 28.7111 72.3396 27.6487Z" fill="#F0F4F7"/>
<path d="M29.5427 0.339172L18.9983 0.347757L18.175 2.93815L22.0401 2.93386L20.1292 8.95596L23.2208 9.77575L25.3678 2.93171L28.7194 2.92742L29.5427 0.339172Z" fill="#F0F4F7"/>
<path d="M30.6924 9.61054C31.0716 9.5869 31.4529 9.5869 31.832 9.5869C32.4581 9.58479 33.3962 9.62982 33.3962 10.4926C33.3984 11.0892 33.1752 11.8425 32.9976 12.4177C32.664 13.5916 32.2632 14.7634 32.196 15.9588L35.6581 15.9545C35.5671 14.0294 36.7716 12.3468 36.7695 10.4432C36.7695 9.15981 35.7858 8.65116 34.6463 8.45161L34.98 8.40651C37.4606 8.07173 38.8428 6.14663 38.8406 3.73438C38.8384 1.06029 36.581 0.309138 34.2802 0.311284L30.3046 0.315576C29.1737 3.79233 28.1013 7.28839 27.0029 10.7802L30.0598 11.5893L30.6924 9.61054ZM32.8308 2.76861L33.9487 2.76647C34.7763 2.76647 35.6017 2.96392 35.6039 3.93827C35.6061 5.13367 34.7351 7.14886 33.3053 7.14886L31.4724 7.15104L32.8308 2.76861Z" fill="#F0F4F7"/>
<path d="M40.0601 15.9974L41.8431 12.6537L46.1111 12.6494L45.9811 16.0124L49.3327 16.0103L49.5992 4.56059L46.7199 3.69569C46.4577 5.84399 46.3104 8.01591 46.3104 10.1706H46.2888L43.0715 10.1728C44.2284 8.00515 45.3377 5.82037 46.3365 3.5798L44.0291 2.8866L36.5742 15.9995L40.0601 15.9974Z" fill="#F0F4F7"/>
<path d="M63.7882 15.9758L64.6353 13.4284L60.1441 13.4348L61.808 8.22828L58.6947 7.2926L55.9238 15.9823L63.7882 15.9758Z" fill="#F0F4F7"/>
<path d="M42.9857 16.9781H38.5856L34.4541 29.782L39.7122 32.6193C42.8601 32.5012 45.0656 30.1941 45.0656 27.0264C45.0656 25.8096 44.3052 24.8588 43.1222 24.5262C45.4469 23.996 46.9418 22.513 46.9418 20.0793C46.9396 17.7079 45.0851 16.9781 42.9857 16.9781ZM41.1768 29.2605C40.5506 30.1898 39.8811 30.2564 38.8304 30.2564H37.4677L38.9647 25.655C40.0588 25.698 42.0022 25.434 42.0022 27.0264C42.0022 27.7325 41.5797 28.6854 41.1768 29.2605ZM40.9081 23.4166H39.6558L40.9731 19.3668C41.9566 19.4119 43.8112 19.1029 43.8112 20.6073C43.835 22.3779 42.6954 23.4166 40.9081 23.4166Z" fill="#F0F4F7"/>
<path d="M53.6426 5.79254L50.3041 16.8495L47.3555 25.8182L50.8955 25.5478L53.452 17.5684H53.4563L56.9097 6.76044C56.4287 6.62738 54.5136 6.01788 53.6426 5.79254Z" fill="#F0F4F7"/>
<path d="M55.2983 17.0018L54.4707 19.5879H58.3379L56.5289 25.346L59.9043 25.1164L61.6656 19.5879H65.015L65.8426 17.0018H55.2983Z" fill="#F0F4F7"/>
<path d="M70.6235 16.8451C67.1614 16.8451 65.1055 19.2337 65.1055 22.5538C65.1098 23.0367 65.5453 24.2257 66.4357 24.6227L70.5997 24.3437C69.8912 23.7514 68.639 22.3542 68.639 21.6117C68.639 20.5923 69.2131 19.2595 70.3982 19.2595C71.202 19.2595 71.6937 19.4806 71.6937 20.3433C71.6937 20.897 71.4251 21.4057 71.2691 21.9379H74.4863C74.6878 21.4722 74.9998 20.4098 74.9998 19.9227C75.002 17.5083 72.634 16.8451 70.6235 16.8451Z" fill="#F0F4F7"/>
<path d="M32.4482 17.0706C30.8731 17.0706 30.6478 18.223 30.2578 19.4463C30.1279 19.8863 29.8809 20.4229 29.8809 20.8842C29.8809 21.7728 30.676 21.9423 31.4148 21.9423C32.3182 21.9487 32.7991 21.6483 33.1198 20.807C33.3386 20.2318 33.9084 18.6501 33.9084 18.0943C33.9084 17.3066 33.1068 17.0706 32.4482 17.0706ZM32.888 18.2016C32.888 18.3991 32.6627 19.0429 32.5868 19.2682L32.238 20.3456C32.1015 20.7534 31.9369 21.2212 31.4169 21.2212C31.1223 21.2212 30.9316 21.0516 30.9316 20.7469C30.9316 20.352 31.2393 19.6202 31.3693 19.2124C31.4992 18.8068 31.6704 17.9977 32.1232 17.841C32.225 17.8067 32.3355 17.7938 32.446 17.7938C32.6518 17.7938 32.8988 17.9763 32.8988 18.1951L32.888 18.2016Z" fill="#F0F4F7"/>
<path d="M36.4558 19.8175L36.6941 19.0363H35.3249L35.6953 17.8709H37.1339L37.3874 17.0898H34.8937L33.3945 21.88H34.4431L35.0931 19.8175H36.4558Z" fill="#F0F4F7"/>
</g>
</g>
<defs>
<clipPath id="clip0_3015_63394">
<rect width="93" height="35" fill="white"/>
</clipPath>
</defs>
</svg>
