<svg width="93" height="35" viewBox="0 0 93 35" fill="none" xmlns="http://www.w3.org/2000/svg">
<g clip-path="url(#clip0_3015_62432)">
<path d="M93.0023 17.6853V17.4876C93.0271 16.8451 93.0023 16.2026 92.9527 15.5601C92.9527 15.4118 92.9279 15.2388 92.9031 15.0906C92.8534 14.621 92.8038 14.1515 92.7046 13.7067C92.655 13.4102 92.5805 13.1384 92.5309 12.8418C92.258 11.7792 91.8858 10.7167 91.3648 9.70348C89.9257 6.96052 87.7671 5.23073 84.5168 5.18131C81.3409 5.13188 78.9838 6.66399 77.644 9.40695C75.0388 14.7693 75.0388 20.2552 77.6937 25.5682C79.0335 28.2617 81.3409 29.7691 84.492 29.7444C87.6182 29.7197 89.7768 28.0887 91.2159 25.4693C91.2903 25.3211 91.3648 25.1728 91.4392 25.0245C91.5881 24.728 91.7369 24.4315 91.861 24.1102C92.4317 22.7511 92.7542 21.3178 92.8783 19.8599C92.9031 19.6869 92.9031 19.5386 92.9279 19.3656C92.9527 18.8714 92.9775 18.3525 92.9775 17.8582C93.0023 17.8088 93.0023 17.7594 93.0023 17.6853ZM80.15 23.1959C79.1327 18.8714 78.9839 14.9423 80.547 11.0873C81.5394 8.6409 83.574 7.5536 85.5837 8.2208C86.5017 8.51734 86.7995 8.91272 86.328 9.92589C84.3679 14.0527 82.5319 18.2289 80.6214 22.3804C80.547 22.5287 80.4229 22.7017 80.15 23.1959ZM88.2633 24.0361C86.9979 26.9026 84.4424 27.7675 82.1101 26.013C84.2191 21.392 86.328 16.7462 88.437 12.1005C88.5611 12.1005 88.6603 12.1005 88.7844 12.1005C88.9829 13.3113 89.2558 14.4975 89.3798 15.7083C89.6528 18.5502 89.4295 21.3672 88.2633 24.0361Z" fill="white"/>
<path d="M17.6743 21.5155C17.6246 24.728 16.4833 27.4709 13.3819 28.8795C10.1068 30.3621 6.83167 30.2139 3.90392 27.9899C1.81975 26.4578 1.07541 24.1843 1.02579 21.7132C0.976165 16.5238 1.02579 11.3344 1.00098 6.14502C1.00098 5.40368 1.22428 5.08243 1.99343 5.13185C2.81221 5.18127 3.63099 5.13185 4.59864 5.13185C4.59864 10.4695 4.59864 15.56 4.59864 20.6753C4.59864 21.2931 4.57382 21.9109 4.64826 22.5286C5.02043 25.3705 6.85648 27.0508 9.5113 26.952C12.1661 26.8531 13.9774 25.0739 14.0518 22.2321C14.151 18.9455 14.1014 15.6342 14.1014 12.3476C14.1014 9.99999 14.1014 7.67712 14.1014 5.2307H17.575C17.6246 5.57665 17.6991 5.8979 17.6991 6.19444C17.6991 11.3097 17.7487 16.4249 17.6743 21.5155Z" fill="white"/>
<path d="M40.8728 20.5518V5.206C40.1532 5.206 39.6074 5.28014 39.0863 5.206C37.7713 4.9836 37.0022 5.60139 36.2826 6.66397C33.6526 10.3954 31.0226 14.1515 28.1941 17.7347C26.8047 19.4892 26.7799 21.2931 27.0032 23.443H39.9299C37.2751 24.901 36.6796 26.3095 37.548 29.1019H40.8479V26.9767C40.8479 24.2338 41.1209 23.8878 43.7509 23.2947V20.5518H40.8728ZM37.2255 20.527H29.9061C32.3128 17.191 34.6451 13.9785 36.9774 10.7661C37.0766 10.8155 37.151 10.8402 37.2503 10.8896V20.527H37.2255Z" fill="white"/>
<path d="M66.8253 26.2354V29.0031C66.3291 29.0278 65.8576 29.0525 65.3614 29.0525C61.7638 29.0525 58.1661 29.0525 54.5684 29.0525C52.8565 29.0525 52.8565 29.0525 52.8813 27.3968C52.8813 27.0756 52.9309 26.7543 52.9557 26.3095H58.4142V9.20928C57.0992 13.4349 55.809 14.6458 52.9557 14.2751V11.0132C56.5534 11.0379 58.8608 9.67879 58.4638 5.62613H61.9623V26.2354H66.8253Z" fill="white"/>
</g>
<defs>
<clipPath id="clip0_3015_62432">
<rect width="92.0008" height="24.7361" fill="white" transform="translate(0.999023 5.13196)"/>
</clipPath>
</defs>
</svg>
