<svg width="55" height="55" viewBox="0 0 55 55" fill="none" xmlns="http://www.w3.org/2000/svg">
<g clip-path="url(#clip0_2997_3201)">
<path d="M20.3467 10.3464V24.6032L17.9929 23.2439V10.3464H20.3467Z" fill="#FAFAF5"/>
<path d="M25.053 10.3463V27.3203L22.6992 25.961V10.3463H25.053Z" fill="#FAFAF5"/>
<path d="M9.17691 26.3077L21.5237 33.4361L19.1695 34.7949L8 28.3461L9.17691 26.3077Z" fill="#FAFAF5"/>
<path d="M11.5304 22.2308L26.2304 30.7178L23.8763 32.0767L10.3535 24.2693L11.5304 22.2308Z" fill="#FAFAF5"/>
<path d="M17.416 43.9617L29.7628 36.8333L29.7625 39.5514L18.5929 46.0001L17.416 43.9617Z" fill="#FAFAF5"/>
<path d="M15.0615 39.8846L29.7615 31.3976L29.7612 34.1157L16.2385 41.9231L15.0615 39.8846Z" fill="#FAFAF5"/>
<path d="M36.8235 45.6536V31.3968L39.1773 32.7562V45.6536H36.8235Z" fill="#FAFAF5"/>
<path d="M32.1152 45.6536V28.6796L34.469 30.0389V45.6536H32.1152Z" fill="#FAFAF5"/>
<path d="M47.9932 29.6922L35.6465 22.5638L38.0006 21.205L49.1702 27.6537L47.9932 29.6922Z" fill="#FAFAF5"/>
<path d="M45.6384 33.7692L30.9385 25.2822L33.2926 23.9233L46.8153 31.7307L45.6384 33.7692Z" fill="#FAFAF5"/>
<path d="M39.754 12.0385L27.4072 19.1669L27.4075 16.4487L38.5771 10L39.754 12.0385Z" fill="#FAFAF5"/>
<path d="M42.1081 16.1154L27.4082 24.6024L27.4085 21.8842L40.9312 14.0769L42.1081 16.1154Z" fill="#FAFAF5"/>
</g>
<defs>
<clipPath id="clip0_2997_3201">
<rect width="41.4" height="36" fill="white" transform="translate(8 10)"/>
</clipPath>
</defs>
</svg>
